<svg xmlns="http://www.w3.org/2000/svg" width="35" height="35" fill="none"><path fill="#fff" d="M17.5 0C7.837 0 0 7.837 0 17.5S7.837 35 17.5 35 35 27.163 35 17.5 27.163 0 17.5 0zm8.78 15.76a8.248 8.248 0 01-5.06-1.72l.017 7.293a6.11 6.11 0 01-1.833 4.348 6.237 6.237 0 01-3.484 1.743c-.31.045-.623.069-.941.069a6.257 6.257 0 01-4.425-1.812 6.114 6.114 0 01-1.822-4.763 6.121 6.121 0 011.545-3.693 6.257 6.257 0 014.702-2.103c.318 0 .632.024.94.07v3.313a2.956 2.956 0 00-3.891 2.847 2.953 2.953 0 001.444 2.49 2.97 2.97 0 002.447.269 2.953 2.953 0 002.03-2.803l.004-13.8h3.263a5.048 5.048 0 002.011 3.987 5.036 5.036 0 003.043 1.016h.01v3.248z"/></svg>