<svg xmlns="http://www.w3.org/2000/svg" fill="none" viewBox="0 0 53 49"><path fill="#304477" d="M28.7.71c-.74.73-1.13 1.05-1.25 1.05a.45.45 0 00-.23.1c-.18.13-1 .13-1.25 0a6 6 0 01-1.24-.7l-.42-.29c-.7-.46-1.25-.37-2.02.3-.43.38-.97.61-1.86.8-.4.08-.99.29-1.08.38a.34.34 0 01-.18.08c-.06 0-.25.1-.44.2a4.6 4.6 0 01-.63.33c-.7.42-.7.42-1.79.41H15.3l-.25.2a.99.99 0 00-.3.34c-.2.7-.87 1.7-1.12 1.7-.11 0-.67.3-.81.45a2.53 2.53 0 00-.76.48c-.15.11-.87.84-1.35 1.36-.3.34-.37.42-.86 1.03-.16.2-.35.36-.49.4-.46.16-1.2 0-2.15-.47-.42-.21-.57-.24-.7-.12-.13.14-.09.3.16.65.12.19.23.37.23.42 0 .05.04.15.1.22.08.12.12.3.3 1.2.08.34.07.35-.33 1.17-.22.44-.5.93-.63 1.08a14.51 14.51 0 00-1.72 2.16l-.25.46v1.35c.01 1.12 0 1.37-.09 1.43-.06.05-.1.13-.1.19 0 .12-.52.67-.64.67-.04 0-.18.12-.32.27-.22.25-.24.3-.24.67 0 .38.01.41.33.74.18.2.44.55.58.81l.24.46.01.87c0 .63-.02.96-.1 1.23a5.43 5.43 0 00.47 4.33c.18.32.33.6.33.63 0 .03.06.11.13.18.08.06.14.14.14.17s.09.18.19.34a2 2 0 01.24.45c.03.09.1.23.14.3.05.07.1.21.1.32 0 .1.03.3.07.45.06.2.06.36 0 .7-.09.37-.08.44.02.58.16.26.43.49 1 .87.94.63 1.06.72 1.54 1.23.49.51.66.74 1.37 1.79.3.45.52.7.74.84.19.12.36.22.4.22.05 0 .11.04.16.1.04.05.13.1.19.1s.23.06.37.13c.15.07.32.13.39.13.06 0 .23.06.38.13.14.08.3.13.36.13.05 0 .1.04.1.07 0 .04.07.1.15.14.62.28 1.47.82 2.02 1.27.18.16.5.4.68.55.18.15.63.56 1 .91.36.36.78.71.92.78.33.16.83.18 1.14.03.12-.07.42-.12.72-.13.7-.03 1.07.15 1.55.75.2.25.44.59.54.77.17.28.2.31.43.31.14 0 .43-.09.67-.2.24-.13.53-.27.66-.32a7.47 7.47 0 012.4-.03 6 6 0 002 .32c.29-.01.57-.07.62-.1.04-.05.24-.1.43-.1.19-.02.38-.06.42-.09.04-.03.3-.14.57-.24.27-.11.52-.22.56-.25.03-.03.1-.06.17-.06.05 0 .21-.05.35-.13.13-.07.28-.13.33-.13.05 0 .14-.05.18-.1a10.85 10.85 0 002.12-1.09l.71-.42.62-.38a11 11 0 01.66-.29c.5-.2.66-.24 1.23-.26 1.11-.05 1.68-.4 2.4-1.5a9.13 9.13 0 01.56-.8c0-.06.67-.97.88-1.2l.56-.67c.47-.56.45-.55.96-1.13.2-.24.38-.46.38-.5 0-.04.17-.24.37-.44.5-.48.7-.54 1.73-.5.4.02.58 0 .7-.09.18-.12.36-.63.42-1.2a3 3 0 01.14-.63c.05-.12.1-.35.1-.48-.01-.15.04-.37.09-.5.06-.14.1-.34.1-.46 0-.11.06-.4.13-.63.08-.23.14-.5.14-.6 0-.1.04-.3.1-.44.05-.13.1-.3.1-.4 0-.09.04-.25.1-.37.1-.24.28-.93.36-1.4.04-.17.09-.35.12-.4.03-.04.08-.2.1-.37l.15-.6.22-.8.24-.79.1-.29-.33-.49a3.85 3.85 0 01-.42-.69 1.9 1.9 0 01-.38-.97c0-.33.14-.58.72-1.24.39-.44.44-.56.4-.86 0-.16-.3-.5-.43-.5-.1 0-.6-.52-.8-.85-.2-.33-.22-1.26-.02-1.87.07-.23.13-.47.13-.52-.01-.37-.55-1.03-1.36-1.68-.57-.44-.82-.96-.63-1.3l.24-.58c.1-.26.2-.48.22-.5.03-.02.12-.19.2-.38.15-.35.15-.36.03-.63a1.12 1.12 0 00-.22-.37c-.14-.11-.95-.1-1.24.02a.89.89 0 01-.86-.03c-.71-.37-1.16-1.22-.9-1.72.1-.18.16-.82.11-1.1-.06-.35-.2-.4-1.41-.43l-1.08-.03-.35-.36-.36-.35-.05-.85c-.04-.9-.13-1.34-.36-1.66-.25-.35-.46-.3-1.15.32-.32.3-.72.6-.87.67-.29.13-.8.18-.87.08-.02-.03-.11-.08-.2-.11-.4-.1-1.2-.87-1.7-1.64a3.32 3.32 0 00-.35-.4c-.2-.21-.29-.25-.53-.25-.15 0-.49.08-.74.17-.5.2-1 .27-1.27.2-.22-.06-.79-.66-.95-1.02L29.9.81a1.53 1.53 0 01-.13-.35c0-.1-.26-.35-.37-.35-.05 0-.37.27-.71.6zM.01 6.12c-.04.19.01.25.54.6.24.17.33.18.84.18.62 0 .92-.06.92-.16 0-.04-.08-.1-.18-.13l-.36-.17a.78.78 0 00-.34-.1c-.1 0-.2-.04-.24-.1-.05-.05-.14-.1-.2-.1a.97.97 0 01-.3-.1 1 1 0 00-.4-.1c-.2 0-.24.04-.28.18zM51.75 19.16c-.28.17-.27.29.06.45.31.17.4.17.7.02.16-.09.22-.16.22-.3 0-.08-.03-.2-.08-.24-.12-.12-.66-.1-.9.07zM49.25 24.1a.93.93 0 00-.5.45c-.03.1 0 .18.09.29.1.12.2.14.52.14.34 0 .4-.02.58-.2.12-.11.21-.25.21-.3 0-.12-.46-.43-.63-.41-.08 0-.2.01-.27.03zM3.57 34.15c-.72.3-.94.52-1.03 1.05-.08.49.19.6.76.3.55-.28.92-.96.7-1.29-.12-.15-.19-.16-.43-.06zM49.5 35.66c-.1.06-.06.2.07.2.04 0 .18.12.3.26.6.63 1.15.88 1.66.74.23-.06.28-.1.28-.23 0-.22-.2-.56-.44-.81l-.22-.22h-.79c-.42 0-.82.03-.87.06zM7.43 41.2c-.29.3-.35.55-.17.62.14.05.68-.17.76-.31.1-.2.07-.46-.07-.54-.2-.1-.22-.08-.52.23zM43.1 42.14c-.1.1-.05.31.14.58.26.38.38.48.78.63.31.13.35.13.49.03.2-.14.15-.55-.13-.84-.3-.3-1.12-.56-1.29-.4zM17.58 48.03c-.1.24-.1.24.06.24.14 0 .16-.08.06-.3-.05-.12-.05-.11-.12.06z"/></svg>
