<svg xmlns="http://www.w3.org/2000/svg" fill="none" viewBox="0 0 141 545"><path fill="#fff" d="M140.77 312.9c-.2-.19-1.16-19.7-2.05-43.38-1.03-25.8-2.48-49.09-3.67-58.4-.97-8.54-2.17-18.13-2.54-21.46-.57-3.98-.42-5.5.27-4.57 1.77 2.43 4.18.37 4.08-3.63-.1-3.8-4.8-28.55-7.67-40.57-1.92-8.14-4.79-27.7-6.46-44.99-3.04-29.73-8-57.04-10.04-54.89-.18.2.45 6.18 1.48 13.2 1.97 13.96 2.47 22.51.73 13.9a89.78 89.78 0 01-1.25-8.26c-.24-1.8-.57-3.51-.95-3.6-.29-.18-.25 5.06.02 11.81l.59 12.08-1.73-4.33c-1.22-3.12-2-3.86-2.54-2.9-.54.97-.85.22-.9-2.16-.2-4.19-1-5.3-2.76-3.74-.84.69-1.09 2.03-.67 3.45a6.67 6.67 0 01-.37 4.1c-.82 1.55-1.02 1.26-1.76-1.86-.43-2.08-1.33-3.68-2-3.76-1.8.05-2.82-2.88-1.53-4.53.82-1.07.6-2.5-1.2-5.88-4.5-9.12-5.76-2.8-2.84 15.12.79 4.94 1.44 11.87 1.44 15.5.07 6.37.07 6.47-.9 2.02a97.3 97.3 0 01-1.1-9.31c-.06-2.67-.58-4.56-.95-4.26-.47.3-1.62.04-2.49-.6-1.16-.93-1.8-3.77-2.37-11.18-.42-5.52-1.23-11.12-1.84-12.53l-1-2.45-.04 2.67c.04 1.52-.5 2.87-1.24 3.17-.76.3-1.08 2.32-.9 6.02.47 7.23-1.9 7-3.04-.3-.45-2.75-1.17-4.73-1.54-4.53-.37.3-.61-1.6-.58-4.18 0-3.8-.1-4.09-.61-1.6l-.69 2.97-.72-2.46c-.51-1.32-1.78-6.43-2.94-11.16-1.17-4.74-2.7-9.27-3.49-10.1a62.1 62.1 0 01-4.43-6.37c-1.78-2.72-3.55-4.96-4.02-4.95-.38.01-.62 1.92-.46 4.2.57 7.52.26 10.48-.82 8.79-.9-1.31-1.18-1.3-2 .05-.54.87-.91 1.26-1.01 1.07-.26-2.75-4.28-11.41-5.13-11.2-.56.2-1.04.12-1.05-.16 0-.29-.89-5.12-1.88-10.72-1.9-10.8-3.2-13.73-4.23-9.32-.34 1.53-.97 2.7-1.45 2.7-.47.01-.83.98-.8 2.21.06 2.1-.04 2.1-1.41.33-1.28-1.6-1.27-1.12-.39 3.62 1.34 7.59.19 11.05-1.6 4.43-1.05-4.17-1.34-4.45-1.37-1.87.04 1.71.5 4.56 1.2 6.25.62 1.7.86 3.89.5 4.85-.52 1.63-.8 1.54-2.48-.6-1.66-2.15-1.95-2.15-2.76-.5-.73 1.34-1.14.02-1.76-5.49-.48-4.08-1.04-7.5-1.33-7.68-.2-.18-1.31.6-2.42 1.78-1.57 1.66-2 3.38-1.88 8.24l.25 6.09-2.43-2.32c-1.37-1.3-2.97-4.7-3.72-8-1.59-6.35-3.32-7.54-3.19-2.21.05 1.9-.38 3.53-.86 3.55-.57.01-1.06-.55-1.07-1.21-.03-.96-.31-.95-.86.11-.9 1.55-2.12-1.56-2.23-5.85a8.26 8.26 0 00-1.73-4.43c-1.47-1.77-1.45-1.2-.77 7.07 1.29 13.3 1.54 23.3.75 29.5-.54 4.97-.72 5.26-1.63 3l-1.1-2.45-.79 2.97c-1.3 4.7-2.41 20.73-1.67 23.86 1.06 4.45 2.26 2.99 1.39-1.56-.54-2.37-.78-4.46-.5-4.66 1.2-1.26 1.85 2.05 2.37 11.09.23 5.61.95 11.3 1.46 12.63.5 1.42 1.44 4.34 2.06 6.52.63 2.17 1.98 6.9 2.93 10.5 2.81 9.83 5.5 29.48 5.12 37.3-.18 3.9-.27 11.72-.22 17.53.09 7.05-.13 9.72-.74 8.02-.42-1.32-.95-3.7-.99-5.21-.13-1.43-.93-3.03-1.7-3.49-.87-.45-2.38-3.84-3.52-7.72-2.19-7.56-4-11.32-5.5-11.28-.58 0-.76.49-.36 1.05.4.66-.26.86-1.8.52-1.62-.43-2.84.08-4.04 1.44-1.57 1.85-1.63 2.9-.35 12.3.8 5.6 1.8 11 2.4 11.94 1.09 1.97 4.63 29.21 4.84 37.78.08 2.95.47 7.23.9 9.4.66 3.13.95 3.5 1.48 1.97.44-1.25.87.36 1.07 4.54.47 11.23 1.39 21.11 2.64 29.37.68 4.36 1.61 14.82 2.01 23.19.7 12.74 1.06 15.5 2.52 16.89 1.66 1.57 1.83 4.52 2.26 36.7.3 19.33.15 35.62-.21 36.3-.37.58-.59 10.68-.57 22.5.02 23.14-.48 36.96-2.47 63.4-1.22 15.65-1.03 41.55.4 45.7.31.95.9 1.5 1.46 1.2.46-.39.96.74 1 2.55.15 5.62 1.77 2.15 2.8-6.07.55-4.5 1.4-8.04 1.88-8.05 1.14-.03 1.18 1.59.05 5.8a16.64 16.64 0 00-.12 6.49l.75 3.12 1.24-3.55c1.24-3.46 1.24-3.46.81 2.17-.2 3.15-.6 6.4-.86 7.26-.44 1.15-.05 1.62 1.37 1.58 1.52-.04 2.16-.9 2.57-3.5a30.5 30.5 0 011.93-6.33l1.35-2.8.3 4c.24 2.18.31 5.14.25 6.47-.1 3.43 2.16 10.04 3.18 9.35.37-.3.85-.12.87.45.04 1.72 2.12 1.19 3.5-.75 1.1-1.56 1.29-1.37 1.94 1.95.85 3.7 3.1 6.5 3.92 4.95.28-.4.98-2.8 1.58-5.19.5-2.4 1.32-4.03 1.7-3.76.4.38 1.07 4.26 1.46 8.64.52 5.41 1.36 8.44 2.43 9.55 1.56 1.49 1.74 1.39 2.72-1.2.53-1.45 1.36-2.42 1.94-2.15.48.37 1.13-.41 1.38-1.75 1.18-6.03 1.28-5.65 1.2 2.16-.18 8.29.88 12.64 2.75 11.45.57-.3.91-1.64.88-2.97-.03-1.24.47-3.73 1.19-5.46l1.25-3.18 1.2 2.54c.7 1.42 1.31 3.11 1.33 3.88.02.85.7 1.22 2.02.8 1.7-.52 1.99-.05 2.08 3.57.1 3.8.2 4.09 1.98 3.1 1.5-.9 1.97-.73 2.58.88.93 2.74 2.5 1.46 2.42-2.06-.13-5.24 1.72-18.05 2.67-18.07.48-.01.78 4.26.63 9.7-.23 9.53-.23 9.62.88 4.74.69-2.78 1.65-5.95 2.29-7.01 1-1.84 1.2-1.46 1.39 2.44.16 2.47.22 4.85.13 5.23.01.38.3.75.88.74.47-.01 1.07-2.4 1.48-5.27l.53-5.16 1.4 2.91 1.31 2.92.09-4 .09-4 1.32 3.4 1.32 3.49.67-3.55c.75-4.11 1.05-3.45 2.2 4.52.47 3.23 1 5.5 1.17 4.92 3.8-14.95 4.97-17.55 6.38-14.35.3.66.56-.4.5-2.4.05-2 .78-7.16 1.7-11.56.94-4.31 1.97-12.44 2.21-17.87.44-8.96.61-9.64 1.8-7.57.8 1.31 1.48 2.15 1.48 1.96.42-2.1 1.69-19.28 1.97-27 .47-15.25 2.06-8.63 2.77 11.83.52 16.66.63 17.6 1.19 9.5.25-4.96.87-17.84 1.17-28.51.73-19.83 1.28-28.04 2.86-40.65.47-3.82 1.13-15.55 1.43-26.04.3-10.39.88-21.45 1.18-24.5l.52-5.54.7 5.03c.45 2.75.45 13.99-.03 24.95-.92 23.65-.9 28.4-.12 47.53l.56 14.47.93-15.36c1.02-16.13 2.17-23.2 1.65-10.14-.21 6.77-.73 23.83-1.03 38.22-.21 10.2 1.32 7.01 2.35-4.63 1.3-16.32 1.96-31.48 2.8-65.22.85-34.03 1.72-63.38 2.27-71.69.2-3.05.23-5.72-.06-6zm-36.9-223.28c-.22-.95-.26-2.47-.1-3.43.27-.95.48-.2.53 1.7.04 1.91-.13 2.68-.44 1.73zm-2.94-7.16c-.7-1.6-1.65-5.2-2-7.95-.7-4.56-.7-4.65.43-1.44a59.8 59.8 0 001.94 5.38 14 14 0 01.97 4.54c.06 2.38-.03 2.39-1.34-.53zm-4.07-18.38c-.48.02-.89-1.12-.92-2.55-.04-1.42.22-2.29.7-2.1 1.16.72 1.35 4.62.22 4.65zm5.94 450.66c-.3-.38-.41-1.23-.14-1.9.36-.87.55-.6.68.55.02 1.05-.15 1.62-.54 1.35zM8.84 190.62c-.3-.76-.33-1.8-.07-2.57.18-.67.48-.11.51 1.32.04 1.33-.23 1.9-.44 1.25z"/></svg>
