<svg xmlns="http://www.w3.org/2000/svg" fill="none" viewBox="0 0 627 646"><path fill="#fff" d="M116.98 342.8c3.4-2.92-1.55-9.3 2.5-11.21 4.28-2.01 5.89 4.74 10.37 6.24 2.13.72 3.83-.12 5.6 1.26 2.12 1.66.2 5 2.48 6.44 3.16 1.98 5.23-5.25 8.72-3.93 2.97 1.12 5.63 3.96 4.35 6.85-1.1 2.47-4.12 1.1-6.44 2.48-3.75 2.23-3.36 8.52-7.7 8.08-2.34-.23-2.92-2.43-5.17-3.12-2.95-.9-5.34 1.92-7.89.2-1.75-1.2-.86-4.02-2.9-4.58-2.6-.7-2.3 4.6-4.98 4.77-2.36.14-4.73-.8-5.19-3.12-.52-2.65 5.14-2.08 5-4.77-.17-3.07-7.06-.46-7.06-3.54 0-3.34 5.77.11 8.3-2.06zM159.5 408.13c4.43-.68 3.58-8.71 8.04-8.2 4.7.54 2.5 7.13 5.52 10.77 1.43 1.72 3.32 1.91 4.1 4.01.93 2.53-2.47 4.36-1.29 6.78 1.65 3.36 7.21-1.7 9.48 1.26 1.93 2.52 2.7 6.33.09 8.12-2.23 1.51-4.09-1.24-6.78-1.29-4.36-.08-7.34 5.47-10.8 2.82-1.87-1.44-1.2-3.6-2.76-5.39-2.02-2.32-5.54-1.18-6.8-3.99-.86-1.93 1.38-3.86-.06-5.4-1.83-1.98-4.37 2.7-6.75 1.41-2.07-1.12-3.59-3.17-2.75-5.38.94-2.52 5.45.94 6.75-1.42 1.47-2.7-5.76-4.1-4.13-6.72 1.76-2.84 4.84 3.13 8.14 2.62zM156.94 321.11c4.47.35 5.47-7.66 9.7-6.14 4.44 1.6.8 7.51 2.9 11.74 1 2 2.8 2.62 3.08 4.85.33 2.67-3.4 3.68-2.8 6.3.84 3.64 7.41-.01 8.94 3.4 1.3 2.88 1.19 6.77-1.77 7.91-2.51.97-3.7-2.13-6.3-2.8-4.23-1.07-8.4 3.65-11.16.28-1.5-1.83-.35-3.79-1.45-5.87-1.45-2.72-5.14-2.42-5.72-5.44-.4-2.08 2.23-3.45 1.19-5.28-1.34-2.35-4.88 1.63-6.9-.16-1.77-1.57-2.77-3.91-1.46-5.87 1.5-2.24 5.1 2.16 6.9.16 2.06-2.3-4.66-5.32-2.48-7.5 2.36-2.35 4 4.16 7.33 4.42zM459.45 337.34c-3.4 2.93 1.6 9.28-2.44 11.21-4.26 2.05-5.91-4.7-10.4-6.17-2.13-.7-3.84.15-5.61-1.22-2.14-1.64-.23-5-2.52-6.42-3.18-1.96-5.2 5.29-8.7 3.99-2.97-1.1-5.66-3.92-4.4-6.83 1.08-2.47 4.12-1.13 6.43-2.52 3.73-2.25 3.3-8.54 7.63-8.13 2.36.22 2.94 2.4 5.2 3.09 2.96.88 5.33-1.96 7.9-.25 1.75 1.17.88 4 2.92 4.55 2.6.7 2.27-4.62 4.96-4.8 2.35-.15 4.72.78 5.2 3.09.54 2.64-5.12 2.1-4.96 4.8.19 3.07 7.06.4 7.08 3.49.01 3.34-5.77-.07-8.3 2.12zM126.15 319.36c3.47-4.87 3.34-14.94 3.34-14.94s1.02 9.03 5.38 11.01c6.42 2.92 7.73-7.83 12.68-12.84 0 0 5.33-3.3 5.4-6.63.12-4.73-8.44-10.56-10.36-6.25-.96 2.16 1.45 3.81.61 6.02-.59 1.56-1.11 2.8-2.7 3.32-2.24.74-2.98-2.27-5.18-3.12-6.86-2.66-11.47 1.46-18.48 3.7-9.11 2.91-28.83 4.04-22.01 10.75 1.68 1.66 2.82 3.23 5.18 3.12 2.11-.1 2.49-2.54 4.57-2.9 4.3-.72 10.23 3.9 8.08 7.7-1.04 1.84-4.01.86-4.57 2.9-.71 2.6 2.2 4.13 4.76 4.98 2.25.75 3.8.17 6.02-.6 3.53-1.23 5.11-3.18 7.28-6.22zM460.25 114.2c-4.98 4.77-.97 9.6 4.98 5.83 3.2-2.03 3.7-4.27 1.79-6.27-1.99-1.62-5.14-1.54-6.76.45zM535.35 151.81c-9.18 4.22-16.39 20.64-11.8 26.38 7.17 8.27 19.53 12.6 20.79 7 .67-2.98 4.03-5.75 7.27-6.2 6.48-.9 9.69-9.99 8.21-20.9-1.02-7.69-14-10.99-24.47-6.28zM495.25 159.3c-3.42 4.72-5.91 8.87-6 9.24-.08.38 4.6 2.21 10.5 3.92 8.42 2.67 12.2 1.56 15.4-4 2.58-4.52 2.38-8.87-.19-11.41-7.7-7.6-13.72-7-19.72 2.25zM410.2 143.38c-8.35 4-8.35 4-2.14 11.28 10.8 13.01 24.21 10.92 23.5-3.36-.16-9.84-8.87-12.96-21.37-7.92zM583.51 185.35c-.5 2.24-5.57 7.38-11.14 11.23-7.4 5-9.27 8.12-6.95 11.77 2.6 4.12 6.39 3 15.16-2.88 13.42-9.15 18.13-21.42 9.54-23.34-2.99-.67-6.02.6-6.6 3.22zM467.38 169.91c-3.16 3.61 1.43 9.34 5.92 6.82 4.11-2.6 4.54-8 .8-8.84-2.24-.5-4.81.5-6.72 2.03zM599.34 134.64c-3.16 3.6 1.43 9.34 5.92 6.81 4.12-2.6 4.54-8 .8-8.84-2.23-.5-4.81.5-6.72 2.03zM333.57 149.34c-9.68 6.46-11.1 9.28-11.12 23.4-.49 17.92 5.02 23.08 9.98 9.68 1.84-4.69 6.25-10.36 9.99-13.06 3.74-2.69 5.32-6.25 3.95-8.91-1.44-2.29-2.68-7.27-2.59-11.17.3-6.6-.53-6.4-10.21.06zM376.72 156.27c-4.2 6.5-2.35 13.98 3.17 12.08 5.16-1.98 8.25-15.8 3.77-16.8-1.87-.42-5.07 1.6-6.94 4.72zM452.55 174.83a4.11 4.11 0 002.9 4.57 3.84 3.84 0 004.57-2.9c.5-2.24-.66-4.07-2.9-4.57a3.83 3.83 0 00-4.57 2.9zM442.58 184.36a4.11 4.11 0 002.9 4.57 3.84 3.84 0 004.56-2.9c.5-2.24-.65-4.07-2.9-4.57a3.83 3.83 0 00-4.56 2.9zM526.37 205.88c-5.02 3.18-4.16 8.08 1.44 9.34 2.99.67 5.93-.24 6.35-2.1 1.09-4.86-4.13-9.56-7.79-7.24zM510.66 220c.03 5.1-.19 11.33-.69 13.57-1.5 6.72 6.59 7.36 18.43 1.78 11.09-5.75 13.84-11.02 5.33-9.79-2.87.54-9.63-2.55-14.56-6.79-8.62-7.03-9-7.11-8.51 1.23zM549.29 224.34c-2 1.9-2.95 4.44-2.08 5.81 2.02 3.2 10.58.02 11.58-4.46 1-4.48-5.34-5.9-9.5-1.35zM296.9 187a4.11 4.11 0 002.9 4.57 3.83 3.83 0 004.57-2.9c.5-2.23-.66-4.06-2.9-4.56a3.83 3.83 0 00-4.57 2.9zM172.01 184.36a4.11 4.11 0 002.9 4.57 3.83 3.83 0 004.57-2.9c.5-2.24-.66-4.06-2.9-4.56a3.83 3.83 0 00-4.57 2.9zM183.99 218.41a4.12 4.12 0 002.9 4.58 3.83 3.83 0 004.57-2.9c.5-2.24-.66-4.07-2.9-4.57a3.83 3.83 0 00-4.57 2.9zM146.65 210.05a4.11 4.11 0 002.9 4.57 3.83 3.83 0 004.57-2.9c.5-2.24-.66-4.07-2.9-4.57a3.83 3.83 0 00-4.57 2.9z"/><path fill="#fff" d="M125.77 285.75c-.63 2.8.61 6.02 2.48 6.44 2.24.5 4.36-1.96 4.99-4.76.75-3.36-.24-5.94-2.48-6.44-1.87-.42-4.24 1.4-5 4.76zM297.44 132.08c-.63 2.8 1.55 6.23 4.35 6.86a5.75 5.75 0 006.85-4.35c.76-3.36-.98-6.1-4.34-6.85-2.8-.63-6.1.98-6.86 4.34zM372.28 205.85c-1.88 3.11-2.63 6.47-2.13 7.76 2.6 4.11 14.85.2 16.02-5.03 1.6-7.1-9.32-9.15-13.9-2.73zM480.88 232.15c.7 2.12 2.15 4.4 3.27 4.66.75.16 1.91-1.54 2.33-3.4.5-2.25-1.03-4.16-3.27-4.66-1.86-.42-2.95.9-2.33 3.4zM325.05 203.12c-.92 4.1-6.53 9.9-11.48 12.72-7.14 3.88-8.76 5.88-5.53 8.95 6.17 5.7-12.2 21.19-20.37 17.4-3.94-1.67-6.89-.76-7.47 1.85-1.76 7.84-9.44 8.87-14.61 2.22-3.73-4.37-4.1-4.45-3.62.36 1.07 5.73-18.29 18.65-25.76 16.97-2.61-.58-6.05-4.49-7.83-8.8-2.35-5.24-3.76-5.95-4.89-2.67-.67 2.98 1.9 9.05 5.83 14.24l6.7 8.56-13.37 7.2c-7.97 4.1-20.06 2.02-25.5.02-7.3-2.42-12.03 1.23-13.7 8.7-1.6 7.09 5.8 10.85 14.5 13.98 5.73 2.46 10.8 4.38 11.08 4.83.3.46-3.09 10.3-7.34 22.28-5 15.35-6.3 22.9-3.33 27.1 1.95 3.57 3.01 9.3 2.1 13.4-.84 3.74 1.5 12.5 5.48 19.27 3.97 6.77 7.58 9.93 8.08 7.7.84-3.74 1.96-3.5 4.56.62 2.61 4.12 2.11 6.36-1.55 8.67-2.74 1.74-4.78 5.6-4.25 8.46.08 3.16-1.92 8.59-5.45 12.11-4.79 5.6-4.75 7.17.1 8.26 3 .67 6.36-2.1 7.2-5.84 2.34-10.45 10.89-10.1 18.59 1.03 6.83 9.77 20.55 16.76 21.9 10.79.41-1.87 3.69-.74 7.67 2.5 4.84 4.62 8.29 5 13.15 2.56 5.31-2.73 5.6-2.28 2.57 2.53-4.75 7.17 3.47 9.01 15.97 3.97 6.44-2.48 9.96-2.47 10.87.48 1.28 3.03 3.6 3.16 7.14-.36 3.28-2.4 10.84-4.63 17.44-4.33 6.22.22 12.7-.68 14.15-1.93 1.46-1.24 5.7-2.64 9.76-3.3 3.61-.37 7.44-3.43 8.19-6.8 2-8.95 6.36-5.62 14.38 11.07 4.01 8.35 10.84 18.12 14.82 21.36 5.6 4.79 5.56 3.2-1.52-8.96-10.76-18.5-12.4-32.2-4.83-37.95 3.28-2.4 5.4-6.63 5.25-9.4-.78-5.28 10.77-14.85 13.46-11.1.5 1.28-1.42 6.34-4.54 11.52-3.41 4.73-4.79 9.13-2.92 9.54 1.87.42 5.65-4.22 8.48-9.86 3.7-7.8 6.08-9.62 8.48-6.34 2.48 2.92 6.84 2.72 13.82-.43 13.67-6.74 13.21-9.98-1.93-10.63-11.25-.55-13.32-1.8-15.21-10.85-3.26-15.24-1.92-17.69 9.82-19.37 7.31-1.1 10.22-3.59 9.65-8.03-.37-3.61-.57-7.97-.15-9.84.5-2.24-2.24-4.03-5.76-4.03-3.9-.1-6.47-2.63-6.26-5.33.13-2.32.6-6.14.64-8.09.41-1.87-2.65-5.69-6.5-7.73-7.26-4.37-7.53-15.41-.44-13.82 1.87.42 3.32-.82 2.33-3.4-.7-2.12-4.35-3.33-7.59-2.88-4.07.66-6.18-2.17-6.5-7.73-.12-4.73-3.1-8.93-7.2-9.85-7.85-1.75-8.37-8.14-.32-9.09 2.95-.9 2.37-1.82-1.28-3.03a362.67 362.67 0 00-10.04-4.2c-1.78-.8-4.97-2.3-7.13-3.17-6.93-2.34-1.98-8.68 5.12-7.1 8.21 1.85 17.28-10.63 12.93-17.48-4.34-6.86-20.16-1-22.09 7.6-1.92 8.58-2.38 8.87-13.74.05-4.72-3.4-7.74-9.18-6.9-12.92.83-3.73.26-8.17-1.73-9.8-1.62-1.53-3.65-1.2-4.07.66a4.25 4.25 0 01-5.02 3.2c-2.25-.51-2.78-3.38-1.07-5.74 2.24-3.02.67-6.51-3.1-8.93-3.48-1.95-6.5-7.73-6.25-12.38.18-7.8.18-7.8-2.07-1.24zM421.45 234.91c-5 4.76-1.56 8.67 6.2 7.27 3.62-.36 5.7-2.64 5.08-5.13-1.9-5.53-7.13-6.7-11.28-2.14zM485.63 247.72c-1.83 1.16-7.02 1.57-11.5.56-4.48-1-9.17.7-10.76 4.26-2.29 4.97.53 6.4 15.55 9.36 15.47 2.69 18.34 2.15 19.76-4.2 1.68-7.46-6.66-14.03-13.05-9.98z"/><path fill="#fff" d="M287.28 207.2c-6.32 3.68-5 11.82 2.09 13.4 4.85 1.1 8.05-.93 9.14-5.79 1.59-7.09-5.2-11.75-11.23-7.61zM502.53 266.8c-7.62 11.24-7.7 11.6-1.73 12.95 7.1 1.59 21.77-9.63 19.78-14.79-2.51-8-12.06-7.4-18.05 1.84zM466.08 271.97c-.42 1.86 1.78 4.32 4.76 4.98 2.99.67 6.02-.6 6.44-2.47.5-2.24-1.78-4.32-4.76-5-3-.66-5.94.25-6.44 2.49zM481.25 281.25c-7.89 3.72-7.89 3.72 2.1 6.35 5.6 1.26 10.42.77 10.84-1.1 1.5-6.72-4.67-8.89-12.94-5.25zM264.65 234.68c-1.54 1.61-1.2 3.65.66 4.06 2.24.5 4.52-.94 4.94-2.8.5-2.25.1-3.91-.65-4.08-1.12-.25-3.33.83-4.95 2.82zM426.4 277.58c-1.18 8.76.64 11.13 9.6 13.13 5.89 1.72 11.07 4.84 11.6 7.7 1.1 10.84 22.74 7.06 25.33-4.52.84-3.73-2.27-5.6-10-6.16-7.71-.55-11.86-3.05-13.75-8.57-1.4-4.24-7.09-8.65-12.31-9.82-8.22-1.84-9.67-.6-10.48 8.24zM247.17 237.43c0 3.52 1.86 7.47 4.22 9.17 6.22 3.75 7.7-8.07 1.19-12.28-3.78-2.41-5.15-1.54-5.4 3.1zM211.82 234.2c-.42 1.88.78 5.28 2.4 6.82 1.98 1.62 3.56 1.58 4.06-.66.42-1.86-.4-5.19-2.4-6.8-1.6-1.55-3.56-1.6-4.06.65zM482.1 323c-.43 1.87 1.27 3.03 3.4 2.33 2.48-.62 4.4-2.15 4.64-3.27.17-.75-1.15-1.83-3.4-2.33-1.86-.42-4.15 1.03-4.65 3.27zM535.26 313.2c-.41 1.87 1.28 3.03 3.4 2.33 2.5-.62 4.4-2.15 4.66-3.27.16-.75-1.16-1.83-3.4-2.33-1.87-.42-4.15 1.03-4.66 3.27zM513.63 339.72c-.41 1.87 1.29 3.03 3.4 2.33 2.5-.62 4.4-2.15 4.66-3.27.17-.74-1.16-1.83-3.4-2.33-1.87-.42-4.15 1.03-4.65 3.27zM448.29 211.37c-.42 1.86 1.28 3.03 3.4 2.33 2.49-.62 4.4-2.15 4.65-3.27.17-.75-1.16-1.83-3.4-2.33-1.87-.42-4.15 1.03-4.65 3.27zM428.2 73.54c-.43 1.87 1.28 3.04 3.4 2.33 2.48-.61 4.4-2.15 4.65-3.27.16-.74-1.16-1.82-3.4-2.33-1.87-.41-4.15 1.03-4.66 3.27zM361.55 178.48c-.26 1.14.57 1.8 1.66 1.33 1.27-.43 2.28-1.4 2.43-2.08.1-.46-.54-1.08-1.66-1.33-.94-.21-2.13.72-2.43 2.08zM382.73 171.47c-.26 1.13.57 1.8 1.66 1.32 1.27-.43 2.27-1.4 2.43-2.08.1-.46-.55-1.08-1.67-1.33-.93-.2-2.12.72-2.42 2.09zM347.12 120.36c-.25 1.13.58 1.8 1.67 1.32 1.27-.43 2.27-1.4 2.42-2.08.1-.46-.54-1.08-1.66-1.33-.93-.2-2.12.72-2.43 2.09zM397.79 104.26c-.26 1.14.57 1.8 1.66 1.33 1.27-.44 2.27-1.4 2.43-2.09.1-.45-.55-1.08-1.67-1.33-.93-.2-2.12.72-2.42 2.09zM426.82 114.69c-.26 1.13.57 1.8 1.66 1.32 1.27-.43 2.27-1.4 2.43-2.08.1-.46-.54-1.08-1.67-1.33-.93-.2-2.12.72-2.42 2.09zM465.05 87.45c-.88.77-.6 1.8.56 2.06 1.28.4 2.66.21 3.19-.25.35-.3.2-1.19-.56-2.05-.63-.72-2.13-.68-3.19.24zM482.3 113.03c-.88.77-.6 1.8.55 2.06 1.28.4 2.66.21 3.2-.25.34-.3.2-1.19-.56-2.05-.63-.72-2.14-.68-3.2.24zM494.38 198.17c-.42 1.86 1.28 3.03 3.4 2.33 2.49-.62 4.4-2.15 4.65-3.27.17-.75-1.16-1.83-3.4-2.33-1.86-.42-4.15 1.03-4.65 3.27zM505.32 114.35c-.42 1.87 1.28 3.03 3.4 2.33 2.49-.62 4.4-2.15 4.65-3.27.17-.74-1.16-1.83-3.4-2.33-1.87-.42-4.15 1.03-4.65 3.27zM613.6 138.61c-.43 1.87 1.27 3.04 3.4 2.33 2.48-.61 4.4-2.15 4.65-3.27.16-.74-1.16-1.82-3.4-2.33-1.87-.41-4.15 1.03-4.66 3.27zM463.54 346.3c-6.4.52-13.5 2.46-15.94 4.65-3.08 3.24-4.58 2.9-6.19-2.16-3.26-8.19-9.2-4.42-7.4 5 1.04 4.15.87 8.43.53 9.92-.79 1.79 1.95 3.58 6.05 4.5 4.86 1.08 8.06-.94 9.14-5.8 1.1-4.85 4.29-6.88 8.77-5.88 8.21 1.85 12.1 8.99 6.2 10.8-2.2 1.08-4.18-.54-4.34-3.32-.37-3.61-1.5-3.87-4.49-1-5.6 5.8 10.31 15.24 18.74 10.86 3.5-1.57 10.22-3.6 14.75-4.54 4.44-.57 6.35-2.1 4.36-3.73-2.45-1.33-2.65-5.69-.69-9.17 2.75-5.27 1.67-7.47-4.3-8.8-4.1-.93-8.34.48-8.85 2.72-.75 3.36-1.95 3.48-3.15.07-.9-2.94-6.05-4.49-13.19-4.13zM517.63 363.9c-2.25 3.03-6.03 4.14-8.39 2.44-2.74-1.8-5.14-1.55-5.56.32-.5 2.24.66 4.06 2.52 4.48 1.87.42 3.52 3.54 3.6 6.7-.09 3.9 2.94 2.61 8.72-3.94 5.16-5.5 7.53-10.86 5.55-12.48-1.54-1.91-4.57-.63-6.44 2.48zM155.88 304.63c-3.78 2.72-5.3 5.95-3.41 8.15 1.13 2.04 5.55.06 8.96-4.53 7.45-8.43 3.3-11.15-5.55-3.62zM120.32 292.48c-24.12 7.77-25.52 9.25-18.81 22.13 8.22 15.6 27.25 11.5 27.4-5.84-.35-12.65 8.02-14.36 8.51-2.28.37 5.47 3.3 4.33 8.5-2.29 7.25-8.55 6.62-10.49-3.02-12.65-6.09-1.36-16.36-.67-22.58.93zM439.9 388.83c8.82 7.86 12.26 8.24 9.5 1.35-.62-2.5-5.06-5.45-9.54-6.45-7.84-1.76-7.92-1.39.03 5.1zM439.4 486.4c16.26 16.08 24.91 12.2 20.1 7.45-6.43-6.34-11.07-16.2-19.48-18.09-14.7-3.3-15.3-2.6-.62 10.64zM316.6 469.42c-4.18 6.88-1.42 8.9-.18 6.86 1.64-2.72 4.96-5.39 4.54-8.1-.73-4.73-1.1-4.82-4.36 1.24zM388.16 482.71c9.32 16.8 16.15 20.24 13.38 15.27-3.69-6.63-5.56-13.76-11.35-19.6-10.12-10.22-10.65-10.27-2.03 4.33zM135.65 325.22c-4.41 3.71-5.57 6.6-2.65 7.25 2.44.54 6.63-2.18 9.47-5.72 2.36-3.66 3.63-7.03 2.65-7.25-.97-.22-5.16 2.5-9.47 5.72zM163.82 343.44c2.73 5.32 2.48 6.44-1.26 5.6-3.73-.84-3.98.28-1.25 5.6 5.75 11.1 13.05 9.99 15.07-2.5 1.26-9.13-.1-11.79-7.2-13.38-7.47-1.67-8-1-5.36 4.68zM450.86 404.62c-5.48 3.48-4.45 7.63 1.57 7.02 3.32-.83 6.44-2.48 6.85-4.35.92-4.1-4.22-5.65-8.42-2.67zM117 342.36c-2.59 11.58 13.46 18.7 25.06 10.71 8.3-5.58 8.39-5.96.55-7.71-4.48-1-11.7-3.8-15.85-6.3-6.59-3.83-8.25-3.42-9.75 3.3zM156.8 374.8c-.51 2.25.77 5.28 2.39 6.81 1.9 2 1.73 6.27-.23 9.76-1.96 3.48-2.5 7.67-.89 9.21 4.56 4.16 13.91-4.33 13.01-10.81-1.1-7.3-13.2-19.82-14.29-14.96zM187.44 399.5c-.99 0-2.14-.82-2.64-1.64-.67-1-2.47-1.3-4.1-.8-1.64.52-3.44.37-3.94-.45-1.33-2.31 3.06-5.5 5.7-4.54 2.95 1.14 7.1 7.4 4.98 7.42zM245.32 454.48c.98-.04 2.16.74 2.69 1.54.7.97 2.5 1.23 4.12.66 1.62-.56 3.43-.47 3.95.34 1.41 2.27-2.88 5.6-5.54 4.71-3-1.04-7.35-7.17-5.22-7.25zM404.36 442.43a4.11 4.11 0 002.9 4.57 3.84 3.84 0 004.56-2.9c.5-2.24-.65-4.06-2.9-4.57a3.83 3.83 0 00-4.56 2.9zM94.85 388.76c-.42 1.87 1.03 4.16 3.27 4.66 1.86.42 3.03-1.28 2.33-3.4-.62-2.5-2.15-4.4-3.27-4.65-.75-.17-1.83 1.15-2.33 3.4zM114.74 422.48c-.42 1.87 1.03 4.15 3.27 4.66 1.87.42 3.03-1.28 2.33-3.4-.62-2.5-2.15-4.4-3.27-4.66-.75-.16-1.83 1.16-2.33 3.4zM71.93 456.02c-.42 1.87 1.03 4.16 3.27 4.66 1.87.42 3.04-1.28 2.33-3.4-.61-2.5-2.15-4.4-3.27-4.65-.74-.17-1.83 1.15-2.33 3.4zM105.63 410.64c-.21.93.72 2.12 2.08 2.43 1.14.25 1.8-.58 1.33-1.67-.43-1.27-1.4-2.27-2.08-2.42-.46-.1-1.08.54-1.33 1.66zM145.09 392.03c-.21.94.72 2.12 2.08 2.43 1.14.25 1.8-.58 1.33-1.66-.43-1.28-1.4-2.28-2.08-2.43-.46-.1-1.08.54-1.33 1.66zM137.56 425.63c-.21.94.72 2.13 2.08 2.43 1.14.26 1.8-.57 1.33-1.66-.43-1.27-1.4-2.27-2.08-2.43-.46-.1-1.08.54-1.33 1.66zM184.42 443.98c-.2.93.72 2.12 2.09 2.43 1.14.25 1.8-.58 1.33-1.67-.44-1.27-1.4-2.27-2.09-2.42-.45-.1-1.07.54-1.33 1.66zM196.52 407.48c-.2.93.72 2.12 2.09 2.43 1.14.25 1.8-.58 1.33-1.67-.44-1.27-1.4-2.27-2.09-2.43-.45-.1-1.08.55-1.33 1.67zM144.6 429.18c-.41 1.86 1.45 4.24 4.18 4.85 2.27.51 3.6-1.15 2.65-3.32-.86-2.55-2.8-4.55-4.17-4.86-.9-.2-2.15 1.08-2.65 3.32zM117.19 446.56c-.42 1.87 1.44 4.24 4.17 4.85 2.27.51 3.6-1.15 2.65-3.32-.86-2.55-2.8-4.55-4.17-4.86-.9-.2-2.15 1.09-2.65 3.33zM54.97 426.74c-.21.93.72 2.12 2.08 2.42 1.14.26 1.8-.57 1.33-1.66-.43-1.27-1.4-2.27-2.08-2.43-.46-.1-1.08.55-1.33 1.67zM128.48 396.15c-.2.94.72 2.13 2.09 2.43 1.13.26 1.8-.58 1.32-1.66-.43-1.28-1.4-2.28-2.08-2.43-.46-.1-1.08.54-1.33 1.66zM126.03 372.08c-.2.93.72 2.12 2.09 2.43 1.13.25 1.8-.58 1.33-1.67-.44-1.27-1.4-2.27-2.09-2.42-.45-.1-1.08.54-1.33 1.66zM112.77 361.26c-.2.94.72 2.13 2.09 2.43 1.13.26 1.8-.57 1.32-1.66-.43-1.27-1.4-2.28-2.08-2.43-.46-.1-1.08.54-1.33 1.66zM75.5 317.62c-.21.94.72 2.12 2.08 2.43 1.14.25 1.8-.58 1.33-1.66-.43-1.28-1.4-2.28-2.09-2.43-.45-.1-1.07.54-1.32 1.66zM95.78 349.61c-.21.94.72 2.13 2.08 2.43 1.14.26 1.8-.58 1.33-1.66-.43-1.27-1.4-2.28-2.09-2.43-.45-.1-1.07.54-1.32 1.66zM76.3 331.53c-.42 1.86 1.44 4.24 4.17 4.85 2.28.51 3.6-1.15 2.66-3.32-.87-2.55-2.8-4.55-4.17-4.86-.91-.2-2.16 1.09-2.66 3.33zM107.9 335.15c1.91.16 4-2 4.24-4.8.19-2.32-1.64-3.4-3.66-2.17-2.4 1.2-4.12 3.4-4.24 4.8-.07.93 1.38 1.98 3.67 2.17zM152.32 329.42c1.9.16 4-2.01 4.23-4.8.2-2.32-1.64-3.41-3.66-2.17-2.4 1.2-4.12 3.4-4.23 4.8-.08.93 1.37 1.98 3.66 2.17zM90.58 322.8c-.73 1.76.7 4.42 3.28 5.5 2.16.88 3.75-.53 3.19-2.83-.42-2.66-1.99-4.96-3.28-5.5-.86-.35-2.31.7-3.19 2.83zM193.75 332.35c-.2.94.72 2.13 2.09 2.43 1.13.26 1.8-.57 1.32-1.66-.43-1.27-1.4-2.28-2.08-2.43-.46-.1-1.08.54-1.33 1.66zM104.31 451.52c-.42 1.86 1.03 4.15 3.27 4.65 1.87.42 3.03-1.28 2.33-3.4-.62-2.5-2.15-4.4-3.27-4.65-.75-.17-1.83 1.16-2.33 3.4zM117.8 486.93c-1.87.44-3.3 2.74-2.77 4.98.44 1.86 2.48 2.16 4.08.6 1.97-1.63 3.02-3.85 2.76-4.96-.18-.75-1.84-1.14-4.08-.62zM149.34 411.56c-.18 7.8 12.09 16.04 20.1 13.53 7.27-2.69 5.24-5.89-8.69-13.71-9.5-4.88-11.44-4.92-11.41.18zM177.37 422.94c-.41 1.87 1.78 4.32 4.77 4.99 2.99.67 6.02-.61 6.44-2.48.5-2.24-1.78-4.32-4.77-4.99-2.99-.67-5.93.24-6.44 2.48zM76.92 411.02c-5.4 3.1-4.91 7.92 1.06 9.26a5.89 5.89 0 006.86-4.35c1.33-5.97-2.81-8.47-7.92-4.91zM124.85 438.62c.99 2.57 3.44 3.9 5.55 3.2 5.98-2.18 5.36-4.68-1.36-6.18-2.98-.67-4.9.86-4.2 2.98zM262.07 473.68c-4.99 4.76-.97 9.59 4.97 5.82 3.2-2.03 3.7-4.27 1.8-6.26-1.99-1.63-5.14-1.55-6.77.44zM359.1 497.38c-9.05 5.42-9.39 6.92-3.76 16.8 3.68 6.32 6.5 7.74 12.4 5.92 9.13-2.27 12.6-12.47 7.38-20.7-4.63-7.3-7.33-7.52-16.01-2.02zM150.37 455.95c-.63 2.8 1.55 6.23 4.35 6.86a5.75 5.75 0 006.85-4.35c.76-3.36-.98-6.1-4.34-6.85-2.8-.63-6.1.98-6.86 4.34zM123.37 471.47a4.11 4.11 0 002.9 4.57 3.84 3.84 0 004.57-2.9c.5-2.24-.66-4.06-2.9-4.57a3.83 3.83 0 00-4.57 2.9zM127.49 488.08a4.12 4.12 0 002.9 4.57 3.84 3.84 0 004.57-2.9c.5-2.24-.66-4.07-2.9-4.57a3.83 3.83 0 00-4.57 2.9zM132.45 500.95a4.11 4.11 0 002.9 4.57 3.83 3.83 0 004.56-2.9c.5-2.24-.65-4.06-2.9-4.56a3.83 3.83 0 00-4.56 2.9zM99.3 473.92a4.11 4.11 0 002.89 4.57 3.83 3.83 0 004.57-2.9c.5-2.24-.66-4.07-2.9-4.57a3.83 3.83 0 00-4.57 2.9zM87.64 490.91a4.12 4.12 0 002.9 4.57 3.83 3.83 0 004.57-2.9c.5-2.23-.66-4.06-2.9-4.56a3.83 3.83 0 00-4.57 2.9zM59.83 492.52a4.11 4.11 0 002.9 4.58 3.83 3.83 0 004.57-2.9c.5-2.24-.66-4.07-2.9-4.57a3.83 3.83 0 00-4.57 2.9zM98.13 426.6a4.11 4.11 0 002.9 4.57 3.83 3.83 0 004.57-2.9c.5-2.23-.66-4.06-2.9-4.56a3.83 3.83 0 00-4.57 2.9zM108.56 397.57a4.11 4.11 0 002.9 4.57 3.83 3.83 0 004.56-2.9c.5-2.24-.65-4.06-2.9-4.57a3.83 3.83 0 00-4.56 2.9zM184.12 377.4c-.45.96 2.58 3.53 6.05 5.14 4.17 1.93 7.39 2.26 7.83 1.3.53-1.15-1.89-3.2-6.06-5.13-3.47-1.61-7.3-2.46-7.82-1.3zM87.78 424.4c.3.7 3.17.32 5.74-.77 3.07-1.32 4.82-2.9 4.52-3.61-.36-.85-2.66-.54-5.73.78-2.57 1.1-4.9 2.75-4.53 3.6zM103.53 285.3c.37 1 4.33.63 7.9-.72 4.3-1.62 6.8-3.69 6.42-4.68-.45-1.18-3.6-.89-7.9.73-3.59 1.35-6.87 3.5-6.42 4.68zM81.88 464.13c-.63 2.8 1.54 6.23 4.34 6.86a5.75 5.75 0 006.86-4.35c.75-3.36-.99-6.1-4.35-6.85-2.8-.63-6.1.98-6.85 4.34zM241.65 468.56c-.62 2.8 1.55 6.23 4.35 6.86a5.75 5.75 0 006.85-4.35c.76-3.36-.98-6.1-4.34-6.85-2.8-.63-6.1.98-6.86 4.34zM220.96 438.44a4.11 4.11 0 002.9 4.57 3.83 3.83 0 004.56-2.9c.5-2.24-.65-4.06-2.9-4.57a3.83 3.83 0 00-4.56 2.9zM227.17 445.71c-.21.94.51 2.08 1.45 2.29a1.92 1.92 0 002.28-1.45c.25-1.12-.33-2.03-1.45-2.29-.93-.2-2.03.33-2.28 1.45zM233.35 470.63c-.21.93.52 2.07 1.45 2.28a1.92 1.92 0 002.28-1.45c.25-1.12-.33-2.03-1.45-2.28-.93-.21-2.03.33-2.28 1.45zM267.4 458.65c-.2.93.52 2.08 1.45 2.29a1.92 1.92 0 002.29-1.45c.25-1.12-.33-2.04-1.45-2.29-.94-.2-2.04.33-2.29 1.45zM238.8 483.61c-2.15 2.46-.74 5.72 3.85 6.75 4.6 1.02 7.26-1.32 6.36-4.46-.78-3.7-2.83-6.52-3.85-6.75-1.02-.22-4.07 1.45-6.35 4.46zM284.95 486.1c-.72.83-.25 1.91 1.28 2.26 1.53.34 2.42-.44 2.12-1.49-.26-1.23-.94-2.17-1.28-2.25-.34-.07-1.36.48-2.12 1.49zM311 501.44c1.49.96 3.13-.06 3.3-2.6.19-2.55-1.28-3.79-2.9-3.05-1.92.71-3.27 2.04-3.3 2.6-.05.57 1.1 2.07 2.9 3.05zM264.46 506.76c-.58 2.62 1.27 10.09 4.3 15.86 2.56 6.07 3.54 12.17 1.71 13.33-1.83 1.16.33 2.03 4.6 2.2 5.4.43 6.93 2.34 5.18 6.66-1.58 3.56-.76 6.88 1.48 7.39 4.86 1.08 7.95-12.73 4.44-19.8a411 411 0 01-8.23-17.52c-5.79-12.67-11.63-16.33-13.48-8.12zM213.43 500.03c-3.58 5.48-.32 17.18 5.28 18.44 4.85 1.09 9.9-12.68 6.71-17.71-4.34-6.86-7.79-7.24-12-.73zM235.12 506.46c-5.16 9.04-3.3 12.99 5.3 11.38 7.3-1.1 9.44-12.39 2.85-16.22-2.08-1.25-5.65.7-8.15 4.84zM251.92 510.23c-.41 1.86 1.04 4.15 3.28 4.65 1.86.42 3.03-1.28 2.32-3.4-.61-2.49-2.14-4.4-3.26-4.65-.75-.17-1.83 1.16-2.34 3.4zM41.02 480.22c-6.04 11.2-.61 20.26 9.1 15.38 7.52-3.8 9.53-12.77 2.81-14.28-2.99-.67-5.47-3.57-6-6.44-.25-2.4-3.08-.3-5.9 5.34zM8.25 495.23c-.42 1.87 1.28 3.03 3.4 2.33 2.5-.62 4.4-2.15 4.65-3.27.17-.75-1.16-1.83-3.4-2.33-1.86-.42-4.15 1.03-4.65 3.27zM194 541.16c-3.57 4.55-6.15 10.3-5.7 12.97 1.35 8.02 9.07-.02 10.76-11.12 1.29-8.73.45-9.04-5.05-1.85zM267.24 581.89c-.67 2.98.36 7.13 1.97 8.67 2 1.63 3.99-.28 4.91-4.39 1-4.48.26-8.17-1.98-8.67-1.86-.42-4.23 1.4-4.9 4.39z"/><path fill="#fff" d="M199.9 532.43c-.57 2.5.6 6.06 2.25 7.42 2.03 1.44 3.95-.1 4.72-3.55.84-3.76-.02-6.91-2.26-7.41-1.87-.42-4.15 1.04-4.72 3.54zM181.74 572.77c2.5.57 6.05-.6 7.4-2.26 1.45-2.02-.1-3.94-3.54-4.71-3.76-.84-6.9.02-7.41 2.26-.42 1.87 1.04 4.15 3.55 4.72z"/></svg>
