<svg xmlns="http://www.w3.org/2000/svg" fill="none" viewBox="0 0 16 14"><path fill="#fff" stroke="#fff" stroke-width=".3" d="M2.67 2.03v.02a.3.3 0 00.12.17H1.73l-.05.07-.1.14-.14.2.25.03 1.77.22.02.08h.12l.67.04-.13.2h.26l.96.06.03-.1h.02l.95.04h.1l.04-.08.04-.07a.87.87 0 01.23-.1 12.44 12.44 0 011.8-.16l-.02.02.06.28 2.95-.07h.1l.04-.1.03-.1.04-.12L15 2.46h.09l.03-.07a.25.25 0 00.04-.12.24.24 0 00-.1-.2.5.5 0 00-.16-.08 1 1 0 00-.06-.01v-.03l.06-.1.11-.24-.24.02.05-.1.1-.22h-.25l-3.34.14-.02-.18-1.43-.06h0L7 1.18l-.16-.1L6.68 1l-.03.1-.04-.02-.04-.02h-.04l-1.45.04-.66-.13h-.04l-.92.08-.14.01v.06c-.67 0-1.2.04-1.57.1-.2.02-.37.05-.5.1a.86.86 0 00-.17.07.37.37 0 00-.13.12h0l-.08.14-.12.2.24.02 1.68.17zm7.02.6h0-.16v-.01h.16zM13.33 7.03v.02a.3.3 0 01-.12.17h1.06l.05.07.1.14.14.2-.25.03-1.77.22-.02.08h-.12l-.67.04.13.2h-.26l-.96.06-.03-.1h-.02l-.95.04h-.1l-.04-.08-.04-.07a.87.87 0 00-.23-.1 12.44 12.44 0 00-1.8-.16l.02.02-.06.28-2.95-.07h-.1l-.04-.1-.03-.1-.04-.12L1 7.46H.92L.9 7.39a.25.25 0 01-.04-.12c0-.09.04-.15.1-.2A.5.5 0 011.1 7a1 1 0 01.06-.01v-.03l-.06-.1L1 6.61l.24.02-.05-.1-.1-.22h.25l3.34.14.02-.18 1.43-.06h0L9 6.18l.16-.1.16-.09.03.1.04-.02.04-.02h.04l1.45.04.66-.13h.04l.92.08.14.01v.06c.67 0 1.2.04 1.57.1.2.02.37.05.5.1.06.01.12.04.17.07.05.03.1.06.13.12h0l.08.14.12.2-.24.02-1.68.17zm-7.02.6h.16v-.01h-.16zM2.67 12.03v.02a.3.3 0 00.12.17H1.73l-.05.07-.1.14-.14.2.25.03 1.77.22.02.08h.12l.67.04-.13.2h.26l.96.06.03-.1h.02l.95.04h.1l.04-.08.04-.07a.87.87 0 01.23-.1 12.47 12.47 0 011.8-.16l-.02.02.06.28 2.95-.07h.1l.04-.1.03-.1.04-.12 3.22-.24h.09l.03-.07a.25.25 0 00.04-.12.24.24 0 00-.1-.2.49.49 0 00-.16-.08.92.92 0 00-.06-.01v-.03l.06-.1.11-.24-.24.02.05-.1.1-.22h-.25l-3.34.14-.02-.18-1.43-.06h0L7 11.18l-.16-.1-.16-.09-.03.1-.04-.02-.04-.02h-.04l-1.45.04-.66-.13h-.04l-.92.08-.14.01v.06c-.67 0-1.2.04-1.57.1-.2.02-.37.05-.5.1a.86.86 0 00-.17.07.37.37 0 00-.13.12h0l-.08.13-.12.2.24.03 1.68.17zm7.02.6h0-.16v-.01h.16z"/></svg>
