<svg xmlns="http://www.w3.org/2000/svg" fill="none" viewBox="0 0 136 143"><path fill="#FE4C4C" d="M19.02 87.74c.7-.93-.93-2.27 0-2.99.97-.75 1.77.87 3 1 .58.06.97-.25 1.5 0 .63.3.33 1.26 1 1.5.92.32 1.03-1.64 2-1.5.82.12 1.66.68 1.5 1.5-.14.68-1 .5-1.5.99-.83.78-.37 2.35-1.5 2.5-.62.07-.89-.46-1.5-.5-.8-.07-1.25.79-2 .5-.52-.21-.45-.98-1-1-.7-.04-.33 1.3-1 1.49-.6.17-1.25.06-1.5-.5-.29-.64 1.19-.82 1-1.5-.22-.77-1.83.3-2-.5-.2-.84 1.47-.3 2-.99zM33.6 101.92c1.09-.42.41-2.41 1.58-2.54 1.22-.13 1.04 1.67 2.02 2.43.46.35.96.3 1.27.78.39.6-.38 1.25.06 1.8.62.76 1.75-.85 2.5-.22.63.53 1.04 1.45.48 2.06-.48.5-1.11-.09-1.8.05-1.12.23-1.56 1.81-2.6 1.33-.56-.25-.5-.84-1-1.2-.66-.48-1.49.01-1.97-.63-.33-.44.13-1.06-.32-1.37-.58-.4-.97.93-1.64.74-.6-.17-1.1-.6-1.01-1.21.1-.7 1.44-.07 1.64-.75.22-.77-1.7-.71-1.44-1.47.29-.82 1.41.52 2.23.2zM27.97 79.96c1.16-.17.96-2.26 2.12-2.12 1.23.16.64 1.87 1.41 2.82.37.45.87.5 1.07 1.06.23.66-.66 1.13-.36 1.76.42.88 1.9-.43 2.48.35.5.66.69 1.66 0 2.12-.59.39-1.07-.34-1.77-.36-1.14-.03-1.93 1.4-2.83.7-.49-.37-.3-.93-.7-1.4-.53-.61-1.45-.32-1.77-1.06-.22-.5.37-1 0-1.4-.48-.53-1.16.68-1.77.35-.54-.3-.93-.84-.7-1.41.24-.66 1.41.26 1.76-.36.4-.7-1.5-1.08-1.06-1.76.47-.73 1.25.83 2.12.7zM106.04 66.85c-.7.94.94 2.27.02 3-.97.76-1.77-.86-3-.98-.59-.06-.97.25-1.5 0-.64-.29-.35-1.25-1.01-1.48-.93-.32-1.02 1.64-2 1.5-.81-.1-1.66-.67-1.5-1.48.13-.69.98-.52 1.5-1 .81-.79.34-2.36 1.47-2.5.62-.08.9.44 1.5.48.81.06 1.25-.8 2-.5.52.19.46.96 1.01.98.7.03.31-1.3 1-1.5.58-.17 1.24-.07 1.5.49.28.64-1.2.83-1 1.5.23.77 1.83-.3 2 .48.2.85-1.47.31-1.99 1.01zM20.02 81.26c.6-1.43 0-3.98 0-3.98s.77 2.24 2 2.49c1.8.37 1.52-2.43 2.5-3.99 0 0 1.17-1.14 1-1.99-.25-1.2-2.76-2.2-3-1-.12.6.58.89.5 1.5-.07.43-.13.77-.5 1-.53.31-.9-.41-1.5-.5-1.9-.29-2.84 1.02-4.5 1.99-2.16 1.26-7.13 2.67-5 3.99.52.32.9.66 1.5.5.53-.15.49-.8 1-1 1.05-.43 2.83.4 2.5 1.5-.16.52-.98.44-1 .99-.04.7.8.92 1.5 1 .61.06.97-.18 1.5-.5.83-.51 1.12-1.1 1.5-2zM93.5 10.1c-1 1.5.3 2.5 1.6 1.2.7-.7.7-1.3.1-1.7-.6-.3-1.4-.1-1.7.5zM114.8 15.39c-2.1 1.59-3 6.17-1.5 7.37 2.3 1.7 5.7 2.1 5.7.6 0-.8.7-1.7 1.5-2 1.6-.6 1.9-3.08.9-5.78-.7-1.89-4.2-1.99-6.6-.2zM105 19.57c-.6 1.4-1 2.6-1 2.7 0 .1 1.3.29 2.9.39 2.3.2 3.2-.3 3.7-1.9.4-1.29.1-2.39-.7-2.88-2.4-1.5-3.9-1-4.9 1.7zM82.4 20.37c-1.9 1.5-1.9 1.5.1 2.99 3.5 2.69 6.8 1.4 5.8-2.2-.6-2.49-3-2.79-5.9-.8zM129 21.17c0 .6-1 2.19-2.2 3.48-1.6 1.7-1.9 2.6-1.1 3.4.9.89 1.8.39 3.7-1.6 2.9-3.1 3.4-6.48 1.1-6.48-.8 0-1.5.5-1.5 1.2zM98.5 23.86c-.6 1.1.9 2.29 1.9 1.4.9-.9.7-2.3-.3-2.3-.6 0-1.2.4-1.6.9zM130.14 7.38c-.6 1.1.9 2.29 1.9 1.4.9-.9.7-2.3-.3-2.3-.6 0-1.2.4-1.6.9zM63.2 26.25c-2.1 2.19-2.3 2.99-1.5 6.57.9 4.59 2.6 5.58 3.1 1.9.2-1.3 1-3 1.8-3.89.8-.9 1-1.9.5-2.49-.5-.5-1.1-1.7-1.3-2.7-.3-1.68-.5-1.59-2.6.6zM74.6 25.55c-.7 1.9.2 3.69 1.5 2.89 1.2-.8 1.2-4.48 0-4.48-.5 0-1.2.7-1.5 1.59zM95 25.95c0 .5.5 1 1 1 .6 0 1-.5 1-1 0-.6-.4-1-1-1a1 1 0 00-1 1zM93 28.94c0 .5.5 1 1 1 .6 0 1-.5 1-1 0-.6-.4-1-1-1a1 1 0 00-1 1zM115.6 29.64c-1.1 1.1-.6 2.29.9 2.29.8 0 1.5-.4 1.5-.9 0-1.3-1.6-2.2-2.4-1.4zM112.4 34.12a23 23 0 01.6 3.49c0 1.8 2.1 1.5 4.8-.6 2.5-2.1 2.9-3.59.8-2.8-.7.3-2.6-.09-4.1-.89-2.6-1.3-2.7-1.3-2.1.8zM122.5 33.02c-.4.6-.5 1.3-.2 1.6.7.7 2.7-.6 2.7-1.8 0-1.2-1.7-1.2-2.5.2zM56 37.9c0 .5.5 1 1 1 .6 0 1-.5 1-1 0-.6-.4-.99-1-.99a1 1 0 00-1 1zM24 44.35c0 .5.5 1 1 1 .6 0 1-.5 1-1 0-.6-.4-1-1-1a1 1 0 00-1 1zM29 52.32c0 .5.5 1 1 1 .6 0 1-.5 1-1 0-.6-.4-1-1-1a1 1 0 00-1 1zM19 52.32c0 .5.5 1 1 1 .6 0 1-.5 1-1 0-.6-.4-1-1-1a1 1 0 00-1 1z"/><path fill="#FE4C4C" d="M18 72.75c0 .74.5 1.49 1 1.49.6 0 1-.75 1-1.5 0-.9-.4-1.49-1-1.49-.5 0-1 .6-1 1.5zM53 23.92c0 .74.75 1.5 1.5 1.5.9 0 1.5-.76 1.5-1.5 0-.9-.6-1.5-1.5-1.5-.75 0-1.5.6-1.5 1.5zM76.3 38.4c-.3.9-.3 1.8-.1 2.1.9.9 3.8-.8 3.8-2.2 0-1.89-2.9-1.79-3.7.1zM105.5 38.9c.3.5.8 1 1.1 1 .2 0 .4-.5.4-1 0-.6-.5-1-1.1-1-.5 0-.7.4-.4 1zM90.5 42.99c-1 1.5.1 2.29 2 1.5.9-.3 1.3-1 1-1.6-.8-1.3-2.2-1.3-3 .1zM107.6 42.59c-.4.4-1.7.8-2.9.8s-2.3.7-2.5 1.7c-.3 1.39.5 1.59 4.5 1.49 4.1-.2 4.8-.5 4.8-2.2 0-1.99-2.5-3.19-3.9-1.79zM54.7 43.59c-1.4 1.3-.6 3.28 1.3 3.28 1.3 0 2-.7 2-1.99 0-1.9-2-2.69-3.3-1.3zM113 46.48c-1.3 3.28-1.3 3.38.3 3.38 1.9 0 5-3.68 4.2-4.88-1.1-1.9-3.5-1.2-4.5 1.5zM104 49.86c0 .5.7 1 1.5 1s1.5-.5 1.5-1c0-.6-.7-1-1.5-1s-1.5.4-1.5 1zM108.4 51.36c-1.8 1.4-1.8 1.4.9 1.5 1.5 0 2.7-.4 2.7-.9 0-1.8-1.7-2-3.6-.6zM50.5 51.86c-.3.5-.1 1 .4 1 .6 0 1.1-.5 1.1-1 0-.6-.2-1-.4-1-.3 0-.8.4-1.1 1zM94.2 53.55c.2 2.3.8 2.8 3.2 2.8 1.6.1 3.1.59 3.4 1.29.9 2.69 6.2.5 6.2-2.6 0-1-.9-1.29-2.9-1-2 .3-3.2-.09-4-1.39-.6-1-2.3-1.79-3.7-1.79-2.2 0-2.5.4-2.2 2.7zM46.2 53.55c.2.9.9 1.8 1.6 2.1 1.8.6 1.5-2.5-.4-3.2-1.1-.4-1.4-.1-1.2 1.1zM37 54.75c0 .5.5 1.3 1 1.6.6.29 1 .2 1-.4 0-.5-.4-1.3-1-1.6-.5-.3-1-.2-1 .4zM111 61.92c0 .5.5.7 1 .4.6-.3 1-.8 1-1.1 0-.2-.4-.4-1-.4-.5 0-1 .5-1 1.1zM124 56.4c0 .5.5.7 1 .4.6-.3 1-.8 1-1.1 0-.2-.4-.4-1-.4-.5 0-1 .5-1 1.1zM120 64.38c0 .5.5.7 1 .4.6-.3 1-.8 1-1.1 0-.2-.4-.4-1-.4-.5 0-1 .5-1 1.1zM96 35.48c0 .5.5.7 1 .4.6-.3 1-.8 1-1.1 0-.2-.4-.4-1-.4-.5 0-1 .5-1 1.1zM83 1.6c0 .5.5.7 1 .4.6-.3 1-.8 1-1.1 0-.2-.4-.4-1-.4-.5 0-1 .5-1 1.1zM72 32.06c0 .3.25.42.5.24.3-.18.5-.48.5-.67 0-.12-.2-.24-.5-.24-.25 0-.5.3-.5.67zM77 29.07c0 .3.25.42.5.24.3-.18.5-.48.5-.67 0-.12-.2-.24-.5-.24-.25 0-.5.3-.5.67zM65 18.1c0 .31.25.43.5.25.3-.18.5-.48.5-.67 0-.12-.2-.24-.5-.24-.25 0-.5.3-.5.67zM77 11.13c0 .3.25.43.5.25.3-.19.5-.49.5-.67 0-.12-.2-.25-.5-.25-.25 0-.5.3-.5.67zM85 12.13c0 .3.25.42.5.24.3-.18.5-.48.5-.67 0-.12-.2-.24-.5-.24-.25 0-.5.3-.5.67zM93.2 3.03c-.19.25-.06.5.25.5.35.02.7-.1.8-.25.08-.1-.01-.32-.26-.5-.2-.14-.58-.04-.8.25zM99.05 8.55c-.18.25-.05.49.26.5.35.02.7-.1.8-.25.08-.1-.02-.32-.26-.5-.2-.14-.58-.04-.8.25zM107 29.5c0 .5.5.7 1 .4.6-.3 1-.8 1-1.1 0-.2-.4-.4-1-.4-.5 0-1 .5-1 1.1zM105 7.58c0 .5.5.7 1 .4.6-.3 1-.8 1-1.1 0-.2-.4-.4-1-.4-.5 0-1 .5-1 1.1zM134 7.58c0 .5.5.7 1 .4.6-.3 1-.8 1-1.1 0-.2-.4-.4-1-.4-.5 0-1 .5-1 1.1zM107.6 68.9c-1.6.5-3.3 1.4-3.8 2.09-.6 1-1 1-1.7-.2-1.3-1.9-2.6-.6-1.6 1.7.5 1 .7 2.09.7 2.49-.1.5.7.8 1.8.8 1.3 0 2-.7 2-2s.7-2 1.9-2c2.2 0 3.6 1.6 2.2 2.4-.5.4-1.1.1-1.3-.6-.3-.9-.6-.9-1.2 0-1.1 1.8 3.5 3.29 5.4 1.7.8-.6 2.4-1.5 3.5-2 1.1-.4 1.5-.9.9-1.2-.7-.2-1-1.29-.7-2.29.4-1.5 0-1.99-1.6-1.99-1.1 0-2.1.6-2.1 1.2 0 .9-.3 1-.8.2-.4-.7-1.8-.8-3.6-.3zM122.4 70.3c-.4.89-1.3 1.39-2 1.09-.8-.3-1.4-.1-1.4.4 0 .6.4 1 .9 1s1.1.7 1.3 1.49c.2 1 .9.5 2-1.5 1-1.7 1.3-3.19.7-3.48-.5-.4-1.2.1-1.5 1zM26.76 75.83c-.81.9-1.01 1.81-.4 2.26.4.46 1.41-.3 2.02-1.66 1.42-2.57.2-3.02-1.62-.6z"/><path fill="#FE4C4C" d="M17 74.77c-5.71 3.34-5.98 3.8-3.54 6.69 3 3.5 7.61 1.37 6.66-3.04-.82-3.2 1.22-4.11 2.04-1.07.4 1.37 1.08.91 2.03-1.06 1.36-2.59 1.1-3.05-1.49-3.05-1.63 0-4.21.76-5.7 1.53zM104 81.05c2.7 1.5 3.6 1.4 2.5-.2-.3-.6-1.6-1.1-2.8-1.1-2.1 0-2.1.1.3 1.3zM109.45 105.88c5.07 3.16 7.05 1.68 5.55.75-2-1.25-3.75-3.5-6-3.5-3.94 0-4.05.22.45 2.75zM77.16 108.55c-.67 2 .15 2.35.35 1.76.26-.79.96-1.65.7-2.32-.46-1.16-.56-1.16-1.05.56zM96.17 107.86c3.34 3.74 5.28 4.22 4.29 3.12-1.32-1.48-2.2-3.18-4.02-4.34-3.16-2.02-3.3-2-.27 1.22zM22.78 82.21c-.92 1.2-1.05 2-.27 2 .66 0 1.57-.93 2.1-2 .38-1.06.52-2 .25-2-.26 0-1.17.94-2.08 2zM31 85.24c1 1.2 1 1.5 0 1.5s-1 .3 0 1.49c2.1 2.49 3.9 1.8 3.7-1.5-.2-2.39-.7-2.99-2.6-2.99-2 0-2.1.2-1.1 1.5zM107.7 84.44c-1.2 1.2-.7 2.2.8 1.7.8-.4 1.5-1 1.5-1.5 0-1.1-1.4-1.2-2.3-.2zM19 87.63c0 3.09 4.5 3.99 7 1.3 1.8-1.9 1.8-2-.3-2-1.2 0-3.2-.3-4.4-.7-1.9-.6-2.3-.4-2.3 1.4zM31 93.61c0 .6.5 1.3 1 1.6.6.4.8 1.49.5 2.49-.3 1-.2 2.09.3 2.39 1.4.8 3.3-1.9 2.7-3.5-.7-1.78-4.5-4.28-4.5-2.98zM40.23 98.14c-.25.06-.6-.09-.77-.27-.23-.21-.7-.19-1.1.04-.38.22-.85.28-1.02.1-.47-.5.46-1.57 1.2-1.47.81.12 2.23 1.47 1.69 1.6zM58.13 108.82c.25-.07.6.06.77.24.24.2.71.16 1.1-.07.37-.24.84-.32 1.02-.14.49.5-.42 1.59-1.14 1.51-.83-.1-2.29-1.4-1.75-1.54zM98 96.7c0 .5.5 1 1 1 .6 0 1-.5 1-1 0-.6-.4-1-1-1a1 1 0 00-1 1zM16 100.69c0 .5.5 1 1.1 1 .5 0 .7-.5.4-1-.3-.6-.8-1-1.1-1-.2 0-.4.4-.4 1zM23 108.12c0 .5.5 1 1.1 1 .5 0 .7-.5.4-1-.3-.6-.8-1-1.1-1-.2 0-.4.4-.4 1zM14 119.08c0 .5.5 1 1.1 1 .5 0 .7-.5.4-1-.3-.6-.8-1-1.1-1-.2 0-.4.4-.4 1zM20 105.63c0 .25.3.5.67.5.3 0 .43-.25.24-.5-.18-.3-.48-.5-.67-.5-.12 0-.24.2-.24.5zM29 98.65c0 .25.3.5.67.5.3 0 .43-.25.24-.5-.18-.3-.48-.5-.67-.5-.12 0-.24.2-.24.5zM29 107.62c0 .25.3.5.67.5.3 0 .43-.25.24-.5-.18-.3-.48-.5-.67-.5-.12 0-.24.2-.24.5zM42 109.62c0 .24.3.5.67.5.3 0 .43-.26.24-.5-.18-.3-.48-.5-.67-.5-.12 0-.24.2-.24.5zM43 99.65c0 .25.3.5.67.5.3 0 .43-.25.24-.5-.18-.3-.48-.5-.67-.5-.12 0-.24.2-.24.5zM31 108.12c0 .5.6 1 1.34 1 .61 0 .85-.5.49-1-.37-.6-.98-1-1.34-1-.25 0-.49.4-.49 1zM25 114.1c0 .5.6 1 1.34 1 .61 0 .85-.5.49-1-.37-.6-.98-1-1.34-1-.25 0-.49.4-.49 1zM8 112.6c0 .25.3.5.67.5.3 0 .43-.25.24-.5-.18-.3-.48-.5-.67-.5-.12 0-.24.2-.24.5zM25 100.65c0 .25.3.5.67.5.3 0 .43-.25.24-.5-.18-.3-.48-.5-.67-.5-.12 0-.24.2-.24.5zM23 94.67c0 .25.3.5.67.5.3 0 .43-.25.24-.5-.18-.3-.48-.5-.67-.5-.12 0-.24.2-.24.5zM19 92.68c0 .24.3.5.67.5.3 0 .43-.26.24-.5-.18-.3-.48-.5-.67-.5-.12 0-.24.2-.24.5zM7 83.7c0 .26.3.5.67.5.3 0 .43-.24.24-.5-.18-.3-.48-.5-.67-.5-.12 0-.24.2-.24.5zM14 90.68c0 .25.3.5.67.5.3 0 .43-.25.24-.5-.18-.3-.48-.5-.67-.5-.12 0-.24.2-.24.5zM8 87.2c0 .5.6 1 1.34 1 .61 0 .85-.5.49-1-.37-.6-.98-1-1.34-1-.25 0-.49.4-.49 1zM16.27 86.32c.5-.07.9-.74.8-1.46-.08-.6-.61-.78-1.06-.35-.54.45-.85 1.1-.8 1.46.03.24.46.43 1.06.35zM27.27 82.33c.5-.07.9-.74.8-1.46-.08-.6-.61-.77-1.06-.34-.54.44-.85 1.1-.8 1.46.03.24.46.42 1.06.34zM11.14 84.16c-.08.5.43 1.09 1.15 1.21.6.1.93-.34.65-.9-.25-.65-.79-1.14-1.15-1.2-.24-.05-.54.3-.65.9zM38 80.72c0 .25.3.5.67.5.3 0 .43-.25.24-.5-.18-.3-.48-.5-.67-.5-.12 0-.24.2-.24.5zM22 116.1c0 .5.5.99 1.1.99.5 0 .7-.5.4-1-.3-.6-.8-1-1.1-1-.2 0-.4.4-.4 1zM27.46 124.33c-.45.21-.68.88-.42 1.42.22.44.76.4 1.08-.08.4-.53.55-1.15.42-1.42-.09-.18-.54-.19-1.08.08zM31.2 103.38c.4 1.99 4 3.38 5.9 2.29 1.7-1.1 1-1.8-3-3-2.7-.69-3.2-.59-2.9.7zM39 104.67c0 .5.7 1 1.5 1s1.5-.5 1.5-1c0-.6-.7-1-1.5-1s-1.5.4-1.5 1zM12.7 107.36c-1.2 1.1-.8 2.3.8 2.3.8 0 1.5-.7 1.5-1.5 0-1.6-1.2-2-2.3-.8zM26.5 111.65c.4.6 1.1.8 1.6.5 1.4-.9 1.1-1.5-.7-1.5-.8 0-1.2.5-.9 1zM63.5 112.74c-1 1.5.3 2.5 1.6 1.2.7-.7.7-1.3.1-1.7-.6-.3-1.4-.1-1.7.5zM89.6 113.24c-2 1.9-2 2.3 0 4.48 1.3 1.4 2.1 1.6 3.5.8 2.2-1.1 2.5-3.88.7-5.68-1.6-1.6-2.3-1.5-4.2.4zM34 114.6c0 .75.75 1.5 1.5 1.5.9 0 1.5-.75 1.5-1.5 0-.9-.6-1.5-1.5-1.5-.75 0-1.5.6-1.5 1.5zM28 120.08c0 .5.5 1 1 1 .6 0 1-.5 1-1 0-.6-.4-1-1-1a1 1 0 00-1 1zM30 124.06c0 .5.5 1 1 1 .6 0 1-.5 1-1 0-.6-.4-1-1-1a1 1 0 00-1 1zM32 127.05c0 .5.5 1 1 1 .6 0 1-.5 1-1 0-.6-.4-1-1-1a1 1 0 00-1 1zM22 122.07c0 .5.5 1 1 1 .6 0 1-.5 1-1 0-.6-.4-1-1-1a1 1 0 00-1 1zM20 127.05c0 .5.5 1 1 1 .6 0 1-.5 1-1 0-.6-.4-1-1-1a1 1 0 00-1 1zM13 129.05c0 .5.5 1 1 1 .6 0 1-.5 1-1 0-.6-.4-1-1-1a1 1 0 00-1 1zM19 110.11c0 .5.5 1 1 1 .6 0 1-.5 1-1 0-.6-.4-1-1-1a1 1 0 00-1 1zM20 102.14c0 .5.5 1 1 1 .6 0 1-.5 1-1 0-.6-.4-1-1-1a1 1 0 00-1 1zM38.12 92.71c-.06.27.86.75 1.83.96 1.18.26 2.02.16 2.08-.11.07-.32-.67-.7-1.84-.96-.98-.21-2-.2-2.07.11zM16.23 110.14c.12.17.83-.1 1.42-.52.71-.5 1.07-1.01.95-1.17-.14-.2-.7.01-1.42.52-.59.42-1.09.98-.95 1.17zM12.3 73.9c.15.23 1.14-.09 1.98-.64 1-.65 1.52-1.32 1.37-1.55-.19-.28-.98-.02-1.98.64-.83.54-1.55 1.27-1.37 1.55zM17 120.58c0 .75.75 1.5 1.5 1.5.9 0 1.5-.75 1.5-1.5 0-.9-.6-1.5-1.5-1.5-.75 0-1.5.6-1.5 1.5zM58 112.6c0 .75.75 1.5 1.5 1.5.9 0 1.5-.75 1.5-1.5 0-.9-.6-1.49-1.5-1.49-.75 0-1.5.6-1.5 1.5zM51 106.13c0 .5.5 1 1 1 .6 0 1-.5 1-1 0-.6-.4-1-1-1a1 1 0 00-1 1zM53 107.62c0 .25.25.5.5.5.3 0 .5-.25.5-.5 0-.3-.2-.5-.5-.5a.5.5 0 00-.5.5zM56 113.6c0 .25.25.5.5.5.3 0 .5-.25.5-.5 0-.3-.2-.5-.5-.5a.5.5 0 00-.5.5zM64 108.62c0 .25.25.5.5.5.3 0 .5-.25.5-.5 0-.3-.2-.5-.5-.5a.5.5 0 00-.5.5zM58.13 116.6c-.4.74.14 1.49 1.37 1.49s1.78-.75 1.37-1.5c-.41-.9-1.1-1.5-1.37-1.5s-.96.6-1.37 1.5zM70.04 114.6c-.13.25.05.5.46.5.41 0 .6-.25.46-.5-.14-.3-.37-.5-.46-.5-.1 0-.32.2-.46.5zM77.56 117.01c.44.16.8-.2.7-.85-.1-.66-.55-.89-.92-.6-.45.28-.71.7-.7.84.03.15.4.46.92.61zM66 121.01c0 .7.9 2.5 2 3.79 1 1.4 1.6 2.89 1.2 3.29-.4.4.2.5 1.3.3 1.4-.2 1.9.2 1.7 1.4-.2.99.2 1.79.8 1.79 1.3 0 1.3-3.7 0-5.29-.6-.7-1.9-2.39-3.1-3.98-2.2-2.9-3.9-3.49-3.9-1.3zM52.6 122.2c-.6 1.6.9 4.4 2.4 4.4 1.3 0 1.8-3.8.7-4.89-1.5-1.5-2.4-1.4-3.1.5zM58.5 122.6c-.8 2.6-.1 3.5 2 2.6 1.8-.7 1.7-3.69-.2-4.29-.6-.2-1.4.5-1.8 1.7zM63 122.6c0 .5.5 1 1.1 1 .5 0 .7-.5.4-1-.3-.59-.8-.99-1.1-.99-.2 0-.4.4-.4 1zM7.5 127c-.9 3.18 1 5.17 3.2 3.38 1.7-1.4 1.7-3.79-.1-3.79-.8 0-1.6-.6-1.9-1.3-.2-.59-.8.1-1.2 1.7zM0 132.67c0 .5.5.7 1 .4.6-.3 1-.8 1-1.1 0-.2-.4-.4-1-.4-.5 0-1 .5-1 1.1zM50 133.77c-.65 1.36-.99 2.96-.72 3.62.8 1.96 2.32-.52 2.11-3.44-.17-2.3-.4-2.32-1.4-.18zM71 139.95c0 .8.5 1.8 1 2.09.6.3 1-.3 1-1.4 0-1.2-.4-2.09-1-2.09-.5 0-1 .6-1 1.4z"/><path fill="#FE4C4C" d="M51 131.21c0 .67.5 1.5 1 1.76.6.25 1-.25 1-1.17 0-1-.4-1.76-1-1.76-.5 0-1 .5-1 1.17zM48.67 142.5c.68 0 1.51-.5 1.77-1 .25-.6-.26-1-1.18-1-1 0-1.76.4-1.76 1 0 .5.5 1 1.17 1z"/></svg>
