<svg xmlns="http://www.w3.org/2000/svg" fill="none" viewBox="0 0 260 254"><path fill="#fff" d="M70.87 17.13c-.13.22-.31.08-.48 0-.49.44-.72.7-1.07 1.27h.01l-.08.07c-.4-.04-1.05.22-1.13.72.52.46.92 0 1.31-.46v-.01c.03-.04.07-.07.12-.1.55-.36 1.55-.83 1.32-1.49zM196.62 165.13c1.89-1.3-.69-3.71-1.63-2.68-.38.41.04.88-.35 1.44.44.63 1.3 1.36 1.98 1.24zM215.34 208.48l2.33-3.1c-2.05-2.01-4.88 1.66-2.33 3.1zM80.28 156.9c-.45-1-.3-2.09-1.27-3.02v-.03l-.01-.13c.1-.72.25-1.45-.37-2.07.32-1.25-.43-2.34-.52-3.53-.33-.21-.33-.47-.72-.66-.41.68-.31 1.3-.34 1.92a.8.8 0 00-.65-.12 7.3 7.3 0 00-.03 2.16c.02.1.29.14.31.24.08.32-.05.92.45.7-.07-.3.08-.67.11-1.14-.22-.46-.3-1.27-.02-1.58-.07.25.27.32.35.5.02.05-.12.22-.1.29.13.36.5.79.59 1.16.15.7-.09 1.58.59 2.14v.15l.01.05c-.05 1.28.4 2.5.56 3.74.83.81.2 1.82.93 2.65.27-.09.54-.12.78-.4-.05-.91-.44-1.78-.8-2.66.05-.12 0-.23.15-.37zM78.55 157.9c-.26-.07-.52-.1-.8-.37-.66-.97.14-2.14-.46-3.12-.5.02-.31.72-.6 1.12.26 1.12-.02 2.32.62 3.38-.07.2-.02.38-.06.57.28.15.25.33.22.52l.47.35c.05.6.2 1.38 1.07 1.65.3-.37.2-.68.27-1.01-.91-.93-.05-2.12-.73-3.09zM121.13 194.55c-1.72-.1-3.31 2.1-1.44 3.05.42-.3.85-.2 1.25-.53.23-.18.32-.62.64-.85-.08-.34-.08-.69.06-1.05-.23-.2-.38-.41-.51-.62zM43.9 179.44c-.18.3-.45.02-.7-.04-.25.31-.54.38-.87.2-.61.51-1.6.6-2.04.78.06-.1-.05-.11-.15-.12-.42.42-.96.1-1.42.28-.23.56-.85.68-1.16 1.07-.47.59-.41 1.15-.5 1.8.32.35.9.81 1.53 1.03.25-.18.54-.08.76-.52.01.15.33.3.52.27-.07-.1-.08-.22.02-.35.4.22.72-.1 1.13.11.63-.86 1.4-.92 1.69-1.77 1.22-.15 2.24-1.72 1.2-2.74zM55.39 208.88c-.67.72-1.14.44-1.7 1.29.26.1.05.27.2.39.18-.04.38.05.59.2.16-.33 1.06-.03 1.16-.6.57.24 1.03-.26 1.48-.83-.41-.82-1.19-.28-1.73-.45zM229.82 52.26c.14.13.25.04.38.15a1.8 1.8 0 00-.02 1.32c.08.16.32.1.37.16 0 0-.05.2-.04.21.34.64 1.5.15 1.87.43.07-.48.51-.21.52-.22.12-.06.05-.24.1-.29.06-.06.21.06.33-.12.1-.15-.02-.5.3-.73.02-.26-.25-.05-.17-.26.64-.32-.25-1.02-.08-1.51l-1.17-.87v.04c-.06-.2-.15-.33-.29-.4a.06.06 0 00-.08.03c-.01.03 0 .06.03.08.1.04.16.13.2.27l-.05.08c-.21-.12-.06-.28-.33-.37-.15.24-.22.25-.27.03-.51.62-1.1.72-1.6 1.48.07.15.17.3 0 .49z"/><path fill="#fff" d="M168.54 79.6c-.4.09-.6-.03-1.09.16-.07-.08.06-.2-.04-.27.36-.41.84.03 1.23-.18.27.22-.36.14-.1.3zm-55.03 74.48l-.29.02v-.01c.17 0 .31-.22.5-.1a.28.28 0 01-.03.08l-.18.01zm9.11-115.6c.67.07 1.8 1.01 1.97 1.6-.7.42-2.13-.88-1.97-1.6zm66.51 115.96c.22-.17-.03-.27.08-.43a.68.68 0 00.08-.27c0-.03-.01-.05-.04-.06-.03 0-.05.01-.06.04a.68.68 0 01-.06.22c-.2-.52-.04-1.1-.1-1.64.24-.44.54-.48.78-.87.34.15.66.07.97 0 .03-.63 1.03-.11 1.1-.65 1.38.65 2.46 2.09 3.53 2.9.47-.44.98-.6 1.51-.57 1.56-1.56-.85-2.62-1.22-3.71-.81-.55-1.32-1.16-1.45-1.8.28-.3.15-.53.1-.79.3 0 .24-.32.29-.38.5-.57 1.5-.86 2.3-1.44.88.44 2.47 1 3.4 1.45 1.35-.55 1.42-2.04 1.35-3.12l-.31-.23c.3-.63-.2-1.24-.78-1.55 0-.56.26-.25.6-.64-.27-.15-.24-.33-.21-.52.5-.47.25-1.43 1-2.16-.49-.44.84-.92 1.01-1.68.57.08 1.13.14 1.71.31.14-.13.01-.23.02-.35.59.48 1.66.39 2.18.66.48-.5.6-.84 1.1-1.48.1.05.18 0 .27-.03.09.05.19.08.28.1.12.04.23.06.32.15.06.04.15.03.2-.03a.14.14 0 00-.03-.2c-.13-.1-.27-.14-.4-.17-.12-.04-.21-.07-.3-.13l.03-.02c-.46-.28-.88-.37-.68-.88-.8-.74-1.46-1.18-2.28-1.82 0-.78.48-1.99 1.38-2.49.39.28.68-.06 1.09.33.14-.24.22-.25.27-.03 0-.45-.15-.73.2-1.08.8.1 1.6.19 2.4.35.25-.12.11-.5.3-.39.04.15.19 0 .44.21.35-.13.7-.28 1.07-.29.51.02 1.1.62 1.53.06-.43-.28-1.18-.47-1.51-.9-.25-.3-.04-.55-.26-.8-1.26-1.13-2.17-1.56-3.77-2.57.16-.58.19-1.14.72-1.77-.17-.34-.02-1.03.3-1.22-.28-.29-.21-.62.14-1-.44-.25 0-.15.02-.34.01-.14-.08-.28-.06-.41.04-.28.03-.75.17-1.2.2-.66.8-1.4.96-2.09.9-.68 1.38-1.24 2.24-2.2.83-.04.94-1.38 1.61-1.82-.35-.24-.7-.33-1.07-.68.44-.13-.1-.74-.12-.82.34-.47.4-1.23 1-1.32.43-.8 1-.74 1.47-1.32.8-.02 1.32.06 2.02.05l.23-.31c.39.25.67-.16 1.05.06.49-.63 1.14-.12 1.67-.45.25-.02.1.08.31.23.08-.08.15-.23.25-.17.12.07.15.16.18.25.5-.18.93-.11 1.61.1.39-.16 1.1-.28 1.35.16.65-.59 1.5.2 2.17-.31.05.37.35-.06.59.2.5-.53 1.16.06 1.7-.19-.04-.06-.15-.11-.1-.19.48.27.94.39 1.37.3.63.39 1.22.41 1.73-.05-.08-.08 0-.19.09-.3-.2-.3-.36-.57-.66-.73a6.19 6.19 0 00-1.4-.08c-.4.07-.64.06-.97 0-.47-.07-.75-.02-1.13-.1-.3-.08-.4-.2-.68-.4-.08.08-.15.23-.25.18-.72-.51-1.3 0-1.97-.14-.85 1-1.96-.05-2.7.53-.05-.33-.38.12-.66-.25-.46.31-1.02-.03-1.49.22-.62-.33-1.8-.24-2.68-.8-1.66.7-3.2-.05-4.8.42-.84-.36-1.59-1.2-1.15-1.7-.06.04-.13.03-.21-.04.17-.6-.03-1.4-.32-1.7.12-1.03.86-1.8 1.51-2.5-.5-.53.05-1.21.3-1.85.79-.27 1.09-1.57 1.68-2.26-.09-.33-.33-.65-.08-1.03-.76-.96-2.16-1.68-2.9-2.28.08-.74.14-1.6.48-1.95.16-.15.02-.37.08-.43.16-.16.28 0 .4-.2.1-.18-.03-.44.18-.58l.24.18c.67-.83 1.4-1.04 2.21-1.99.93-.01 2.01-.29 2.88.7.95.08 1.81.18 2.42-.98-.05-.44-.23-.76.14-.99-.63-1.24-.3-2.6.62-3.9-.15-.49.1-.68.32-1.1.2-.36.27-.85.47-1.1.37-.49 1-.53 1.38-1.03.15-.22.02-.55.32-.6-.37-.14-.1-.41.08-.44-.33-.16-.31-.36-.16-.6-.42-.16-.14-.44-.5-.62.04-.8.19-1.95.06-2.5.3-.44.34-.84.58-1.27.8-.31 2.01-.36 3.08-.24.1-.21.52-.49.4-.67.05-.12-.25-.68-.03-.63-.85-.42-1.42-1.2-1.46-1.94.2-.56.42-.83.48-1.45.25-.08.47-.3.68-.6-.39-.17.02-.45-.1-.67-.85-.57-1.6-.82-2.23-1.07-.24-.5-.42-1-1.1-1.43.4-.23-.86-.82-1.08-1.16-.25-.4-.19-.77-.18-1.23-.74-.98-.22-2.09-.41-2.85.46-.28-.07-1.01.4-1.52-.5-.69.61-1.6.92-1.87.13-.12.2-.33.34-.46.45-.43 1.1-.76 1.44-1.11.13-.13.09-.29.22-.45.5-.66 1.44-1.14 1.66-1.91.72-.07 1.54-1.42 1.77-2.2-2-.49-2.24 3.38-4.12 3.23-.15.28-.54.7-.91.41-.23.5-.55.37-.85.34.1.14-.34.52-.53.21-.44.76-1.02.56-1.7.66-.64-.5-.83-1.08-1.49-1.59.45-.48-.18-1.34.33-2.06-.14-.1-.15-.2-.12-.33-.6-.41-1.59-.7-1.77-.23-.27-.27-.47-.04-.72-.17-.55.5-1.18.43-1.9-.22.18-.6-.42-1.14-.4-1.88a1.83 1.83 0 00-2.26-.22 13.34 13.34 0 01-2.96-1.73 1.87 1.87 0 00-.88-2.23c-.67.24-1.37.52-1.82 1.3-.8.38-2.06-.6-2.4-1.03 0 .01 0 .03-.03.06-.55-.29-.67-.21-1.23-.3-.79.94-1.45.43-2.37.89-.87-.77-.87-1.3-1.7-2.11-.25.32-.8.58-.92.27-.28.59-1.08 1.02-1.65 1.07-.35.43-1.25.94-1.77 1.23-.51.28-.52.19-1.05.43-.4.18-.66.6-1.04.91-.73.6-1.56 1.18-2.26 1.71-.74-.05-1.43.36-2.12.73-.58.06-.95-.37-1.6-.6-.24-.09-.35.08-.63.02-.55-.13-.83-.52-1.17-.88.07-1.24-1.3-1.5-2.16-2.46.08-.82-1.06-1.83-1.96-1.6-.17.41.18.92.7 1.01-.1.14-.1.25-.02.36 1.2.84 2.12 2.44 3.45 3.67-.18.38.13.87.13 1.43.01.71-.15 1.7-.61 2.45-.45.72-1.28 1.4-1.75 2.34-.14.28-.15.61-.29.87-.26.5-.68.9-.91 1.38-.18.38-.15.76-.33 1.1a5.62 5.62 0 01-1.82 1.78c-1.03.35-1.7-1.1-2.6-1.57-.17-.28.17-.67-.3-.72.06-.53-.04-1.03.11-1.61 0 .01.16 0 .2-.1.31-.88.86-2.78 1.76-3.65-.1-.72.66-1.18.99-1.81.31-.62.15-1.26.44-1.73-.16-.26-.23-.48-.3-.58-.36-.34-.66.29-.85-.16-.1.52-.7.2-1.07.3-.61.9-1.22 1.7-.93 2.21-.61.53-.13 1.64-.75 2.47-.13.18-.57.36-.81.6-.47.47-.66.8-1.1 1.13-.22-.28-.44 0-.69-.04-.6-.06-1-.53-1.67-.52-.51-.49-.93-.37-1.44-.83-.1-.73-.02-1.48.64-2.31-.29-.73.44-1.6.42-2.36.53-.5.41-1.31.62-1.96.07-.21.27-.39.33-.6.01-.06-.14-.1-.1-.2.17-.44.22-.52.16-.85-.43-.3-.75-.67-1.17-.87-.44.34-.98.29-1.36.68-.69.7-.52 1.7-.89 2.49.01.51.59 1.17.39 1.74-.11.33-.53.88-.8 1.23-.42.57-1.07 1.45-1.66 1.42-.17.3-.36.41-.55.56-1.15-.17-4.2-.68-3.01-2.61a2.83 2.83 0 01-.14-1.93c-.68-1.35-1.9-1.14-2.76.12.33.21.06.5.18.74-.6.46-.16 1.42-.49 1.95-.33.52-.93.7-1.65.58-.28.3-.43.29-.87.2.05.06.04.13-.04.21-.87-.56-1.55.17-2.33.2.05.06.15.12.1.2-.38-.52-1.09-.02-1.7-.67-.1.2-.23.28-.38.2-.41-.24-1.1-.7-1.89-1.04-.48-.8-.55-2.1-.8-3.15.06-.14 0-.2.17-.24-.35-.66-.46-1.37-1.18-1.98-.3.1-.62-.04-.96-.34-.08.08-.16.16-.27.03-.9.63-1.68 2.3-1.4 3.33-.23.33-.42.65-.33 1.09-.58.32-.9.75-1.41.76-.86 1.11-1.82 2.65-3.03 3.07-.57-.15-1.06.28-1.65.1.11.13-.09.09-.17.24-.28-.47-.95.03-1.46-.49a.67.67 0 01-.33.12c-.42-.38-.79-.3-1.19-.52-.22.4-.54.1-.81.11.04.06.04.14-.04.22-.62-.33-1.27.18-2.18-.66.3-.95-.06-1.8.36-2.76-.27-.14-.3-.38-.05-.4-.6-.24-.37-1.44-.94-1.68.28-.21 0-1.13-.39-1.26a2.74 2.74 0 00-.27-.93c-1.8-.65-3.77-2.17-2.4-4.1-.35-.5-.4-1.32-1.03-1.86-.48-.42-3.1-1.59-3.38-1.32-.36-.2-.68-.21-1-.13-.73-.5-1.08-.72-1.34-1.13.18-.47.24-1.51-.21-1.98-.1-.1-.2.07-.28.04-.27-.1-.54-.43-.89-.43-.54.42-1.13.54-1.7.67-.65-.12-1.24-.77-1.76-1.07.18-.2-.16-.4.21-.45a3.18 3.18 0 00-1.36-1.26c-.25.14-.72.43-.81.12-.21.5-.53.17-.74.66a12.45 12.45 0 01-2.96-.75c-.3-.53-.43-1.08-.7-1.62l.14.1.11-.15-.15-.12-.11.15a3.03 3.03 0 00-.45-.7c-1.46-.27-1.5 1.58-2.55 2.6-.22-.1-.43-.1-.64-.12-.05.3-.74.27-1.1.02-.2.32-.48 0-.77.04-.06.01-.1.23-.17.24-.08 0-.16-.18-.23-.18-.4 0-1.08.18-1.36.2.03 0 0-.21-.1-.2-.25.05-.6.31-.8.26-.05-.02-.07-.2-.1-.2-.11.03-.24.26-.5.35-.21.09-.51.01-.68.1-.35.2-.35.46-.54.57-.14.08-.42-.03-.68.1-.55.25-.68.9-1.13.37-.59.39-1.3 0-1.94 0-.53.44-1 .1-1.32.96.57 1.3-.45 2.17-1.32 3.37-.65.9-1.6 1.67-2.52 1.76-.14-.3-.78.01-1.14-.25-.2.38-.47.28-.74.17-.6.67-.94.82-.86 1.3.09-.07.19.01.3.1-.13.7.6 1.26.48 1.94-.24.26-.65.62-.61 1-.76.17-1.28.74-1.8 1.57.03.42.28.8.19 1.23.98.5.49 1.22.54 1.86-.68.85-1.4 1.37-1.84 2.14.38.62.36 1.3 1.17 1.85-.29.32.19.53.12.81-1.3 2-1.61 3.85.08 5.4-.3.42 0 .74-.39 1.17.32.26.17.58.07.9.24.68.36 1 .93 1.67-.37.05.06.15-.02.34a1.4 1.4 0 00-.3 1.23c.77.33.92 1.42 1.7 1.77.27.11.16.17.41.42.66.67.96.87 1.13 1.57-.24.45-.14.85-.1 1.25l-.03-.02c-.02-.02-.06-.02-.08.01-.02.02-.01.06.01.08l.04.03c-.2.25.02.86.52 1.1 0 0 .14-.11.19-.1.44.12.5 0 .84.02.59.05 1.08.39 1.18.04.55.59 1.29.63 1.92 1.32-.08.1-.09.2-.1.3.65.65 1.47.5 1.91 1.17.12.17-.06.34-.09.3.2.33.5.48.49.96.06-.04.11-.15.19-.1-.22.45.39.78.31 1.21-.17.3-.38.97-.77.88a3.76 3.76 0 00-.3 1.84c.29.08.54.2.22.53.66.53.92.7 1.64 1.22.04.06.04.13-.04.21.7-.02.72.67 1.38.91-.11.35-.03.68-.13 1 0-.04-.19-.08-.22-.04 0 0 .04.42 0 .48-.21.4-.75.68-1.22 1.15-.45.1-.95-.17-1.4-.07-1.2-.49-1.93.34-2.81 1.16-.3-.33-.54-.2-.82-.36.06-.1.2-.04.12-.16-.7-.2-.61-1.24-1.06-1.51.25-.5-.22-.9.08-1.4-.84-.9-.31-2.08-.06-2.84a1.33 1.33 0 01-.1-1.16c-.83-.62.18-1.4.4-2-.16.16-.14-.25-.25-.32-.48-.13-1.31 1.41-1.42.76-.36.13-.1.47-.4.55-.1-.1-.04-.23-.12-.34-.25.4-.53.49-.82.6.06-.09.18-.2.1-.28-.31.2-.41.62-.91.4.07.09.05.19.04.28-.12-.3-.69-.24-.9-.42-.03-.03.16-.18.04-.22-.03 0-.17.2-.25.18-.32-.06-.68-.34-1-.14 0-.33-.52-.16-.71-.17-.69-.41-.98-.88-1.03-1.38.4.39-.24-.52.1-.78-.6-.42-.76-.88-1.35-1.12-.17-.16.05-.38-.22-.53a7.3 7.3 0 00-2.08-1.43c-.36.01-.72.14-1.14-.25-.23.37-.56 0-.84-.02-.27-.04-.03.34-.31.25-.95-.13-1.61-.22-2.35-.42.04.06.15.12.1.2-1.04-.79-1.8-.4-2.65-1.5.48-.08-.26-.72.23-.8-.2-.1-.29-.23-.33-.36.1-.1.22-.07.31-.26-.24-.46-.39-.48-.25-.8-.33-.13-.76-.43-1.05-.54-.23.26-.36.03-.43.4-.06-.42-.32.23-.56-.05-.44.49-.6.69-.94 1.25-.47.02-.6.58-.95.62-.15-.28-.44-.28-.75-.44-.1-.75-1.66-2.24-1.6-1.44-.88-.35-1.44 1.53-2.2 1.99-.61.03-1.38.02-1.8-.37-.1-.1-.43-.69-.4-.91-.01.03.23.1.2.04-.01-.07-.25-.2-.33-.37-.23-.58-.01-1.07-.97-1.45-.26.4-.62.1-.99.34-.76.5-1.1 1.72-1.57 2.59-.55.12-.71.38-1.18.45-.51-.42-1.14-.5-1.58-.81-.06-.05-.17-.37-.2-.4-.21-.23-.8-.57-1.12-.6-.1 0-.3.24-.45.28-.44.1-.71.02-1 .21-.19.12-.15.4-.28.53-.08.08-.4.15-.58.29-.37.29-.6.5-.91.9-.46-.25-.79.35-1.25.04-1 .76-1.92 1.62-2.23 2.82-.6.19-.95.44-1.4.4-1.4-.1-2.05-1.72-2.88-2.63-.55-.61-1.25-.84-1.67-1.5 0-.01.13-.13.12-.15-.2-.25-.65-.51-.74-.8-.01-.02.13-.13.12-.15-.18-.23-.5-.36-.7-.52 0-.82-1.01-1.35-1.1-2.28-.34-.18-.26-.13-.54-.4.41-.6-.9-1.8-1.38-.91.07.73.81 1.23 1.32 1.96.28.4.36.96.6 1.3.45.61 1.1.92.92 1.53.68.54 1.23 1.7 1.05 2.48.47.36.42.78 1 1.11l-.18.24c.14.13.23 0 .35.01-.18.7.68 1.04.92 1.54-.22.46.1.81-.1 1.26-.45 1.02-1.71 1.32-2.25 1.71-.1-.07-.03-.18-.17-.25-.13.14-.04.24-.16.37-.2-.34-.7-.21-1.13-.6-.39.15-.9.13-1.32.47-.5.4-.64 1.07-.97 1.46.11 1.13.18 2.14-.93 2.7-.06.04-.28-.06-.34-.02-.62.4-1.16 1.07-1.71 1.64-.66.03-1.7 0-2.59-.12-.43.15-.17.2-.62.51-.24.16-.32-.03-.47.14-1.42 1.56 1 2.32 2.07 3.24-.25.17.07.26.2.39-.2 1.58-.95 3.65-2.37 5.26-.03-.28-.27-.25-.4.07-.49-.52-1.32.41-2.03-.06-.14-.58.44-1.27.43-1.87-.19-.74-.9-1.33-1.75-1.06-.03 0-.37.44-.3.38-.07.06-.12-.12-.26.05-.26.3-.3.75-.63.98.1.19.39.45 0 .5.88 1.05 1.52.99 2.44 1.93-.43.98-.41 2.22.88 2.72-.16.3.32.51.52.76.3 1.43-1.28 3.03-1.45 4.37.42 1.1.91 1.5 1.93 2.3-.32.04.04.27.06.4.05.3.14.98.12 1.3-.07.78-.74.7-1.01 1.19-.59-.32-1 .42-1.56.3l-.75 1c.35 1.35 2.4 1.68 3.6 1.84.02.28.27.48.56.55-.23.9-.63 1.61-1 2.64.15 1.26 2.13 2.03 2.9 2.78.03 1.01.55 1.82.05 2.83-.51 1.04-1.77 1.6-2.6 2.67.4.2.72-.13 1.1-.16.42.44.75.8 1.12 1.09.4.31.78.92 1.2 1.14.36.19.9.04 1.29.23.55.29.91.93 1.13 1.09.65.5 1.52.64 1.94.97.42.32.75.84.82 1.34.62.51.42 1.14.94 1.67-.34 1.11.7 2.02 1.13 3.03-.67 1.24-1.23 2.82-1.72 3.93-.26.56-.7 1.03-.95 1.59-.2.43-.2.85-.45 1.25-.54.88-1.54 1.7-1.51 2.5.2.11.29.24.33.37 1.14-.56 1.13-1.8 1.68-2.74.11-.18.38-.3.49-.49 1.02-1.61 1.65-3.94 2.6-5.1.17-.2.45-.17.48-.48.9.07 1.67.67 1.26 1.56.17.26.56.28.6.68-.26.78-1.07 1.56-1.11 2.44.72.45.73-.2.99-.83.3-.78 1.24-1.12 1.43-2.08.44-.14.9-.08 1.46-.5.32.18.6 0 .93.22.08-.08.15-.23.25-.18 1.09-.18 2.3.53 3.56 1.57.65 1.3.1 3.2 2.09 3.86.38-.19.78-.31 1.18-.44.5-.55 1.31-2.2 2.21-1.99.44.1.94.64 1.15 1.22.22.22.37-.05.57.06.58 1.28-.22 2.76-.04 4.1.2.24.11.17.4.3-.12.68.08 1.32.07 2 .19.15.37.29.53.27.94-2.4 2.57-3.82 2.65-6.15.36-.35.36-.65.48-.97.37-.47 1.54-.06 1.32-.47.3.38.71.04 1.06.06.08 0 .03.19.1.2.06 0 .2-.14.32-.12.38.03.66 0 .91.07.9.23 1.44.92 2.13 1.22.07.45.23.9.33 1.34 1.03.63 2.26.83 2.85-.41 0 0-.11-.13-.1-.2.09-.25.43-.68.49-.97.02-.1-.18-.3-.08-.54.11-.26.1-.4.06-.57.22-.17.67-.5 1.05-.9 1.27.41 1.78.89 2.84 1.87.54-.22 1.17.1 1.72-.04.37-.54.96-1.34.62-1.97.31-.81.08-1.48-.02-2.07.3-.9 1.06-.8 1.32-.96.23-.14.4-.5.54-.56-.04.01.01.2.1.2.26-.02.26-.57.28-.05.43-.37.91-.37 1.4-.4 1.35.75 2.02 1.78 3.38 1.8.5-.4 1.19-.83 1.43-1.6-.13-.86-.35-1.7-.64-2.55.36-1.27 1.73-1.81 2.87-1.73-.2-.32.08-.65.23-.8.67-.65 2.19.15 3.06.47.16-.27.37-.31.6-.16.93 1 .86 1.85 1.7 2.74-.34.5.16.81-.09 1.26-.32.6-1.67.87-2.5 1.4-.41.27-.58.62-1.01.7-1.1-.32-1.07-1.98-2.28-1.82.32.26.28.56.34.86.47.4.96.78.87 1.26-.57.69-.84.77-1.47 1.32-.24-.33-.36.09-.57-.06-.28.57-.9.47-1.33.82 0 0 .06.25-.02.35-.15.17-.57.06-.5.35.1.4-.13.85.03 1.24.91.87 1.64.46 2.43.49.07-.32.41-.34.62-.5 1.19-1 2.46-2.15 3.71-1.24.43-.63-.18-.67.1-1.26.26.02.49-.12.75-.04 1.1-.87 2.12-.13 3.38.83-.17.38.35.5.05.76.48.04.08.39.5.62.1 1.46-.4 2.76-1.5 3.97-.09.08-.87.49-.84.46-.01.01.04.2-.1.3-.3.19-.68.2-.91.4-.28.25-.47.7-.76 1.01-.8.88-1.3 1.3-1.04 2.38.55.69 1.17.81 1.86.42.1.08.04.18.18.25.2-.09.55-.46.6-.15.43-.66.79-.9.83-1.44 1.14-.33 1.43-1.51 2.37-2.36l.23.18c.36-.46.8-.67 1.36-1.17.33.15.62.1.92.08.69.35.91 1.1 1.5 1.24-.1 1.47.87 3.2 1.38 4.8a5.69 5.69 0 01-2.07 2.93c-.6-.13-.94.8-1.35.82.39.69-.7 1.05-.5 1.8.52 1.33 2.06.76 2.82 1.27.18-.1.94-.2 1.38-.07.38.7.36 1.44 1.13 2.06.2-.12.63.08.59-.29.22.4.83-.18 1.22-.18.3-.6.64-.6.73-1.14.08.04.07.22.16.11.4-.46.95-1.73 1.75-1.84v-.02l.27-.01.2-.01h.02l.02-.02c.07-.05.09-.15.1-.24l.05.06c1.06.58 2.61 1.1 3.54 1.92.1.1.25.47.44.7.36.42.73.55.88.77.04.06-.04.32-.02.35.24.43.32.32.45.7l.14.47c.08.3-.1.28-.2.58-.11.34-.07.83-.19 1.07-.18.34-.12.2-.2.59-.28 1.54-1.28.88-1.84 2.13-.1-.06-.2-.11-.27.04-.85.83-1.8 1.9-1.97 3.14.23.45.78.85 1.36 1.25.4-.21.97.02 1.47-.35.21-.15.37-.53.59-.78.83-.93 1.47-1.58 1.4-2.35.61-.67 1.14-1.13 1.58-1.96.6-.3.77-.55 1.3-1.1.22.2.43-.41.49 0 .13-.13.04-.23.15-.36.56.03 1.08-.25 1.66-.1.12.44 1.09.39 1.36.77.6-.33 1.4.03 1.92.35a5.07 5.07 0 011.95 1.94c-.4.47-.24 1.16-.1 1.75-.39.9-.57 1.74-1.03 2.5-.2.35-.51.66-.75 1.02.17.28 0 .6-.21.93.11.65-.2 1.37-.47 2.08l.04.06h-.02c-.07.09-.12.18-.17.28l-.06.11c-.25.32-.52.76-.68 1.07.53.5 1.38-.6.83-.96h-.01l.08-.14.07-.14c.22.07.15-.07.27-.26.6.08 1.86 1 2.1 1.57 0 .23-.25.5-.3.74.2.17.24-.02.3.23.22-.2.71-1.05.53-1.19 1.35-1.31 1.44-2.68 2.03-4.17a.82.82 0 01-.17-.74c.36-.3.3-.78.64-.86-.55-.33.06-.46.2-.93-.1-.1-.3-.19-.25-.31.21-.39.49-1 .82-1.58 1.08-.19 2.15-.48 3.26-.47l.39.3c.39-.05 1.03-.4 1.24-.05.36-.28.76-.2 1.21.17.1-.24.27-.02.4-.06 1 .53 1.01 1.37 1.7 2.12-.14.44.1.82.04 1.24-1 1.35-.61 3.1-.6 4.53.4.42.93.75 1.43.7.34-.53.77-.36 1.12-.86-.27-.31.05-.46.35-.95-.35-.46.03-1.02-.08-1.51.39-.17-.04-.28.33-.6-.08-.09-.23-.16-.18-.26-.02-.16.12-.34.27-.53-.43-.28-.18-.66.06-1.04-.38-.36-.06-.83-.04-1.25.6-.48.86-.79 1.67-.93 1.08.37.97 1.4 1.48 2.07-.23.2-.04.33-.27.53.38.66.6 1.35 1.46 1.94.12-.29.47 0 .68-.1-.02.01-.16-.15-.1-.2.29-.19 1.15-.79 1.46-1.45.09-.22-.25-.38.11-.64.25.4.74 1.12.2 1.84.37.43-.08 1.21.23 1.83a.14.14 0 00-.14.02.14.14 0 00-.02.2.8.8 0 00.13.12l-.02.03c-.17.43.37 1.08-.16 1.34.18.18.28.37.3.58-.29.83.35 1.52-.21 2.4.34.37.1.45.12.8.1.09.2.1.29.1v-.02l.06.08c-.46.01-.37 1-.1 1.13.47-.23.46-.69.36-1.05v-.09c-.02 0-.03-.02-.03-.03l-.02-.06v.03a1.12 1.12 0 00-.07-.1c.34-1.12-.1-1.72.69-2.86-.02-.3-.44-.12-.28-.45.31-.06.03-.19.02-.35-.01-.28.14-.61.1-.77-.06-.23-.46-.67-.02-1.1.05-.18-.38-.28-.28-.46.23-.56.02-1.06.12-1.6-.35-.38-.15-.82-.31-1.22.34-.41-.15-.72.25-1.14-.39-.46-.16-1 .05-1.54.55.27.29-.1.78.1.74.47 1.5.99 1.23 1.77.31.16.3.37.42.56.25-.12.15-.27.32-.26.71.61.58.92 1.46 1.46.7-.14 1.08.08 1.49-.22.87-.62.76-2.87 1.78-3.52.42.16.77-.12 1.17-.1.62.5 1.49 1.04 1.38 1.89-.22.17-.04.28-.21.44.26.43.02.93.6 1.3-.35.11.46.82.76.94.46.18 1.1.02 1.54.05l.52-.7c-.22-.21-.38-.56 0-.48-.12-.24-.43-.45-.04-.76l-.31-.23c.36-.98-.38-1.8.56-2.86.4.1.65-.4.97-.49.05-.01.18.17.23.18.2.03.36-.23.53-.22-.06.1.06.18.17.25.29-.42.67-.2 1.01-.21.2.41.66.78.4 1.26.57.8.52 1.69 1.18 2.47.06-.05.12-.15.2-.1.26 1.12 1.58 1.48 2.56 1.44.51.47.95.49 1.38.42.05-.4.84-.14.76-.52.12.05.23 0 .37.15.56-.49 1.27-.76 1.57-1.62l.62.47c-.2.24.18.4.03.62.92.82.79 1.79 1 2.7.4.06.27.24.5.49 1.03-.17 1.2 1.08 1.69 1.63l.02-.04.09.18c0 .02.02.05.04.06.03.02.07.03.11.01.06-.02.1-.09.07-.15a1.15 1.15 0 00-.12-.24h.04c-.06-.5-.18-.99-.63-1.44.34-1.06.27-2.07-.56-2.97.21-.17-.04-.27.08-.43-.61-.27-.05-.87-.63-.95.1-.2.17-.4.06-.56-.36-.07-.24-.8-.78-1.07.36-.35-.26-.18.2-.58-.25-.31-.22-.66-.63-.95.04-.15.03-.28.08-.43-.44-.44-.62-1.23-1.11-1.44.3-.3-.27-.52-.31-.72-.01-.05.11-.25.1-.29-.05-.09-.23-.1-.32-.23-.16-.27-.13-.79-.6-.81.1-.18-.1-.31 0-.5a3.7 3.7 0 012.45-1.32c.52.62 1.24.7 1.67 1.01.37.28.43.63.76.82l.01.1c-.2.31.06.56.24.81.12-.01.56-.2.43-.4-.22.13-.1-.35-.42-.44 0-.06 0-.14-.04-.23 0 0 0-.02-.02-.02l.03-.02c.2-.3-.27-.52-.12-.81.4-.89 1.42-1.81 2.04-2.73.4-.6.8-.9 1.35-1.17.08-.1-.08-.17-.03-.27.16.1.1.22.25.31 1.12-.37 2.05.84 3.1 1.7 1.2.04 2.26-2.21 1.38-2.83z"/><path fill="#fff" d="M165.8 177.37c.25-.85-.26-1.58-.01-2.43-.12-.12-.45-.2-.2-.38.04-.06.06-.1-.02-.14-.27.05-.58-.2-.87-.3-.23.49-.88.48-1.2.8-.38.38-.44.79-.66 1.21-.1.19-.31.35-.4.55-.28.54-.13 1.36-.5 1.94-.27.45-.49.99-.82 1.44.19.11.27.24.19.39-.92.92.17 1.83.88 2.72.51-.13.71-.29 1.12-.37.32-.76.87-1.5 1.32-2.42.14-.28.15-.64.29-.87.1-.16.35-.25.43-.41.25-.52.16-1.14.61-1.47-.07-.09-.22-.16-.17-.26zM105.59 194.45c-.44.61-.6 1.4-.95 2.08.02.25.36.45.04.75.45.85.8 1.05 1.6 1.44 1.41-.33 2.96-1.63 3.14-3.23.2-2.13-2.44-2.99-3.83-1.04z"/></svg>
