<svg xmlns="http://www.w3.org/2000/svg" fill="none" viewBox="0 0 101 53"><path fill="#FE4C4C" d="M46.02 1.5c-4.24.63-6.69 1.08-9.68 1.77-6.1 1.4-11.82 3.57-15.73 5.96a187.82 187.82 0 00-11.74 8.62c-2.03 1.67-2.37 1.91-2.5 1.8-.05-.06-.42.33-.89.92C2.3 24.67.64 28.5.93 31.16c.07.66.52 1.9.91 2.48.4.6 1.26 1.15 1.84 1.17.36.01.46-.03.79-.34.49-.46 1.02-1.96 1.52-4.2.75-3.39 3.48-7.16 7.62-10.57a72.06 72.06 0 018.23-5.76c11.04-6.4 27.27-9.82 43.52-9.18 3.2.12 7.12.55 9.71 1.05 10.1 1.97 17.1 6.13 19.46 11.59 2.8 6.45-1 13.96-10.4 20.5a83.77 83.77 0 01-5.05 3.1c-.4.22-1.52.8-2.5 1.3a7.1 7.1 0 00-1.45.8c.18-.05.34-.07.34-.05.02.18-2.96 1.62-3.27 1.57-.08 0 .23-.23.68-.5.45-.25.74-.44.65-.4l-1.86.75c-1.97.81-5.09 1.9-7.22 2.55l-2.06.65a17.1 17.1 0 01-3 .8l-3.07.6c-1.02.21-2.08.41-2.35.45-.41.05-.44.06-.17.1l.32.02-.3.1c-.18.05-.34.05-.36 0-.08-.1-2.76.27-3.88.52-.7.17-6.66.61-8.88.67-2.92.07-5.8 0-8.4-.2a28.17 28.17 0 00-2.96-.1c-.15 0-.04.04.21.12.26.07 1.05.13 1.78.13 1.45 0 4.79.26 4.8.37.01.13-.89.17-1.69.09-.42-.05-1.22-.1-1.77-.1s-1.43-.04-1.95-.08c-1.7-.13-1.07.01 1.51.34 2.54.32 5.74.61 8.28.73 1.38.07 2.9-.05 7.04-.56 1.13-.14 2.21-.22 3.1-.22.77 0 2.03-.04 2.8-.09 1.33-.09 1.42-.1 1.63-.31.3-.27.56-.33 3.33-.69 2.6-.33 3.64-.56 4.83-1.08.47-.21.95-.41 1.1-.45.32-.11 5.04-1.06 5.45-1.1.31-.03.31-.02.1.13-.32.23-.2.19 1.06-.28a169.6 169.6 0 0014.83-6.8 34.06 34.06 0 009.28-7.47c6.4-7.47 6.94-15.38 1.48-21.69-1.75-2.03-3.48-3.4-6.43-5.09-5.08-2.91-11.38-4.8-18.63-5.57A88.16 88.16 0 0056.9.46C54.84.6 47.44 1.3 46 1.52zM2.7 36.54c.26.82.9 1.9 1.61 2.76.4.46.73.9.74 1 .02.2.44.61.67.66.11.01.16-.02.1-.08l-1.06-1.5a39.91 39.91 0 00-1.26-1.7c-.17-.2-.29-.5-.32-.8-.04-.38-.12-.52-.34-.64l-.28-.14.14.44zM14.67 46.4c.2.13.5.25.64.26.29.03.24 0-.5-.3l-.53-.2.39.24zM12.8 47.14c1.52.79 5 2.36 4.25 1.92-1.1-.64-3.31-1.72-4.17-2.05l-1.06-.39.99.52zM19.27 49.89c0 .1 2.07.7 3.63 1.06 3.14.72 5.3 1.08 8.38 1.38 3.6.36 3.56.26-.18-.46-2.11-.4-2.67-.47-3.57-.46-1.63.05-3.2-.26-6.04-1.17a6.62 6.62 0 00-1.85-.44c-.21.03-.38.07-.37.09z"/><path fill="#FE4C4C" d="M27.61 50.74c.4.06.6.06.76-.03.18-.1.16-.11-.12-.1-.18.03-.51.05-.75.05-.4 0-.39 0 .11.08zM68.96 48.25c.09.02.2 0 .24-.04.03-.03-.04-.04-.17-.03-.14.02-.18.05-.07.07zM67.7 48.6c-.15.06-.17.09-.06.08.11-.02.3-.07.43-.13.15-.07.17-.1.05-.08-.1 0-.29.06-.43.12zM67.13 48.8c.1.02.2 0 .24-.03.04-.04-.04-.04-.17-.03-.15.02-.17.04-.07.07zM66.51 48.96c.09.02.23 0 .31-.03.08-.04 0-.05-.16-.03-.16.02-.23.04-.15.06zM66.04 49.1c.08.02.19 0 .23-.03.04-.03-.04-.04-.17-.03-.14.02-.17.04-.06.07zM65.4 49.26c.1.02.24 0 .33-.03.08-.04 0-.05-.16-.03-.18.02-.25.04-.16.06zM64.8 49.41c.09.02.23 0 .31-.03.08-.03 0-.04-.16-.03-.16.02-.23.05-.15.06zM64.18 49.57c.1.02.23 0 .32-.03.08-.03.01-.04-.15-.03-.18.02-.25.05-.17.06zM62.93 49.83c-.5.15 0 .1.62-.06.42-.11.43-.12.12-.09-.21.02-.54.1-.74.15zM61.92 50.1c.13 0 .3-.02.38-.06.08-.02-.02-.04-.23 0-.2.02-.27.04-.15.05zM61.12 50.27c.09.01.23 0 .31-.04.08-.03 0-.04-.16-.02-.16.01-.23.04-.15.06zM60.15 50.46c.09.02.2 0 .24-.03.03-.04-.04-.05-.17-.03-.15.02-.18.04-.07.06z"/></svg>
