<svg xmlns="http://www.w3.org/2000/svg" fill="none" viewBox="0 0 30 33"><path fill="currentColor" d="M29.26 8.57l.05.44v.59a6.4 6.4 0 01-.4 2 7.78 7.78 0 01-2.12 3.48c-.6.52-1 .9-1.2 1.13-.95.65-1.84 1.14-2.68 1.46-.47.3-1.36.66-2.67 1.08-.57.23-2.25.7-5.04 1.42-.07 0-1.26.21-3.58.64h-.1c-.07 1.5-.1 2.66-.1 3.47 0 .89.01 1.4.05 1.57v.69c.03.13.05.27.05.44v.54c.03.2.05.37.05.53.1 1.87.3 3.45.6 4.75a1.07 1.07 0 00-.65-.49 1.12 1.12 0 00-.66 0l-.6.3-.26.15c-.57.06-.92.08-1.06.04a.85.85 0 01-.25-.24 1.3 1.3 0 00-.25-.34.55.55 0 00-.3-.1c-.27-.07-.8.15-1.57.64-.1.1-.28.14-.55.14-.24 0-.44.03-.6.1 0-.23-.02-.54-.06-.93V14.93c.1-1.96.16-3.8.16-5.53V7.93l-.1-1.37-.1-4.8 1.96-.1c.1-.16 1.34-.45 3.73-.88C12.02.48 13.15.3 14.4.2a25.48 25.48 0 015.65-.1c1.64.26 2.67.49 3.07.68.6.17 1.13.41 1.57.74a6.2 6.2 0 011.56.98A5.4 5.4 0 0127.7 4a6 6 0 01.96 1.96c.27.56.45 1.18.55 1.86l.05.74zm-6.45 1.08l.05-.25-.05-.49-.15-.73-1.16-1.23c-.34-.13-.8-.28-1.41-.44a6.35 6.35 0 00-1.77-.3h-2.27c-.6.04-1.16.14-1.66.3-.24 0-1.08.13-2.52.4v.04c.03.98.05 2.48.05 4.5v3l1.76-.3c.6-.07 1.6-.3 2.98-.69.3-.06.75-.2 1.36-.44.64-.26 1.06-.42 1.26-.49.7-.2 1.3-.5 1.77-.93a5.15 5.15 0 001.46-1.27l.2-.3.1-.38z"/><path stroke="currentColor" stroke-width="3" d="M0 26.56h16.4"/></svg>
