<svg xmlns="http://www.w3.org/2000/svg" fill="none" viewBox="0 0 25 26"><path fill="#fff" d="M6.09.15A7.1 7.1 0 00.1 5.72C0 6.13 0 6.32 0 7.38c0 1.6.14 2.67.54 4.24A18.03 18.03 0 0014.9 24.86c1.18.2 1.68.25 2.88.25 1 0 1.21-.02 1.62-.11a7.01 7.01 0 005.6-6.47c.04-.6 0-.74-.24-.96-.13-.12-8.15-3.34-8.33-3.34a.8.8 0 00-.56.28c-.06.07-.42.92-.8 1.87l-.7 1.74-.33-.02a8.11 8.11 0 01-1.88-.41 8 8 0 01-4.4-3.97A7.46 7.46 0 017 11.07L7 10.74l1.74-.7c.95-.38 1.8-.74 1.87-.8a.8.8 0 00.28-.56c0-.17-3.22-8.19-3.35-8.33C7.35.15 7.2.1 6.78.1c-.2 0-.52.03-.7.05z"/></svg>
