<svg xmlns="http://www.w3.org/2000/svg" fill="none" viewBox="0 0 79 78"><path fill="#fff" d="M61.734 48.318c-1.6-1.662-3.528-2.551-5.572-2.551-2.028 0-3.974.872-5.639 2.535l-5.21 5.186c-.428-.23-.857-.445-1.269-.659-.593-.296-1.154-.576-1.632-.872-4.88-3.095-9.315-7.129-13.568-12.347-2.061-2.601-3.446-4.79-4.452-7.013 1.352-1.235 2.605-2.519 3.825-3.754.462-.46.924-.938 1.385-1.399 3.462-3.457 3.462-7.935 0-11.392l-4.5-4.494a68.797 68.797 0 01-1.534-1.564c-.99-1.02-2.028-2.074-3.1-3.062-1.599-1.58-3.51-2.42-5.522-2.42-2.012 0-3.957.84-5.606 2.42l-.033.033-5.605 5.646C1.592 14.72.388 17.287.124 20.266c-.395 4.807 1.023 9.285 2.11 12.215 2.672 7.195 6.661 13.862 12.613 21.007 7.22 8.61 15.91 15.408 25.834 20.199 3.792 1.794 8.853 3.918 14.508 4.28.346.017.709.033 1.039.033 3.808 0 7.006-1.366 9.512-4.082.017-.034.05-.05.066-.083.857-1.037 1.847-1.975 2.885-2.98a64.827 64.827 0 002.144-2.123c1.632-1.696 2.489-3.671 2.489-5.696 0-2.041-.874-4-2.539-5.647l-9.051-9.07zm5.902 17.335c-.016.017-.016 0 0 0-.643.692-1.302 1.317-2.011 2.009-1.072 1.02-2.16 2.09-3.182 3.292-1.665 1.778-3.627 2.618-6.199 2.618-.247 0-.511 0-.758-.017-4.897-.313-9.447-2.222-12.86-3.852-9.331-4.51-17.525-10.915-24.334-19.03-5.621-6.767-9.38-13.022-11.87-19.739-1.533-4.1-2.093-7.293-1.846-10.305.165-1.927.907-3.523 2.275-4.89l5.622-5.614c.808-.757 1.665-1.168 2.506-1.168 1.038 0 1.88.625 2.407 1.152l.05.05a83.238 83.238 0 012.967 2.946c.51.527 1.038 1.054 1.566 1.597l4.5 4.494c1.748 1.745 1.748 3.359 0 5.104-.477.477-.939.954-1.417 1.415-1.385 1.416-2.704 2.733-4.138 4.017-.033.033-.066.05-.083.083-1.418 1.415-1.154 2.798-.857 3.737l.05.148c1.17 2.831 2.819 5.498 5.325 8.675l.016.017c4.55 5.597 9.348 9.96 14.64 13.302.676.428 1.368.773 2.028 1.102.593.297 1.154.577 1.632.873.066.033.132.082.198.115.56.28 1.088.412 1.632.412 1.368 0 2.226-.856 2.506-1.136l5.638-5.63c.56-.56 1.451-1.235 2.49-1.235 1.022 0 1.863.642 2.374 1.202l.033.033 9.084 9.07c1.698 1.68 1.698 3.408.016 5.153zM42.214 18.554c4.32.725 8.244 2.766 11.376 5.894 3.132 3.128 5.16 7.046 5.902 11.359a2.211 2.211 0 002.193 1.844c.132 0 .247-.017.379-.033 1.22-.198 2.028-1.35 1.83-2.568-.89-5.219-3.363-9.976-7.139-13.746-3.775-3.77-8.54-6.24-13.766-7.129a2.237 2.237 0 00-2.572 1.811c-.214 1.202.577 2.37 1.797 2.568zM78.023 34.408c-1.467-8.594-5.523-16.414-11.755-22.636C60.036 5.549 52.205 1.499 43.6.034c-1.203-.214-2.34.61-2.555 1.81a2.234 2.234 0 001.83 2.569c7.683 1.3 14.69 4.939 20.262 10.487 5.572 5.564 9.199 12.56 10.502 20.232a2.211 2.211 0 002.192 1.844c.132 0 .247-.017.38-.033a2.181 2.181 0 001.813-2.535z"/></svg>
