<svg xmlns="http://www.w3.org/2000/svg" fill="none" viewBox="0 0 35 36"><path fill="#3C72FF" d="M19.1 12.37a1.73 1.73 0 00-1.61-.83 1.75 1.75 0 00-.78.27 1.72 1.72 0 00-.77 1.62c.08.66.53 1.2 1.16 1.42a1.7 1.7 0 002.01-2.48z"/><path fill="#3C72FF" fill-rule="evenodd" d="M35 17.6a17.5 17.5 0 11-35 0 17.5 17.5 0 0135 0zm-20.28-7.29a4.13 4.13 0 115.84 5.83 4.13 4.13 0 01-5.84-5.83zm-1 7.3a1.3 1.3 0 01.54-.1c.23 0 .42.06.64.2a5.24 5.24 0 005.46 0c.27-.15.44-.2.7-.2.15 0 .25 0 .38.05a1.2 1.2 0 01.8 1.46c-.05.19-.13.34-.26.49-.1.11-.2.2-.42.32a7.83 7.83 0 01-2.22.9c-.01 0 .4.43 1.17 1.2a12.64 12.64 0 011.3 1.34l.02.04c.06.11.12.29.14.42v.33a1.21 1.21 0 01-1.75.92h-.02l-.04-.03c-.12-.06-.22-.17-1.2-1.13l-1.32-1.33-1.17 1.17a37.5 37.5 0 01-1.24 1.22c-.14.1-.3.17-.46.2a.92.92 0 01-.26.02c-.18 0-.24 0-.39-.05a1.22 1.22 0 01-.69-1.7l.03-.06c.07-.12.17-.22 1.18-1.23l.12-.13c.76-.75 1.19-1.2 1.18-1.2h-.03l-.08-.03a7.8 7.8 0 01-1.93-.76 2.3 2.3 0 01-.54-.37c-.21-.2-.33-.45-.36-.76-.04-.5.26-1 .73-1.2z" clip-rule="evenodd"/></svg>
