<svg xmlns="http://www.w3.org/2000/svg" fill="none" viewBox="0 0 11 11"><g fill="#304477" stroke="#304477" stroke-width=".5" clip-path="url(#clip0)"><path d="M6.739 5.501h0a1.238 1.238 0 100 .002v0-.001 0V5.5v0h0zM5.5 5.834a.333.333 0 110-.666.333.333 0 010 .666z"/><path d="M10.797 5.049h-.747A4.577 4.577 0 005.953.952v-.75a.452.452 0 00-.904 0V.95A4.577 4.577 0 00.952 5.05h-.75a.452.452 0 000 .904H.95A4.577 4.577 0 005.05 10.05v.747a.452.452 0 10.904 0v-.747a4.577 4.577 0 004.097-4.097h.747a.452.452 0 100-.904zm-2.344.904h.687A3.672 3.672 0 015.953 9.14v-.687a.452.452 0 00-.904 0v.687a3.672 3.672 0 01-3.187-3.187h.687a.452.452 0 000-.904h-.687A3.672 3.672 0 015.05 1.862v.687a.452.452 0 00.904 0v-.687A3.672 3.672 0 019.14 5.05h-.687a.452.452 0 000 .904z"/></g><defs><clipPath id="clip0"><path fill="#fff" d="M0 0h11v11H0z"/></clipPath></defs></svg>