<svg xmlns="http://www.w3.org/2000/svg" fill="none" viewBox="0 0 9 11"><path fill="#304477" d="M2.567 2.2c-.031 0-.061.008-.088.022C2.4 2.265.594 3.284.387 6.077a.546.546 0 000 1.046c.207 2.793 2.013 3.813 2.092 3.855a.183.183 0 00.088.022h3.3c.03 0 .06-.008.087-.022.079-.043 1.885-1.062 2.092-3.855a.546.546 0 000-1.046C7.84 3.284 6.033 2.264 5.954 2.222a.183.183 0 00-.087-.022h-.184V1.1H6.4l1.3 1.357v1.76c0 .1.083.183.184.183h.734a.183.183 0 00.183-.183V2.383a.183.183 0 00-.025-.091L7.492.092A.183.183 0 007.333 0H2.2a.183.183 0 00-.183.183v.734c0 .1.082.183.183.183h.55v1.1h-.183zM5.4 10H3.086c-.25-.156-1.406-.51-1.602-2.85l5.565-.027C6.853 9.453 5.65 9.843 5.4 10zm1.65-3.923H1.4c.196-2.33 1.102-2.674 1.35-2.831h2.933c.25.156 1.17.492 1.366 2.831zM3.617 1.1h1.116v1.1H3.618V1.1z"/></svg>