<svg xmlns="http://www.w3.org/2000/svg" fill="none" viewBox="0 0 12 14"><path fill="#3C72FF" stroke="#3C72FF" stroke-width=".3" d="M7.52 7.76l.14.13.03-.01-.14-.14-.03.02zm-5.58-4.7l.03-.01a.32.32 0 01.24-.03l-.76-.76-.06-.06.02-.07.03-.18.05-.25.2.15 1.5 1.17.06-.04.09.08.54.49.05-.24.2.17.74.68-.05.1.02.02.75.68.07.06-.03.1-.03.07c.01.06.05.14.1.25a13.42 13.42 0 001.26 1.5l-.01-.06.25-.16L9.35 9l.08.08-.05.09-.05.1-.07.12 2.25 2.6.05.06-.02.08-.06.12a.25.25 0 01-.2.06.51.51 0 01-.2-.06 1.1 1.1 0 01-.06-.04l-.02.04-.03.11-.1.26-.16-.2-.04.12-.08.24-.17-.19L8 9.98l-.14.11-1.13-1.02h0L4.56 6.94l-.2-.05-.17-.05.05-.1-.06-.02h-.04l-.03-.04-1.06-1.11-.59-.4-.02-.01-.01-.02-.63-.75-.09-.1.04-.05C1.26 3.73.9 3.31.65 2.99a3.05 3.05 0 01-.3-.45.9.9 0 01-.07-.18.38.38 0 01-.01-.19h0l.04-.16.06-.23.18.15 1.4 1.14z"/><path fill="#3C72FF" stroke="#3C72FF" stroke-width=".3" d="M7.52 6.24l.14-.13.03.01-.14.14-.03-.02zm-5.58 4.7l.03.01c.07.05.16.05.24.03l-.76.76-.06.06.02.07.03.18.05.25.2-.15 1.5-1.17.06.04.09-.08.54-.49.05.24.2-.17.74-.68-.05-.1.02-.02.75-.68.07-.06-.03-.1-.03-.07a.93.93 0 01.1-.25 13.42 13.42 0 011.26-1.5l-.01.06.25.16L9.35 5l.08-.08-.05-.09-.05-.1-.07-.12 2.25-2.6.05-.06-.02-.08a.26.26 0 00-.06-.12.25.25 0 00-.2-.06.51.51 0 00-.2.06l-.06.04-.02-.04-.03-.11-.1-.26-.16.2-.04-.12-.08-.24-.17.19L8 4.02l-.14-.11-1.13 1.02h0L4.56 7.06l-.2.05-.17.05.05.1-.06.02h-.04l-.03.04-1.06 1.11-.59.4-.02.01-.01.02-.63.75-.09.1.04.05c-.49.51-.86.93-1.1 1.25-.14.18-.24.33-.3.45a.9.9 0 00-.07.18.38.38 0 00-.01.18h0L.3 12l.06.23.18-.15 1.4-1.14z"/></svg>
