<svg xmlns="http://www.w3.org/2000/svg" fill="none" viewBox="0 0 72 82"><path fill="#fff" d="M69.59 18.01c-8.64 0-15.68-7-15.68-15.6A2.4 2.4 0 0051.51 0H38.57a2.4 2.4 0 00-2.4 2.4v52.75a9.2 9.2 0 01-18.44 0 9.2 9.2 0 019.22-9.17 2.4 2.4 0 002.4-2.4V30.7a2.4 2.4 0 00-2.4-2.4A26.93 26.93 0 000 55.14C0 69.95 12.1 82 26.96 82A26.93 26.93 0 0053.9 55.15V31.8a33.29 33.29 0 0015.68 3.88 2.4 2.4 0 002.41-2.4V20.41a2.4 2.4 0 00-2.41-2.4zm-2.41 12.77a28.42 28.42 0 01-14.27-5.25 2.42 2.42 0 00-3.82 1.95v27.67A22.11 22.11 0 0126.96 77.2 22.11 22.11 0 014.82 55.15a22.1 22.1 0 0119.72-21.91v8.14a14.02 14.02 0 00-11.62 13.77c0 7.71 6.3 13.98 14.04 13.98C34.7 69.13 41 62.86 41 55.15V4.8h8.23a20.5 20.5 0 0017.95 17.88v8.1z"/></svg>
