<svg xmlns="http://www.w3.org/2000/svg" fill="none" viewBox="0 0 75 75"><circle cx="37.5" cy="37.5" r="37" fill="#fff" stroke="#EAEAEC"/><mask id="a" width="73" height="73" x="1" y="1" mask-type="alpha" maskUnits="userSpaceOnUse"><circle cx="37.5" cy="37.5" r="36.5" fill="#C4C4C4"/></mask><g mask="url(#a)"><path fill="#FFB919" d="M26 15.5L10.5 13 8 5.5 46.5-11 75 1l-4.5 21.5L54 20s-5.27-6.64-13-7.5c-9-1-15 3-15 3z"/><path fill="#0075FF" d="M21 26.5C18.7 34 22.5 43 22.5 43s6.24.23 9.5 3c4.2 3.56 4 13.5 4 13.5l3-.5s-.3-8.47 3-12c3-3.2 10.5-4 10.5-4s4-9 1.5-16.5S45.7 15.22 38 15c-8.01-.23-14.64 3.84-17 11.5z"/><path fill="#82D714" d="M75 56.5L14.5 66 22 77l42-5 11-15.5z"/><path fill="#19AA1E" d="M23 18L7.5 15.5-5 24l2 24.5 13.5 15L33 60s.42-8.08-3-11.5c-3-3-9.5-2.5-9.5-2.5S17 39 17 32c0-10 6-14 6-14zM58 35.5C58.74 28 56 23 56 23l16 2.5L78 39l-7.5 15L42 58.5s-.12-6.7 2.5-9.5c3.27-3.5 10-3 10-3s3.08-6.2 3.5-10.5z"/></g></svg>