<svg xmlns="http://www.w3.org/2000/svg" fill="none" viewBox="0 0 27 28">
    <path stroke="#fff" stroke-width="1.47" d="M1.04 6.89a6.2 6.2 0 015.74-5.74C9.02.98 11.5.85 13.5.85c2 0 4.48.13 6.72.3a6.2 6.2 0 015.74 5.74c.16 2.23.3 4.7.3 6.72 0 2-.14 4.48-.3 6.71a6.2 6.2 0 01-5.74 5.74c-2.24.17-4.71.3-6.72.3-2 0-4.48-.13-6.72-.3a6.2 6.2 0 01-5.74-5.74c-.16-2.23-.3-4.7-.3-6.71s.14-4.49.3-6.72z"/>
    <path stroke="#fff" stroke-width="1.47" d="M18.26 13.6a4.76 4.76 0 11-9.52 0 4.76 4.76 0 019.52 0z"/>
    <path fill="#fff" stroke="#fff" stroke-width=".74" d="M21.63 6.6a1.13 1.13 0 11-2.26 0 1.13 1.13 0 012.26 0z"/>
</svg>
