<svg xmlns="http://www.w3.org/2000/svg" fill="none" viewBox="0 0 26 32"><path fill="#fff" d="M9.575 2.283l.237.32-.033.287.321-.254 1.44.166c.383.045.508.545.374 1.502l.288.033c.09-.573.326-.837.71-.793.383.045.53.354.441.927l2.065-.053 3.014.932 1.184-.154c1.468.17 2.507 1.068 3.12 2.694l-.538 1.98.237.319-.033.287-.827 1.655-.287-.034.083-.573-.288-.034c-1.908 3.44-4.296 5.69-7.164 6.753l-4.905 1.474-.72 4.874.071 1.467c-.383-.045-1.008.855-1.874 2.699l-.32.255-.288-.034-2.135-1.414.639-2.259-.697-1.247 1.178-3.947-.254-.32 1.682-5.347-.254-.321.338-.253.576.067-.168 1.147.288.034.218-1.434-.154-.892.575.066.2-1.434-.491-.64-.167 1.146-.288-.033c.186-1.213-.244-2.236-1.292-3.066L5.64 7.077l.184-1.145c2.636-.736 3.978-1.26 4.025-1.576l.05-.285-.491-.64-.321.254-.138-1.183.338-.252.288.033zm1.205 11.514l.576.066c2.592-.752 4.958-2.227 7.1-4.427l-.863-.1c-3.878-.186-5.88.165-6.006 1.054l-.807 3.407zm7.797-3.18c-.735 1.013-3.379 2.359-7.93 4.04l-.322.254-.033.287.576.067c2.933-.54 5.599-2.08 7.997-4.615l-.288-.033zM6.18 15.305l-.05.286.237.32-.321.254-.1.571.575.067.234-1.431-.575-.067z"/><path fill="#fff" d="M14.648 22.272l.133.174-.018.167-.169.162-.58-.222.168-.152-.264-.357-.15-.006c-.165-.011-.592.687-1.283 2.095l-.6-.035-.88-.235c-.293-.695-.756-1.064-1.391-1.106l.018-.168.599.045-.263-.357-.749-.06-.036.334-.432-.196-.75-.05-.017.167.599.044-.036.336-.168.16-.132-.183-2.901.306-.131-.184-2.134.19-.545-.548-1.218.089-.455-1.385.018-.167.168-.152c1.035-.267 1.565-.513 1.589-.736l.73.218 2.548.185c.3.019 8.656-.47 8.632-.248-.024.224-.186.326-.486.307l-.018.168c.5.04.736.172.713.395l-.09.838-.168.151.15.016z"/></svg>
