<svg xmlns="http://www.w3.org/2000/svg" fill="none" viewBox="0 0 25 25"><path fill="#304477" d="M14.75 12.5zm-2.25 1.33a1.33 1.33 0 110-2.65 1.33 1.33 0 010 2.65z"/><path fill="#304477" d="M24.54 12.04h-2.23a9.83 9.83 0 00-9.35-9.35V.46a.46.46 0 00-.92 0v2.23a9.83 9.83 0 00-9.35 9.35H.46a.46.46 0 000 .92h2.23a9.83 9.83 0 009.35 9.35v2.23a.46.46 0 00.92 0v-2.23a9.83 9.83 0 009.35-9.35h2.23a.46.46 0 000-.92zm-5.33.92h2.18a8.91 8.91 0 01-8.43 8.43v-2.18a.46.46 0 00-.92 0v2.18a8.91 8.91 0 01-8.43-8.43H5.8a.46.46 0 000-.92H3.61a8.91 8.91 0 018.43-8.43V5.8a.46.46 0 00.92 0V3.61a8.91 8.91 0 018.43 8.43h-2.18a.46.46 0 000 .92z"/></svg>
