<svg xmlns="http://www.w3.org/2000/svg" fill="none" viewBox="0 0 35 36"><path fill="#3C72FF" d="M20.85 17.6a3.35 3.35 0 11-6.7 0 3.35 3.35 0 016.7 0z"/><path fill="#3C72FF" d="M25.33 11.68a3.11 3.11 0 00-.75-1.16c-.32-.33-.72-.59-1.15-.75-.36-.14-.89-.3-1.87-.34a69.7 69.7 0 00-4.06-.06c-2.68 0-3 0-4.06.06-.98.04-1.51.2-1.87.34a3.1 3.1 0 00-1.15.75c-.34.33-.6.72-.75 1.16-.14.35-.3.89-.35 1.87a69.7 69.7 0 00-.06 4.06c0 2.68.01 3 .06 4.06.04.98.2 1.5.35 1.86.16.44.41.83.75 1.16.32.33.72.59 1.15.75.36.14.89.3 1.87.35 1.06.04 1.38.05 4.06.05 2.68 0 3 0 4.06-.05.98-.05 1.51-.21 1.87-.35a3.33 3.33 0 001.9-1.9c.14-.36.3-.9.35-1.87.05-1.06.06-1.38.06-4.06 0-2.69-.01-3-.06-4.06a5.56 5.56 0 00-.35-1.87zM17.5 22.77a5.16 5.16 0 110-10.32 5.16 5.16 0 010 10.32zm5.36-9.32a1.2 1.2 0 110-2.41 1.2 1.2 0 010 2.4z"/><path fill="#3C72FF" d="M17.5.1a17.5 17.5 0 100 35 17.5 17.5 0 000-35zm9.99 21.65a7.37 7.37 0 01-.47 2.44 5.14 5.14 0 01-2.94 2.94c-.64.25-1.37.41-2.44.46-1.07.05-1.41.06-4.14.06-2.73 0-3.07 0-4.14-.06a7.38 7.38 0 01-2.44-.46 4.92 4.92 0 01-1.78-1.16c-.51-.5-.9-1.11-1.16-1.78a7.37 7.37 0 01-.47-2.44 70.65 70.65 0 01-.06-4.14c0-2.73.01-3.08.06-4.15.05-1.07.22-1.8.47-2.44.25-.67.65-1.27 1.16-1.78.5-.5 1.1-.9 1.78-1.16a7.38 7.38 0 012.44-.46c1.07-.05 1.41-.06 4.14-.06 2.73 0 3.07 0 4.14.06 1.07.05 1.8.22 2.44.46.67.26 1.28.65 1.78 1.16.51.5.9 1.11 1.16 1.78.25.64.42 1.37.47 2.44.05 1.07.06 1.42.06 4.15 0 2.72-.01 3.07-.06 4.14z"/></svg>
