<svg xmlns="http://www.w3.org/2000/svg" fill="none" viewBox="0 0 51 51"><g clip-path="url(#clip0)"><path fill="#1A73E8" d="M29.45 2.84a17.15 17.15 0 00-18.24 5.3l8.07 6.79L29.45 2.84z"/><path fill="#EA4335" d="M11.21 8.14c-2.58 3.08-4 6.96-4 10.98 0 3.2.64 5.81 1.7 8.14l10.37-12.33-8.07-6.79z"/><path fill="#4285F4" d="M24.3 12.6a6.53 6.53 0 014.98 10.75l10.16-12.09a17.08 17.08 0 00-10-8.41L19.3 14.94a6.51 6.51 0 015-2.34z"/><path fill="#FBBC04" d="M24.3 25.66a6.54 6.54 0 01-5.01-10.72L8.9 27.27c1.78 3.93 4.73 7.1 7.76 11.07l12.62-14.99a6.52 6.52 0 01-4.99 2.31z"/><path fill="#34A853" d="M29.03 42.43c5.7-8.9 12.34-12.95 12.34-23.31a17 17 0 00-1.93-7.87l-22.77 27.1c.97 1.26 1.94 2.6 2.89 4.09C23.02 47.8 22.06 51 24.3 51c2.24 0 1.28-3.22 4.74-8.57z"/></g><defs><clipPath id="clip0"><path fill="#fff" d="M0 0h51v51H0z"/></clipPath></defs></svg>