<svg xmlns="http://www.w3.org/2000/svg" fill="none" viewBox="0 0 35 36"><path fill="#3C72FF" fill-rule="evenodd" d="M17.5 35.1a17.5 17.5 0 100-35 17.5 17.5 0 000 35zm9.68-12.27l.07.14c.02.05.05.14.07.28.03.13.03.25 0 .36-.03.1-.12.2-.27.29-.14.09-.35.13-.62.13l-2.71.04c-.17.04-.37.02-.6-.05a2.59 2.59 0 01-.55-.23l-.21-.13a4.98 4.98 0 01-.74-.68c-.29-.3-.53-.57-.73-.82-.2-.24-.42-.45-.65-.61-.23-.17-.43-.22-.6-.17a.68.68 0 00-.08.04.92.92 0 00-.18.15 1.16 1.16 0 00-.23.32c-.07.12-.13.3-.18.55a3.5 3.5 0 00-.07.82 1.08 1.08 0 01-.11.49l-.05.05a.84.84 0 01-.56.23h-1.22a5.92 5.92 0 01-2.94-.74 12.76 12.76 0 01-1.84-1.3l-.26-.26a23.48 23.48 0 01-1.05-1.28 26.45 26.45 0 01-2.42-3.84 35 35 0 01-1.39-2.88.84.84 0 01-.06-.29c0-.08.01-.13.03-.17l.04-.06c.11-.13.31-.2.6-.2l2.91-.02a1.13 1.13 0 01.42.16l.05.03c.11.08.2.19.25.34a15.7 15.7 0 00.93 1.96l.17.3c.2.43.4.8.59 1.1.19.32.36.56.51.73.15.18.3.31.44.41.14.1.26.15.36.15.1 0 .2-.02.29-.05l.05-.06a1.72 1.72 0 00.27-.73 8.24 8.24 0 000-2.96c-.04-.23-.1-.39-.14-.48l-.06-.13c-.18-.24-.48-.4-.9-.45-.1-.02-.08-.1.05-.26.12-.13.25-.24.4-.32.38-.18 1.22-.27 2.53-.25.58 0 1.06.05 1.44.14.14.03.25.08.35.14.1.06.17.14.22.25a1.65 1.65 0 01.15.83 15.93 15.93 0 01-.04 1.33 26.32 26.32 0 00-.03 1.32 8.94 8.94 0 00.03.93l.05.23.08.19a.74.74 0 00.23.26l.18.04c.07.01.16-.03.28-.12a3.85 3.85 0 00.95-1.07 17.32 17.32 0 001.92-3.66.66.66 0 01.16-.16l.04-.04.06-.02.13-.04a.4.4 0 01.22 0l3.05-.02c.27-.04.5-.03.68.03.17.05.28.1.33.17l.06.1c.16.46-.37 1.5-1.6 3.12-.16.23-.39.53-.68.9a8 8 0 00-.95 1.4c-.12.28-.07.57.15.85.12.15.4.44.85.87h.01l.02.01v.01l.03.02c1 .93 1.67 1.7 2.02 2.34z" clip-rule="evenodd"/></svg>
