<svg xmlns="http://www.w3.org/2000/svg" width="35" height="35" fill="none"><path fill="#fff" fill-rule="evenodd" d="M17.5 35C27.165 35 35 27.165 35 17.5S27.165 0 17.5 0 0 7.835 0 17.5 7.835 35 17.5 35zm9.681-12.271c.021.035.044.08.07.132.024.053.048.147.074.281a.82.82 0 01-.006.36c-.028.106-.116.204-.265.292-.148.088-.357.133-.625.133l-2.713.042c-.17.035-.368.018-.594-.053a2.585 2.585 0 01-.551-.233l-.212-.128a4.984 4.984 0 01-.742-.678 18.838 18.838 0 01-.726-.821 3.522 3.522 0 00-.647-.615c-.23-.166-.43-.221-.599-.165a.7.7 0 00-.084.038.92.92 0 00-.18.153 1.502 1.502 0 00-.228.313 2.155 2.155 0 00-.181.551 3.492 3.492 0 00-.069.821c0 .106-.012.204-.037.292a.706.706 0 01-.08.196l-.042.053c-.127.134-.314.212-.561.233h-1.22a4.815 4.815 0 01-1.547-.175 5.915 5.915 0 01-1.394-.562c-.4-.23-.763-.462-1.092-.7a6.283 6.283 0 01-.747-.609l-.265-.254a6.845 6.845 0 01-.291-.318 23.48 23.48 0 01-.758-.965 26.446 26.446 0 01-1.124-1.6c-.367-.565-.8-1.31-1.298-2.236a34.995 34.995 0 01-1.383-2.884.844.844 0 01-.064-.286c0-.078.01-.134.032-.17l.042-.063c.106-.134.308-.201.604-.201l2.905-.021c.085.014.166.036.244.068a.724.724 0 01.17.09l.052.032c.113.078.198.191.255.34a15.69 15.69 0 00.487 1.097c.184.378.329.666.435.863l.17.308c.204.424.402.791.593 1.102.19.311.362.553.514.726.152.173.299.31.44.408.141.1.261.149.36.149a.794.794 0 00.286-.053.181.181 0 00.053-.053 1.718 1.718 0 00.27-.731c.033-.205.066-.492.101-.86a8.243 8.243 0 000-1.324 4.917 4.917 0 00-.095-.774c-.05-.233-.099-.396-.148-.487l-.064-.128c-.177-.24-.477-.392-.901-.455-.092-.014-.074-.1.053-.255.12-.134.254-.24.403-.318.374-.183 1.219-.268 2.533-.254.58.007 1.057.053 1.431.138.141.035.26.083.355.143a.57.57 0 01.218.254c.049.11.086.223.11.34.025.116.038.277.038.482a15.942 15.942 0 01-.022.89l-.015.44c-.011.314-.016.606-.016.874 0 .078-.003.226-.01.446a8.94 8.94 0 00-.006.508c.003.12.016.264.037.43.01.082.026.157.046.226a.93.93 0 00.076.187.734.734 0 00.238.26l.18.042c.064.014.156-.024.276-.116a3.86 3.86 0 00.403-.366c.148-.152.332-.389.55-.71.22-.322.46-.701.722-1.14a17.31 17.31 0 001.134-2.384.771.771 0 01.106-.186.643.643 0 01.07-.077.31.31 0 01.046-.034l.043-.032.053-.027.138-.031a.395.395 0 01.212-.006l3.052-.02c.276-.036.502-.027.679.026.176.053.286.11.328.175l.063.105c.163.452-.367 1.491-1.59 3.116-.17.227-.399.527-.689.901-.55.707-.869 1.17-.954 1.389-.12.29-.07.576.15.858.12.149.405.439.858.87h.01l.011.01.01.01.022.022c.996.926 1.67 1.707 2.024 2.343z" clip-rule="evenodd"/></svg>