<svg xmlns="http://www.w3.org/2000/svg" fill="none" viewBox="0 0 25 26"><path fill="#fff" d="M24.39 13.39L12.59 1.6A5.11 5.11 0 0010.91.54 5.1 5.1 0 008.98.11H2.1C1.54.1 1.05.3.63.73.2 1.15 0 1.65 0 2.22v6.86c0 .59.15 1.23.44 1.93.29.7.64 1.26 1.06 1.67l11.8 11.81c.4.41.9.62 1.49.62.57 0 1.07-.2 1.5-.62l8.1-8.11c.4-.41.61-.9.61-1.49 0-.57-.2-1.07-.61-1.5zM6.77 6.88c-.4.41-.9.62-1.49.62-.58 0-1.08-.2-1.5-.62a2.03 2.03 0 01-.61-1.5c0-.58.2-1.08.62-1.49.41-.41.9-.62 1.49-.62.58 0 1.08.21 1.5.62.4.41.61.91.61 1.5 0 .58-.2 1.08-.62 1.49z"/></svg>
