<svg xmlns="http://www.w3.org/2000/svg" fill="none" viewBox="0 0 81 80"><path fill="#fff" stroke="#fff" d="M45.27 53.39h0l.42.2.53.28 4.95-4.92h0m-5.9 4.44l17.46-4.07a7.69 7.69 0 00-5.57-2.55c-2.03 0-3.97.87-5.64 2.53l-.35-.35m-5.9 4.44h0c-.6-.3-1.14-.58-1.6-.86A56.1 56.1 0 0130.24 40.3 33.54 33.54 0 0126 33.72c1.13-1.05 2.2-2.13 3.22-3.17l.35-.35.7-.7h0l.69-.7a8.56 8.56 0 002.74-6.05c0-2.14-.94-4.25-2.74-6.05l-4.5-4.5a68.24 68.24 0 01-1.53-1.55h0a78.34 78.34 0 00-3.12-3.08 8.3 8.3 0 00-5.86-2.56c-2.16 0-4.23.9-5.96 2.56h0l-.02.02-.02.02h0l-5.6 5.65s0 0 0 0a12.54 12.54 0 00-3.72 7.96h0c-.4 4.93 1.04 9.49 2.14 12.44 2.69 7.25 6.71 13.97 12.7 21.15h0a78.07 78.07 0 0026 20.33h0c3.8 1.8 8.93 3.96 14.69 4.33h0l1.07.03c3.94 0 7.27-1.42 9.88-4.24l.05-.06h0l.01-.02a8.7 8.7 0 007.65-11.14 8.4 8.4 0 00-2.68-6l-9.05-9.07s0 0 0 0m-17.82 4.42l17.82-4.42m-11.92-.02a8.45 8.45 0 016-2.68c2.19 0 4.24.95 5.92 2.7m-11.92-.02l11.92.02m3.19 19.33l.38-.37a45.96 45.96 0 001.66-1.67c.76-.8 1.08-1.53 1.08-2.2 0-.69-.34-1.42-1.13-2.2h0l-9.09-9.08-.01-.01-.02-.02h0l-.02-.02c-.47-.52-1.19-1.03-2-1.03-.83 0-1.6.55-2.14 1.08l-5.64 5.63h0c-.3.3-1.28 1.29-2.86 1.29a4.08 4.08 0 01-1.99-.55h0a1.54 1.54 0 00-.06-.03l-.02-.01-.02-.02c-.45-.28-1-.55-1.59-.85h-.01c-.65-.33-1.36-.68-2.06-1.12 0 0 0 0 0 0l.27-.43L66.28 68.3zm0 0a43.85 43.85 0 00-3.21 3.32 7.45 7.45 0 01-5.83 2.45l-.72-.01h0c-4.8-.31-9.28-2.18-12.68-3.8a72.72 72.72 0 01-24.16-18.9c-5.6-6.74-9.32-12.95-11.79-19.6h0c-1.52-4.06-2.06-7.17-1.82-10.09.16-1.8.85-3.3 2.13-4.58l5.62-5.6c.75-.7 1.49-1.03 2.16-1.03.84 0 1.56.5 2.05 1l.03.03.02.02h0l.01.01c1 .93 1.95 1.9 2.95 2.93h0l.78.8h0l.79.8h0l4.5 4.5c.83.83 1.17 1.54 1.17 2.2 0 .65-.34 1.37-1.16 2.2l-.49.48c-.3.32-.61.62-.93.93h0a85.55 85.55 0 01-4.12 4h-.01v.01h-.01l-.02.02a3.9 3.9 0 00-1.28 2.41c-.08.75.08 1.41.24 1.9h0v.01l.02.07.03.08v.01l.01.02c1.2 2.89 2.87 5.6 5.4 8.8l.01.02.02.02L66.28 68.3zm2.5-2.12a.5.5 0 01.18.11l-.32.36v-.49a.5.5 0 01.13.02zM63.13 39.11h.01a2.72 2.72 0 002.25-3.14h0a25.88 25.88 0 00-7.28-14.02 25.94 25.94 0 00-14.04-7.27h0a2.74 2.74 0 00-3.14 2.22 2.7 2.7 0 002.2 3.15c4.22.7 8.05 2.7 11.1 5.75A20.48 20.48 0 0160 36.9a2.71 2.71 0 002.68 2.25c.16 0 .3-.02.4-.03h.05zM41.55 2.76h0a2.73 2.73 0 002.24 3.15h0a36.98 36.98 0 0120 10.34c5.5 5.5 9.07 12.4 10.35 19.97a2.71 2.71 0 003.1 2.22h.04a2.68 2.68 0 002.24-3.12 42.25 42.25 0 00-11.9-22.9A42.35 42.35 0 0044.7.54a2.72 2.72 0 00-3.14 2.22z"/></svg>
