<svg xmlns="http://www.w3.org/2000/svg" fill="none" viewBox="0 0 10 10"><g clip-path="url(#clip0)"><path fill="#304477" stroke="#304477" stroke-width=".3" d="M9.017 3.721h-.7v-.696c0-.314.117-.617.332-.855l-.111-.1.111.1.356-.394a.886.886 0 01.012.14v1.805zm-.7.3h.7v.668h-.7V4.02zm-6.634-.3h-.7V1.916c0-.047.004-.094.012-.14l.356.394s0 0 0 0c.215.238.332.541.332.855v.696zm-.7.3h.7v.668h-.7V4.02zM.5 5.311h1.183v4.839h6.634V5.311H9.65V1.916c0-.707-.469-1.32-1.16-1.529L6.76-.136l-.021-.007h-.022L3.334-.15h-.022l-.022.006-1.78.531h0C.818.597.35 1.21.35 1.917V5.31H.5zm2.632 2.295l2.383 1.921H2.317V6.95l.482.389.113.09.095-.11.213-.247.101-.118-.12-.097-.884-.713V4.368l5.366 4.328v.742l-.082.096-.009-.007H6.513L3.534 7.125l-.113-.091-.094.11-.214.248-.101.117.12.097zM5.12 2.458L6.649.482l.155.046L5 4.005 3.196.528 3.35.482l1.531 1.976L5 2.61l.119-.153zM7.436.72l.869.262h0c.145.044.272.118.379.212l-.508.562s0 0 0 0c-.317.351-.493.802-.493 1.27V7.89L2.317 3.562v-.537a1.89 1.89 0 00-.493-1.269l-.508-.562c.107-.094.234-.168.38-.212h0L2.563.72 4.869 4.91 5 5.15l.131-.239L7.436.72zM4.14.473h1.722L5 1.583 4.14.473z"/></g><defs><clipPath id="clip0"><path fill="#fff" d="M0 0h10v10H0z"/></clipPath></defs></svg>