<svg xmlns="http://www.w3.org/2000/svg" width="35" height="35" fill="none"><path fill="#fff" d="M19.105 12.264a1.726 1.726 0 00-1.287-.83 2.679 2.679 0 00-.332-.003c-.163.02-.247.038-.38.08a2.103 2.103 0 00-.4.194c-.428.286-.7.729-.762 1.235a2.027 2.027 0 000 .38c.08.66.524 1.21 1.151 1.424.61.209 1.286.05 1.747-.412.26-.26.418-.57.483-.944.02-.112.02-.404 0-.517a1.696 1.696 0 00-.22-.607z"/><path fill="#fff" fill-rule="evenodd" d="M35 17.5C35 27.165 27.165 35 17.5 35S0 27.165 0 17.5 7.835 0 17.5 0 35 7.835 35 17.5zm-20.283-7.293a4.125 4.125 0 012.621-1.202c.14-.01.59-.004.727.012a4.118 4.118 0 012.226.942c.064.054.165.148.26.243.084.082.163.164.21.22.51.593.833 1.282.958 2.044.038.235.048.376.048.664 0 .287-.01.429-.048.664a4.115 4.115 0 01-.91 1.986c-.107.13-.388.412-.518.52a4.12 4.12 0 01-3.173.93 4.137 4.137 0 01-3.602-3.796c-.011-.14-.011-.468 0-.609.077-1 .496-1.913 1.2-2.618zm-.99 7.289c.124-.054.229-.079.412-.1.015-.001.068-.001.117.001.234.01.42.069.645.208a5.24 5.24 0 005.462.008c.269-.163.438-.215.697-.216.152 0 .249.016.383.06.5.165.832.623.83 1.145a1.084 1.084 0 01-.038.315 1.188 1.188 0 01-.253.488c-.096.112-.197.19-.42.324a7.834 7.834 0 01-2.226.898c-.007.002.412.428 1.175 1.191 1.118 1.12 1.22 1.223 1.293 1.344l.022.038v.002c.065.115.122.289.14.425.011.082.011.246 0 .327a1.21 1.21 0 01-1.01 1.035 1.663 1.663 0 01-.438-.008 1.368 1.368 0 01-.301-.105l-.018-.01a1.29 1.29 0 01-.043-.021c-.12-.065-.22-.166-1.188-1.131l-1.328-1.327-1.174 1.172c-.886.885-1.19 1.183-1.24 1.219-.136.095-.29.163-.457.2a.916.916 0 01-.254.02.956.956 0 01-.391-.058 1.219 1.219 0 01-.807-.946 1.55 1.55 0 010-.405c.017-.103.065-.247.114-.345.012-.023.02-.043.03-.061.066-.121.167-.223 1.176-1.232l.124-.125c.755-.755 1.19-1.197 1.183-1.2l-.018-.003-.02-.006a7.795 7.795 0 01-2-.778c-.322-.181-.437-.258-.55-.37a1.186 1.186 0 01-.351-.765 1.22 1.22 0 01.722-1.208z" clip-rule="evenodd"/></svg>