<svg xmlns="http://www.w3.org/2000/svg" fill="none" viewBox="0 0 26 26"><path fill="#fff" d="M25.83 5.89l-7.387 7.387 7.204 7.21c.219-.375.353-.805.353-1.27V6.784c0-.316-.065-.614-.17-.893zM23.457 4.239H2.544a2.51 2.51 0 00-1.168.297L12.48 15.639a.864.864 0 001.198 0L24.73 4.593a2.514 2.514 0 00-1.273-.354zM.213 5.77C.078 6.08 0 6.421 0 6.781v12.436c0 .456.13.88.342 1.25l7.283-7.287L.213 5.769z"/><path fill="#fff" d="M17.24 14.48l-2.358 2.363a2.56 2.56 0 01-3.6 0l-2.453-2.458-7.204 7.198c.286.111.594.178.919.178h20.913c.316 0 .616-.065.896-.171l-7.114-7.11z"/></svg>
