<svg xmlns="http://www.w3.org/2000/svg" fill="none" viewBox="0 0 21 25"><path fill="#304477" d="M6.33 5a.42.42 0 00-.2.05c-.17.1-4.28 2.41-4.75 8.76a1.24 1.24 0 000 2.38c.47 6.35 4.58 8.66 4.75 8.76.06.03.13.05.2.05h7.5c.07 0 .14-.02.2-.05.18-.1 4.29-2.41 4.76-8.76a1.24 1.24 0 000-2.38c-.47-6.35-4.58-8.66-4.76-8.76a.42.42 0 00-.2-.05h-.41V2.5h1.62L18 5.58v4c0 .23.19.42.42.42h1.66c.23 0 .42-.19.42-.42V5.42a.42.42 0 00-.06-.21l-2.91-5a.42.42 0 00-.36-.21H5.5a.42.42 0 00-.42.42v1.66c0 .23.19.42.42.42h1.25V5h-.42zm7.39 19.17H6.45c-.57-.36-3.78-2.6-4.22-7.92h15.7c-.44 5.3-3.65 7.56-4.21 7.92zm4.7-8.75H1.75a.42.42 0 010-.84h16.67a.42.42 0 010 .84zm-.48-1.67H2.23c.44-5.3 3.65-7.56 4.22-7.92h7.27c.57.36 3.77 2.6 4.22 7.92zM5.92.83h11l2.75 4.7v3.64h-.84V5.42c0-.11-.04-.21-.11-.3l-3.2-3.32a.42.42 0 00-.3-.13h-9.3V.83zM7.58 2.5h5V5h-5V2.5z"/></svg>
