<svg width="12" height="12" viewBox="0 0 12 12" fill="none" xmlns="http://www.w3.org/2000/svg">
<g clip-path="url(#clip0)">
<path d="M6 -0.000244141C2.69155 -0.000244141 0 2.6913 0 5.99976C0 9.30823 2.69155 11.9998 6 11.9998C9.30848 11.9998 12 9.30821 12 5.99976C12 2.6913 9.30848 -0.000244141 6 -0.000244141ZM6 10.6883C3.41468 10.6883 1.31148 8.58508 1.31148 5.99976C1.31148 3.41456 3.41468 1.31123 6 1.31123C8.58532 1.31123 10.6885 3.41456 10.6885 5.99976C10.6885 8.58508 8.58532 10.6883 6 10.6883Z" fill="#304477"/>
<path d="M6.51947 6.00694V3.49221C6.51947 3.21142 6.29193 2.98389 6.01125 2.98389C5.73049 2.98389 5.50293 3.21142 5.50293 3.49221V6.16934C5.50293 6.17733 5.5049 6.18483 5.50529 6.19282C5.4986 6.33104 5.54622 6.47138 5.65178 6.57696L7.54491 8.46995C7.74347 8.66851 8.06529 8.66851 8.26371 8.46995C8.46214 8.27138 8.46227 7.94956 8.26371 7.75112L6.51947 6.00694Z" fill="#304477"/>
</g>
<defs>
<clipPath id="clip0">
<rect width="12" height="12" fill="white" transform="translate(0 -0.000244141)"/>
</clipPath>
</defs>
</svg>
