<svg xmlns="http://www.w3.org/2000/svg" fill="none" viewBox="0 0 57 50"><path fill="#fff" d="M29.2 38.65c1.32 0 2.4-1.08 2.4-2.42a2.41 2.41 0 00-2.4-2.42 2.41 2.41 0 00-2.4 2.42 2.41 2.41 0 002.4 2.42z"/><path fill="#000" d="M31.73 40.7h-7.29V45h7.3v-4.3zM53.56 40.7h-7.3V45h7.3v-4.3z"/><path fill="#0061DC" d="M22.13 15h1.13v7.32A2.27 2.27 0 0121 20.04v-3.91c0-.63.5-1.14 1.13-1.14zM55.87 15h-1.13v7.32A2.27 2.27 0 0057 20.04v-3.91c0-.63-.5-1.14-1.13-1.14z"/><path fill="#007AFF" d="M24.44 11.86C24.44 9.79 33.81 9 39 9c5.12 0 14.56.79 14.56 2.86v29.06H24.44V11.86z"/><mask id="a" width="30" height="32" x="24" y="9" mask-type="alpha" maskUnits="userSpaceOnUse"><path fill="#fff" d="M24.44 11.86C24.44 9.79 33.81 9 39 9c5.12 0 14.56.79 14.56 2.86v29.06H24.44V11.86z"/></mask><g mask="url(#a)"><path fill="#fff" d="M26.07 14.1c2.8-.8 7.11-1.2 12.95-1.2 5.84 0 10.16.4 12.95 1.2.3.08.5.34.5.65v16.07c0 .37-.3.68-.68.68H26.26a.69.69 0 01-.69-.68V14.75c0-.3.2-.57.5-.66z" opacity=".98"/><path fill="#0061DC" d="M34.98 38.6h8.09c1.33 0 2.45 1.01 2.56 2.32H32.41a2.56 2.56 0 012.57-2.31z"/><path fill="#000" d="M48.85 38.65c1.32 0 2.4-1.08 2.4-2.42a2.41 2.41 0 00-2.4-2.42 2.41 2.41 0 00-2.4 2.42 2.41 2.41 0 002.4 2.42z"/><path fill="#F3F3F3" d="M48.85 38.65c1.32 0 2.4-1.08 2.4-2.42a2.41 2.41 0 00-2.4-2.42 2.41 2.41 0 00-2.4 2.42 2.41 2.41 0 002.4 2.42z"/><path stroke="#fff" stroke-width="5" d="M48.85 38.54a2.3 2.3 0 002.29-2.3 2.3 2.3 0 00-2.3-2.32 2.3 2.3 0 00-2.28 2.31 2.3 2.3 0 002.29 2.31z"/><path fill="#000" d="M29.2 38.65c1.32 0 2.4-1.08 2.4-2.42a2.41 2.41 0 00-2.4-2.42 2.41 2.41 0 00-2.4 2.42 2.41 2.41 0 002.4 2.42z"/><path fill="#F3F3F3" d="M29.2 38.65c1.32 0 2.4-1.08 2.4-2.42a2.41 2.41 0 00-2.4-2.42 2.41 2.41 0 00-2.4 2.42 2.41 2.41 0 002.4 2.42z"/><path stroke="#fff" stroke-width="5" d="M29.2 38.54a2.3 2.3 0 002.28-2.3 2.3 2.3 0 00-2.28-2.32 2.3 2.3 0 00-2.29 2.31 2.3 2.3 0 002.29 2.31z"/></g><path fill="#F43" d="M25 3.13a18.75 18.75 0 00-13.26 32c3.4 3.4 11.38 8.3 11.85 13.46.07.78.63 1.41 1.41 1.41.78 0 1.34-.63 1.4-1.4.48-5.16 8.47-10.08 11.86-13.47A18.75 18.75 0 0025 3.13z"/><path fill="#fff" d="M25 28.44a6.56 6.56 0 100-13.13 6.56 6.56 0 000 13.13z"/></svg>