<svg xmlns="http://www.w3.org/2000/svg" fill="none" viewBox="0 0 25 25"><path fill="#304477" d="M23.39 4.8c0-1.6-1.03-3-2.55-3.47L16.65.02 8.47 0 4.16 1.33a3.61 3.61 0 00-2.55 3.46v8.11h3.23V25h15.32V12.9h3.23V4.8zm-3.23 4.07v-1.3c0-.89.32-1.73.9-2.4l1.3-1.47c.14.34.22.7.22 1.1v4.88h-2.42v-.8zM15.32.81L12.5 4.57 9.68.81h5.64zm-6.8 0h.15l3.83 5.1 3.83-5.1h.14l.92.28-4.89 5.94-4.89-5.94.92-.28zM4.85 8.87v.8H2.42V4.8c0-.39.08-.75.23-1.1l1.3 1.48c.57.67.89 1.51.89 2.4v1.3zM2.42 12.1v-1.62h2.42v1.62H2.42zm3.23 4.49l1.75 1.46.52-.62-2.27-1.9v-2.17l6.6 5.5.5-.62-7.1-5.93v-2.17l13.7 11.42v2.18l-5.79-4.83-.51.62 5.6 4.66h-2.62l-7.3-6.09-.52.62 6.56 5.47H5.65v-7.6zm13.7 3.92L5.65 9.08V7.56c0-1.07-.4-2.1-1.1-2.92L3.09 2.97c.34-.4.78-.7 1.31-.87l2.38-.75L12.5 8.3l5.72-6.95 2.38.75c.53.16.97.47 1.31.87l-1.46 1.67c-.7.81-1.1 1.85-1.1 2.92v12.95zm.81-8.41v-1.62h2.42v1.62h-2.42z"/><path fill="#304477" d="M6.45 20.97v2.42h3.23v-2.42H6.45zm2.42 1.61H7.26v-.8h1.61v.8zM15.7 11.32v.54h-2.02c.02-.2.08-.4.2-.58.1-.18.32-.42.64-.72.26-.24.42-.4.48-.5a.64.64 0 00.12-.35c0-.13-.03-.23-.1-.3a.38.38 0 00-.29-.1.38.38 0 00-.29.1c-.07.08-.1.2-.12.37l-.58-.06c.04-.31.15-.54.33-.68.18-.14.4-.2.68-.2.3 0 .53.07.7.23.17.16.25.36.25.6 0 .14-.02.26-.07.39-.05.12-.13.25-.23.38-.07.1-.2.22-.38.39a6.53 6.53 0 00-.47.49h1.15zm.37-.26l.56-.07c.02.14.07.25.15.33a.4.4 0 00.28.11c.12 0 .22-.05.3-.14a.52.52 0 00.12-.36.5.5 0 00-.11-.35.37.37 0 00-.29-.13 1 1 0 00-.26.05l.06-.47c.16 0 .27-.03.36-.1a.37.37 0 00.12-.3c0-.1-.03-.17-.09-.23a.33.33 0 00-.24-.1c-.1 0-.18.04-.25.1a.48.48 0 00-.13.3l-.53-.08c.03-.18.09-.33.16-.44.08-.1.18-.2.32-.25.13-.07.28-.1.45-.1a.9.9 0 01.68.27.7.7 0 01.21.5c0 .27-.14.48-.43.64a.7.7 0 01.57.71.9.9 0 01-.3.68 1 1 0 01-.72.28 1 1 0 01-.67-.24.93.93 0 01-.32-.61z"/></svg>
