<svg xmlns="http://www.w3.org/2000/svg" fill="none" viewBox="0 0 28 28"><path fill="#fff" d="M20.41 16.89l.01-.1.11.06c.3.13.48.21.56.35.09.16.09.84-.21 1.66-.3.83-1.68 1.56-2.35 1.67-.6.08-1.36.12-2.2-.14-3.08-1.06-4.77-1.83-7.93-5.97-1.61-2.27-2.09-4.4-.2-6.48.43-.45.92-.46 1.59-.4h.07c.2 0 .46-.02.71.6l.54 1.28.54 1.3c.09.17.14.36.03.6-.28.52-.56.84-.78 1.07-.29.33-.44.5-.25.84.2.35.9 1.49 1.94 2.41 1.11 1 2.08 1.42 2.57 1.63l.23.1c.35.16.55.15.76-.08.2-.23.87-1.01 1.1-1.36.31-.47.57-.34 2.78.77l.38.19z"/><path fill="#fff" fill-rule="evenodd" d="M.12 13.98c0-12.23 14.85-18.52 23.82-9.85l-.02.05a13.76 13.76 0 014.08 9.8c0 10.57-11.39 17.18-20.6 12.2l-6.06 1.58a.8.8 0 01-.97-.99l1.6-5.85a13.8 13.8 0 01-1.85-6.94zm8.04 9.9c7.73 4.54 17.5-1.03 17.5-9.93 0-3.08-1.2-5.99-3.38-8.16a11.51 11.51 0 00-8.2-3.4C4.97 2.4-.56 12.42 4.25 20.08c.18.28.23.62.14.94l-.9 3.28c-.06.2.13.4.34.35l3.43-.9c.3-.07.63-.03.9.13z" clip-rule="evenodd"/></svg>
