<svg xmlns="http://www.w3.org/2000/svg" fill="none" viewBox="0 0 204 68"><path fill="#304477" d="M0 1.56C0 .76.65.1 1.45.1h1.44v66.12c0 .4-.32.73-.72.73H.72a.73.73 0 01-.72-.73V1.56zM2.9.1L66.5 16.4c.75.18.75 1.24 0 1.41L2.9 33.08V.11zM9.1 56.33a.53.53 0 01-.4-.16.54.54 0 01-.15-.4V41.5c0-.17.05-.3.15-.4a.5.5 0 01.4-.18h12.29c.16 0 .29.06.4.18.1.1.17.23.17.4v14.28a.5.5 0 01-.18.4c-.1.1-.23.15-.4.15h-2.97a.61.61 0 01-.42-.16.54.54 0 01-.15-.4V44.6h-5.17v11.18a.5.5 0 01-.18.4c-.1.1-.23.15-.4.15h-3zM25.48 56.33a.58.58 0 01-.39-.16.59.59 0 01-.15-.4V41.5c0-.17.05-.3.15-.4a.5.5 0 01.4-.18h10.33c.17 0 .3.06.4.18.12.1.17.23.17.4v2.17a.5.5 0 01-.17.4c-.1.1-.23.15-.4.15H28.9v2.8h6.44c.16 0 .3.06.4.17.11.1.17.24.17.4v2c0 .16-.06.3-.17.42-.1.1-.24.16-.4.16H28.9v2.86H36c.16 0 .3.06.4.17.11.1.17.24.17.4v2.18a.5.5 0 01-.18.4c-.1.1-.23.15-.39.15H25.48zM39.54 56.33a.53.53 0 01-.4-.16.62.62 0 01-.15-.41V41.5c0-.17.05-.3.16-.4a.57.57 0 01.41-.18h2.98c.16 0 .3.06.4.18.11.1.17.23.17.4v8.6l6.05-8.76a.83.83 0 01.74-.42h2.7c.16 0 .29.06.4.18.1.1.14.23.14.4v14.28c0 .14-.05.28-.15.4-.1.1-.23.15-.4.15h-3a.61.61 0 01-.41-.16.54.54 0 01-.15-.4V47.5l-6.05 8.41c-.09.13-.19.23-.3.3a.74.74 0 01-.45.12h-2.69zM56.68 56.33a.53.53 0 01-.4-.16.54.54 0 01-.15-.4V41.5c0-.17.05-.3.15-.4a.5.5 0 01.4-.18h3c.16 0 .29.06.4.18.1.1.17.23.17.4v5.21h5.17V41.5c0-.17.05-.3.15-.4a.57.57 0 01.42-.18h2.98c.16 0 .29.06.4.18.1.1.17.23.17.4v14.28a.5.5 0 01-.18.4c-.1.1-.23.15-.4.15H66a.61.61 0 01-.42-.16.54.54 0 01-.15-.4V50.4h-5.17v5.39a.5.5 0 01-.18.4c-.1.1-.23.15-.4.15h-3zM76.46 56.33a.61.61 0 01-.42-.16.54.54 0 01-.15-.4V44.52h-3.86a.61.61 0 01-.41-.15.54.54 0 01-.15-.4V41.5c0-.17.05-.3.15-.4a.57.57 0 01.41-.18h11.9c.16 0 .3.06.4.18.11.1.17.23.17.4v2.46a.5.5 0 01-.17.4c-.1.1-.24.15-.4.15h-3.86v11.27a.5.5 0 01-.17.4c-.1.1-.23.15-.4.15h-3.04zM86.97 56.33a.58.58 0 01-.4-.16.59.59 0 01-.15-.4V41.5c0-.17.05-.3.16-.4a.5.5 0 01.4-.18h10.6c.15 0 .29.06.39.18.11.1.17.23.17.4v2.3c0 .17-.06.3-.17.42-.1.1-.24.16-.4.16h-7.03v2.44h2.94c1.76 0 3.16.42 4.18 1.26a4.2 4.2 0 011.53 3.43c0 .92-.22 1.75-.67 2.48a4.59 4.59 0 01-1.95 1.72c-.87.41-1.9.62-3.1.62h-6.5zm6.13-2.97c.57 0 1.02-.18 1.34-.53.32-.37.48-.82.48-1.34 0-.52-.16-.94-.48-1.28-.3-.34-.75-.5-1.34-.5h-2.56v3.65h2.56zM107.22 56.55c-2.08 0-3.71-.5-4.91-1.52-1.2-1.01-1.83-2.5-1.9-4.47a57.57 57.57 0 010-3.8c.05-1.94.69-3.43 1.9-4.47 1.23-1.06 2.86-1.59 4.9-1.59 2.04 0 3.66.53 4.87 1.59 1.23 1.04 1.87 2.53 1.93 4.46a55.26 55.26 0 010 3.8c-.07 1.98-.71 3.47-1.9 4.48-1.2 1.01-2.82 1.52-4.9 1.52zm0-3.3c.76 0 1.36-.23 1.81-.69.46-.47.7-1.18.73-2.13.03-.85.04-1.46.04-1.83 0-.36-.01-.96-.04-1.78-.03-.95-.27-1.66-.73-2.11a2.4 2.4 0 00-1.81-.7c-.78 0-1.39.23-1.84.7-.46.45-.7 1.16-.73 2.11a52.96 52.96 0 000 3.61c.03.95.27 1.66.73 2.13.45.46 1.06.69 1.84.69zM126.63 56.33a.58.58 0 01-.4-.16.59.59 0 01-.15-.4V44.6h-3.94v1.85c0 2.5-.16 4.43-.48 5.8a5.11 5.11 0 01-1.8 3.07c-.86.64-2.13.98-3.8 1a.55.55 0 01-.39-.17.55.55 0 01-.17-.4v-2.44c0-.3.18-.5.55-.57.77-.13 1.32-.78 1.64-1.94.32-1.16.48-2.78.48-4.88v-4.45c0-.16.05-.29.16-.4.11-.1.25-.15.41-.15h10.89c.16 0 .3.06.4.18.11.1.17.23.17.4v14.28a.5.5 0 01-.18.4c-.1.1-.23.15-.39.15h-3zM133.39 51.38a.61.61 0 01-.42-.16.54.54 0 01-.15-.4v-2.2c0-.16.05-.29.15-.4.12-.1.26-.14.42-.14h6.9c.16 0 .3.05.4.15.1.1.15.23.15.4v2.2c0 .14-.05.27-.16.4-.1.1-.23.15-.39.15h-6.9zM144 56.33a.53.53 0 01-.39-.16.53.53 0 01-.15-.4V41.5c0-.17.05-.3.15-.4a.5.5 0 01.4-.18h12.29c.16 0 .29.06.4.18.1.1.17.23.17.4v14.28a.5.5 0 01-.18.4c-.1.1-.23.15-.4.15h-2.97a.61.61 0 01-.42-.16.54.54 0 01-.15-.4V44.6h-5.17v11.18a.5.5 0 01-.18.4c-.1.1-.23.15-.4.15h-3zM159 56.33a.5.5 0 01-.34-.13.5.5 0 01-.13-.33l.02-.2 5.1-14.1c.16-.43.45-.65.88-.65h3.42c.44 0 .73.22.88.64l5.1 14.1c.02.05.03.12.03.2 0 .12-.06.23-.16.34a.42.42 0 01-.3.13h-2.85a.76.76 0 01-.75-.49l-.79-2.13h-5.74l-.78 2.13a.76.76 0 01-.75.49H159zm5.3-5.92h3.9l-1.96-5.61-1.95 5.6zM176.16 56.33a.58.58 0 01-.4-.16.58.58 0 01-.15-.4V41.5c0-.17.05-.3.16-.4a.5.5 0 01.4-.18h6.2c1.89 0 3.38.44 4.46 1.3 1.08.87 1.62 2.14 1.62 3.8 0 1.68-.54 2.94-1.62 3.77-1.08.82-2.57 1.23-4.47 1.23h-2.5v4.76c0 .14-.05.28-.15.4-.1.1-.23.15-.4.15h-3.15zm6.1-8.45a2 2 0 001.4-.47c.34-.32.52-.79.52-1.4 0-.58-.16-1.04-.48-1.39-.3-.35-.79-.53-1.45-.53h-2.45v3.79h2.45zM203.93 55.58a.4.4 0 01.07.24c0 .15-.05.27-.15.38a.45.45 0 01-.33.13h-3.46a.81.81 0 01-.77-.44l-3.26-5.5h-1.43v5.39a.5.5 0 01-.17.4c-.1.1-.24.15-.4.15h-3a.53.53 0 01-.4-.16.54.54 0 01-.15-.4V41.5c0-.17.05-.3.16-.4a.5.5 0 01.4-.18h3c.15 0 .28.06.39.18.11.1.17.23.17.4v5.21h1.23l3.15-5.35c.2-.29.47-.44.84-.44h3.35c.13 0 .24.05.33.14.08.08.13.2.13.33 0 .1-.03.19-.09.26l-4.05 6.69 4.44 7.24zM11.52 67.1c-.8 0-1.4-.21-1.81-.64a2.67 2.67 0 01-.67-1.8 24.29 24.29 0 010-1.6c.03-.75.25-1.34.67-1.77.41-.44 1.02-.66 1.81-.66.53 0 .98.1 1.35.29a2.02 2.02 0 011.15 1.72c0 .05-.02.1-.06.13a.2.2 0 01-.14.05h-.44a.22.22 0 01-.15-.05.28.28 0 01-.08-.15c-.1-.46-.28-.79-.55-.97a1.83 1.83 0 00-1.08-.28c-1.04 0-1.58.58-1.62 1.74a22.39 22.39 0 000 1.51c.04 1.16.58 1.74 1.62 1.74.45 0 .8-.1 1.08-.28.27-.19.45-.5.55-.96a.28.28 0 01.08-.16.22.22 0 01.15-.04h.44c.06 0 .1.02.14.05.04.03.06.08.06.13a2.02 2.02 0 01-1.15 1.73c-.37.18-.82.28-1.35.28zM15.44 67.02a.2.2 0 01-.15-.06.23.23 0 01-.05-.15v-5.87c0-.07.02-.12.05-.16a.18.18 0 01.15-.06h4.4c.06 0 .1.02.14.06.04.04.07.09.07.16v5.87a.2.2 0 01-.07.15.23.23 0 01-.15.06h-.43a.23.23 0 01-.15-.06.23.23 0 01-.05-.15v-5.3h-3.12v5.3a.2.2 0 01-.06.15.23.23 0 01-.15.06h-.43zM23.85 67.1a2.5 2.5 0 01-1.8-.6c-.42-.42-.65-1.04-.67-1.87a24.55 24.55 0 010-1.52c.02-.81.25-1.43.69-1.85a2.48 2.48 0 011.78-.63c.75 0 1.34.21 1.77.63.44.42.67 1.04.7 1.85a24.6 24.6 0 010 1.52c-.03.83-.26 1.45-.68 1.86-.42.41-1.01.62-1.79.62zm0-.74c.48 0 .86-.15 1.15-.43.28-.3.44-.74.46-1.34a26.83 26.83 0 000-1.44c-.02-.6-.18-1.05-.46-1.34-.3-.3-.67-.44-1.15-.44-.48 0-.86.14-1.16.44-.28.3-.43.74-.45 1.34a22.13 22.13 0 000 1.44c.02.6.17 1.04.45 1.34.3.28.68.43 1.16.43zM27.85 67.02a.2.2 0 01-.14-.06.23.23 0 01-.06-.15v-5.87c0-.07.02-.12.06-.16a.18.18 0 01.14-.06h2.26c.68 0 1.2.17 1.59.5.39.32.58.8.58 1.42 0 .62-.2 1.1-.58 1.42-.38.32-.91.48-1.59.48h-1.6v2.27a.2.2 0 01-.07.15.2.2 0 01-.14.06h-.45zm2.22-3.2c.9 0 1.35-.4 1.35-1.18 0-.39-.11-.68-.34-.89-.22-.2-.56-.3-1.01-.3H28.5v2.36h1.57zM34.96 67.02a.23.23 0 01-.15-.06.23.23 0 01-.05-.15v-5.32h-1.73a.23.23 0 01-.15-.05.23.23 0 01-.06-.15v-.35c0-.07.02-.12.06-.16a.2.2 0 01.15-.06h4.3c.06 0 .11.02.15.06.03.04.05.09.05.16v.35a.2.2 0 01-.06.15.2.2 0 01-.14.05H35.6v5.32a.2.2 0 01-.06.15.23.23 0 01-.16.06h-.43zM38.75 67.02a.2.2 0 01-.14-.06.24.24 0 01-.06-.16v-5.86c0-.07.02-.12.06-.16a.19.19 0 01.15-.06h.43c.06 0 .1.02.14.06a.2.2 0 01.07.16v4.7l3.37-4.8a.23.23 0 01.22-.12h.42c.06 0 .1.02.14.06a.2.2 0 01.06.16v5.87a.2.2 0 01-.06.15.2.2 0 01-.14.06h-.43a.23.23 0 01-.16-.06.2.2 0 01-.06-.15v-4.66l-3.36 4.74a.23.23 0 01-.22.13h-.43zM45.38 67.02a.2.2 0 01-.14-.06.23.23 0 01-.06-.15v-5.87c0-.07.02-.12.06-.16a.18.18 0 01.14-.06h2.44c.63 0 1.11.15 1.43.46.33.3.49.7.49 1.2 0 .33-.08.61-.23.84-.16.22-.34.38-.55.49.26.12.47.32.64.58.18.26.26.57.26.9 0 .34-.07.65-.23.93-.15.27-.37.5-.67.65-.3.16-.65.25-1.07.25h-2.51zm2.3-3.63c.4 0 .7-.09.9-.26.2-.18.3-.43.3-.75 0-.3-.1-.54-.3-.7-.2-.17-.5-.25-.9-.25h-1.66v1.96h1.67zm.1 2.91c.38 0 .68-.1.9-.3.21-.21.32-.48.32-.8 0-.33-.1-.6-.33-.8-.21-.2-.51-.3-.9-.3h-1.75v2.2h1.76zM51.35 67.02a.2.2 0 01-.14-.06.23.23 0 01-.06-.15v-5.87c0-.07.02-.12.06-.16a.18.18 0 01.14-.06h.43c.06 0 .12.02.15.06a.2.2 0 01.06.16v2.5h3.12v-2.5c0-.07.02-.12.05-.16a.2.2 0 01.16-.06h.43c.06 0 .11.02.15.06a.2.2 0 01.06.16v5.87a.2.2 0 01-.06.15.23.23 0 01-.15.06h-.43a.22.22 0 01-.16-.06.23.23 0 01-.05-.15v-2.6h-3.12v2.6a.2.2 0 01-.06.15.23.23 0 01-.15.06h-.43zM59.76 67.1c-.77 0-1.37-.2-1.8-.6-.42-.42-.64-1.04-.67-1.87a24.94 24.94 0 010-1.52c.03-.81.26-1.43.7-1.85a2.48 2.48 0 011.77-.63c.75 0 1.34.21 1.78.63.43.42.66 1.04.69 1.85a24.94 24.94 0 010 1.52c-.03.83-.25 1.45-.68 1.86-.41.41-1.01.62-1.79.62zm0-.74c.48 0 .86-.15 1.15-.43.29-.3.44-.74.47-1.34a26.83 26.83 0 000-1.44c-.03-.6-.18-1.05-.47-1.34-.29-.3-.67-.44-1.15-.44-.47 0-.86.14-1.15.44-.29.3-.44.74-.46 1.34a22.13 22.13 0 000 1.44c.02.6.17 1.04.46 1.34.29.28.67.43 1.15.43zM65.97 67.02a.2.2 0 01-.15-.06.23.23 0 01-.05-.15v-5.87c0-.07.02-.12.05-.16a.18.18 0 01.15-.06h2.26c.68 0 1.2.17 1.59.5.38.32.58.8.58 1.42 0 .62-.2 1.1-.58 1.42-.39.32-.91.48-1.59.48h-1.6v2.27a.2.2 0 01-.07.15.2.2 0 01-.15.06h-.44zm2.22-3.2c.9 0 1.35-.4 1.35-1.18 0-.39-.11-.68-.34-.89-.22-.2-.56-.3-1.01-.3h-1.57v2.36h1.57zM71.08 67.02a.17.17 0 01-.13-.06.17.17 0 01-.05-.12l.01-.1 2.22-5.82c.05-.13.15-.2.3-.2h.56c.15 0 .24.07.29.2l2.22 5.82.02.1c0 .04-.02.09-.06.12a.17.17 0 01-.13.06h-.42a.25.25 0 01-.15-.05.28.28 0 01-.07-.1l-.5-1.3h-2.97l-.5 1.3c-.04.1-.11.15-.21.15h-.43zm1.4-2.2h2.45l-1.22-3.23-1.23 3.23zM79.36 67.1a3.2 3.2 0 01-1.21-.2c-.34-.15-.6-.34-.78-.58-.19-.24-.3-.5-.32-.8v-.02c0-.05.01-.1.05-.12a.2.2 0 01.13-.05h.42c.06 0 .12.02.16.05.04.02.07.07.1.15.07.26.23.46.47.61.25.15.57.23.97.23.43 0 .79-.1 1.08-.3.3-.22.45-.5.45-.84a.99.99 0 00-.39-.82c-.25-.2-.6-.3-1.04-.3h-.65a.2.2 0 01-.14-.05.24.24 0 01-.06-.17v-.28c0-.07.02-.12.06-.16a.18.18 0 01.14-.06h.61c.39 0 .7-.08.92-.25.23-.17.34-.44.34-.78 0-.3-.12-.53-.37-.71a1.5 1.5 0 00-.93-.28c-.38 0-.7.07-.94.2a.91.91 0 00-.45.65c-.03.12-.1.18-.22.18h-.44a.21.21 0 01-.14-.05.15.15 0 01-.05-.14c.04-.48.26-.86.64-1.15.39-.29.93-.43 1.61-.43.46 0 .84.08 1.17.23.32.16.56.37.72.62.17.26.25.54.25.83 0 .3-.05.57-.17.81-.11.24-.3.44-.54.59.3.15.54.36.7.63.15.27.23.57.23.91 0 .37-.1.7-.3.97-.19.28-.47.5-.83.65-.36.16-.78.24-1.25.24zM83.22 67.02a.2.2 0 01-.15-.06.23.23 0 01-.05-.15v-5.87c0-.07.02-.12.05-.16a.18.18 0 01.15-.06h2.44c.63 0 1.11.15 1.43.46.32.3.49.7.49 1.2a1.44 1.44 0 01-.78 1.33c.25.12.47.32.64.58.17.26.26.57.26.9 0 .34-.08.65-.23.93-.15.27-.37.5-.67.65-.3.16-.66.25-1.07.25h-2.51zm2.3-3.63c.4 0 .69-.09.9-.26.2-.18.3-.43.3-.75 0-.3-.1-.54-.3-.7-.2-.17-.5-.25-.9-.25h-1.66v1.96h1.67zm.1 2.91c.38 0 .68-.1.89-.3.22-.21.33-.48.33-.8 0-.33-.1-.6-.33-.8-.21-.2-.51-.3-.9-.3h-1.75v2.2h1.76zM93.06 67.02a.2.2 0 01-.14-.06.23.23 0 01-.05-.15v-5.3H90.6v1.47c0 .96-.07 1.73-.2 2.3-.14.58-.36 1-.65 1.28-.29.27-.67.42-1.15.45a.18.18 0 01-.15-.06.24.24 0 01-.05-.16v-.37c0-.05.01-.1.04-.13a.2.2 0 01.15-.08c.38-.05.68-.34.88-.86.2-.53.3-1.35.3-2.48v-1.94c0-.07.02-.12.06-.16.04-.03.1-.05.15-.05h3.5c.07 0 .12.02.16.06a.2.2 0 01.06.16v5.87a.2.2 0 01-.06.15.23.23 0 01-.16.06h-.43zM95.47 67.02a.2.2 0 01-.14-.06.23.23 0 01-.05-.15v-5.87c0-.07.01-.12.05-.16a.18.18 0 01.14-.06h3.68c.07 0 .12.02.15.06a.2.2 0 01.07.16v.32c0 .06-.02.1-.07.14-.03.04-.08.06-.15.06H96.1v2h2.86c.06 0 .11.02.15.07a.2.2 0 01.06.15v.3a.2.2 0 01-.06.16c-.04.03-.09.05-.15.05H96.1v2.08h3.12c.07 0 .12.02.16.06a.2.2 0 01.06.15v.33a.2.2 0 01-.06.15.23.23 0 01-.16.06h-3.75zM105.24 66.7c.02.02.02.05.02.1 0 .06-.02.11-.06.15a.18.18 0 01-.14.07h-.47a.26.26 0 01-.23-.14l-1.73-2.66h-1.1v2.59a.2.2 0 01-.06.15.22.22 0 01-.15.06h-.43a.2.2 0 01-.14-.06.23.23 0 01-.05-.15v-5.87c0-.07.01-.12.05-.16a.18.18 0 01.14-.06h.43c.07 0 .12.02.16.06.04.04.06.09.06.16v2.5h1.03l1.6-2.58c.07-.1.17-.14.31-.14h.45c.06 0 .1.02.13.05.03.03.05.08.05.13 0 .03-.02.07-.05.12l-1.71 2.75 1.9 2.93zM105.97 67.02a.17.17 0 01-.13-.06.17.17 0 01-.05-.12l.02-.1 2.22-5.82c.04-.13.14-.2.28-.2h.58c.14 0 .23.07.28.2l2.22 5.82.02.1c0 .04-.02.09-.06.12a.17.17 0 01-.13.06h-.42a.25.25 0 01-.15-.05.28.28 0 01-.07-.1l-.5-1.3h-2.97l-.49 1.3c-.05.1-.12.15-.22.15h-.43zm1.4-2.2h2.45l-1.22-3.23-1.23 3.23zM113.95 67.02a.22.22 0 01-.15-.06.23.23 0 01-.05-.15v-5.32h-1.73a.23.23 0 01-.15-.05.23.23 0 01-.06-.15v-.35c0-.07.02-.12.06-.16a.2.2 0 01.15-.06h4.3c.06 0 .11.02.15.06.03.04.05.09.05.16v.35a.2.2 0 01-.06.15.2.2 0 01-.14.05h-1.72v5.32a.2.2 0 01-.07.15.23.23 0 01-.15.06h-.43zM117.74 67.02a.2.2 0 01-.14-.06.23.23 0 01-.06-.15v-5.87c0-.07.02-.12.06-.16a.18.18 0 01.14-.06h3.68c.06 0 .12.02.15.06.04.04.07.09.07.16v.32c0 .06-.03.1-.07.14a.2.2 0 01-.15.06h-3.05v2h2.85c.07 0 .12.02.16.07.04.03.06.08.06.15v.3a.2.2 0 01-.06.16.2.2 0 01-.16.05h-2.85v2.08h3.12c.07 0 .12.02.15.06.05.04.07.09.07.15v.33a.2.2 0 01-.07.15.22.22 0 01-.15.06h-3.75zM127.04 67.02a.2.2 0 01-.15-.06.23.23 0 01-.05-.15v-5.3h-2.26v1.47c0 .96-.06 1.73-.2 2.3-.14.58-.35 1-.65 1.28-.28.27-.67.42-1.14.45a.18.18 0 01-.16-.06.24.24 0 01-.05-.16v-.37c0-.05.02-.1.05-.13a.2.2 0 01.14-.08c.39-.05.68-.34.89-.86.2-.53.3-1.35.3-2.48v-1.94c0-.07.02-.12.05-.16.05-.03.1-.05.16-.05h3.5c.06 0 .11.02.15.06.04.04.06.09.06.16v5.87a.2.2 0 01-.06.15.23.23 0 01-.15.06h-.43zM129.45 67.02a.2.2 0 01-.15-.06.23.23 0 01-.05-.15v-5.88c0-.06.02-.11.05-.15a.18.18 0 01.15-.06h.43c.06 0 .11.02.15.06.04.04.06.09.06.15v2.2h1.39c.65 0 1.15.16 1.5.49.35.33.52.8.52 1.43 0 .34-.08.67-.23.97-.15.3-.38.54-.68.73-.3.18-.68.27-1.11.27h-2.03zm1.95-.73c.39 0 .69-.12.91-.34.22-.23.33-.54.33-.92 0-.79-.41-1.18-1.24-1.18h-1.3v2.44h1.3zM134.82 67.02a.2.2 0 01-.14-.06.23.23 0 01-.05-.15v-5.87c0-.07.01-.12.05-.16a.18.18 0 01.14-.06h.43c.07 0 .12.02.16.06.04.04.06.09.06.16v2.5h3.11v-2.5c0-.07.02-.12.06-.16a.2.2 0 01.15-.06h.43c.06 0 .12.02.15.06.04.04.06.09.06.16v5.87a.2.2 0 01-.06.15.23.23 0 01-.15.06h-.43a.22.22 0 01-.15-.06.23.23 0 01-.06-.15v-2.6h-3.11v2.6a.2.2 0 01-.06.15.22.22 0 01-.16.06h-.43zM141.2 67.02a.2.2 0 01-.15-.06.23.23 0 01-.05-.15v-5.88c0-.06.02-.11.05-.15a.18.18 0 01.15-.06h.43c.06 0 .11.02.15.06.04.04.06.09.06.15v2.2H143c.66 0 1.15.16 1.5.49.35.33.53.8.53 1.43 0 .34-.08.67-.24.97-.14.3-.37.54-.67.73-.3.18-.68.27-1.12.27h-1.8zm4.9 0a.2.2 0 01-.15-.06.23.23 0 01-.05-.15v-5.88c0-.06.01-.11.05-.15a.18.18 0 01.14-.06h.45c.07 0 .12.02.15.05.04.04.06.1.06.16v5.88a.2.2 0 01-.07.15.2.2 0 01-.14.06h-.45zm-3.18-.73c.4 0 .7-.12.92-.34.22-.23.33-.54.33-.92 0-.79-.42-1.18-1.25-1.18h-1.08v2.44h1.08zM148.51 67.02a.2.2 0 01-.14-.06.24.24 0 01-.05-.16v-5.86c0-.07.02-.12.05-.16a.19.19 0 01.15-.06h.43c.06 0 .11.02.15.06.04.04.06.09.06.16v4.7l3.37-4.8a.23.23 0 01.22-.12h.42c.06 0 .1.02.14.06.04.04.06.09.06.16v5.87a.2.2 0 01-.06.15.2.2 0 01-.14.06h-.43a.23.23 0 01-.15-.06.2.2 0 01-.06-.15v-4.66l-3.37 4.74a.23.23 0 01-.22.13h-.43zm2.3-6.66c-.5 0-.85-.1-1.06-.31-.21-.21-.31-.48-.31-.8 0-.05.01-.1.04-.12a.15.15 0 01.13-.06h.28c.06 0 .1.02.13.06.03.03.04.07.04.12 0 .37.25.56.75.56s.75-.19.75-.56c0-.05.01-.1.04-.12a.15.15 0 01.13-.06h.28c.06 0 .1.02.13.06.03.03.04.07.04.12 0 .32-.1.59-.3.8-.22.2-.57.31-1.06.31zM161.7 66.7l.01.1a.2.2 0 01-.06.15.18.18 0 01-.14.07h-.47a.26.26 0 01-.23-.14l-1.73-2.66h-1.1v2.59a.2.2 0 01-.05.15.23.23 0 01-.16.06h-.43a.2.2 0 01-.14-.06.23.23 0 01-.05-.15v-5.87c0-.07.01-.12.05-.16a.18.18 0 01.14-.06h.43c.07 0 .12.02.16.06.04.04.06.09.06.16v2.5h1.03l1.6-2.58c.07-.1.17-.14.31-.14h.45c.06 0 .1.02.14.05.03.03.04.08.04.13 0 .03-.01.07-.04.12l-1.72 2.75 1.9 2.93zM164.75 67.1c-.77 0-1.37-.2-1.8-.6-.42-.42-.64-1.04-.67-1.87a24.55 24.55 0 010-1.52c.03-.81.26-1.43.7-1.85a2.48 2.48 0 011.77-.63c.75 0 1.34.21 1.78.63.43.42.66 1.04.69 1.85a24.7 24.7 0 010 1.52c-.03.83-.25 1.45-.68 1.86-.41.41-1.01.62-1.79.62zm0-.74c.48 0 .86-.15 1.15-.43.28-.3.44-.74.46-1.34a26.98 26.98 0 000-1.44c-.02-.6-.18-1.05-.46-1.34-.29-.3-.67-.44-1.15-.44-.47 0-.86.14-1.15.44-.29.3-.44.74-.46 1.34a22.13 22.13 0 000 1.44c.02.6.17 1.04.46 1.34.28.28.67.43 1.15.43zM168.76 67.02a.22.22 0 01-.15-.06.23.23 0 01-.05-.15v-5.87c0-.07.01-.12.05-.16.03-.04.09-.06.15-.06h.42c.11 0 .19.05.23.14l1.9 3.67 1.93-3.67c.05-.1.12-.14.21-.14h.42c.07 0 .12.02.16.06.03.04.05.09.05.16v5.87a.2.2 0 01-.06.15.2.2 0 01-.15.06h-.4a.2.2 0 01-.15-.06.23.23 0 01-.06-.15v-4.47l-1.53 2.98c-.06.12-.15.18-.28.18h-.27c-.13 0-.22-.06-.29-.18l-1.52-2.98v4.47a.2.2 0 01-.06.15.2.2 0 01-.15.06h-.4zM175.85 67.02a.2.2 0 01-.14-.06.23.23 0 01-.06-.15v-5.87c0-.07.02-.12.06-.16a.18.18 0 01.14-.06h4.4a.2.2 0 01.15.06.2.2 0 01.06.16v5.87c0 .06-.02.1-.06.15a.23.23 0 01-.15.06h-.43a.23.23 0 01-.16-.06.23.23 0 01-.05-.15v-5.3h-3.11v5.3c0 .06-.03.1-.07.15a.23.23 0 01-.15.06h-.43zM186.1 67.02a.2.2 0 01-.14-.06.23.23 0 01-.06-.15v-5.3h-2.25v1.47c0 .96-.07 1.73-.2 2.3-.14.58-.36 1-.65 1.28-.29.27-.67.42-1.15.45a.18.18 0 01-.15-.06.24.24 0 01-.05-.16v-.37c0-.05.01-.1.04-.13a.2.2 0 01.14-.08c.4-.05.69-.34.9-.86.2-.53.3-1.35.3-2.48v-1.94c0-.07.01-.12.05-.16.04-.03.1-.05.15-.05h3.5c.07 0 .12.02.15.06.04.04.07.09.07.16v5.87a.2.2 0 01-.07.15.22.22 0 01-.15.06h-.43zM188.51 67.02a.2.2 0 01-.14-.06.23.23 0 01-.06-.15v-5.87c0-.07.02-.12.06-.16a.18.18 0 01.14-.06h3.68a.2.2 0 01.15.06.2.2 0 01.06.16v.32c0 .06-.02.1-.06.14-.03.04-.08.06-.15.06h-3.05v2h2.85a.2.2 0 01.16.07.2.2 0 01.06.15v.3c0 .06-.02.12-.06.16-.04.03-.1.05-.16.05h-2.85v2.08h3.12c.07 0 .12.02.15.06.05.04.07.09.07.15v.33a.2.2 0 01-.07.15.22.22 0 01-.15.06h-3.75zM198.28 66.7l.02.1a.2.2 0 01-.06.15.18.18 0 01-.15.07h-.46a.26.26 0 01-.23-.14l-1.73-2.66h-1.1v2.59a.2.2 0 01-.06.15.22.22 0 01-.15.06h-.43a.2.2 0 01-.14-.06.23.23 0 01-.06-.15v-5.87c0-.07.02-.12.06-.16a.18.18 0 01.14-.06h.43c.07 0 .12.02.15.06.05.04.07.09.07.16v2.5h1.02l1.6-2.58c.07-.1.18-.14.32-.14h.45c.06 0 .1.02.13.05.03.03.05.08.05.13 0 .03-.02.07-.05.12l-1.72 2.75 1.9 2.93zM201.34 67.1c-.8 0-1.4-.21-1.82-.64a2.66 2.66 0 01-.66-1.8 24.17 24.17 0 010-1.6c.03-.75.25-1.34.66-1.77.42-.44 1.03-.66 1.82-.66.53 0 .98.1 1.35.29a2.02 2.02 0 011.15 1.72c0 .05-.02.1-.06.13a.2.2 0 01-.14.05h-.45a.22.22 0 01-.14-.05c-.04-.03-.06-.08-.08-.15-.1-.46-.29-.79-.56-.97a1.83 1.83 0 00-1.07-.28c-1.04 0-1.58.58-1.62 1.74a22.25 22.25 0 000 1.51c.04 1.16.58 1.74 1.62 1.74.45 0 .8-.1 1.07-.28.27-.19.46-.5.56-.96.02-.07.04-.13.08-.16a.22.22 0 01.14-.04h.45c.06 0 .1.02.14.05.04.03.06.08.06.13a2.02 2.02 0 01-1.15 1.73c-.37.18-.82.28-1.35.28z"/><path fill="#FE5E41" d="M144 56.33a.53.53 0 01-.39-.16.53.53 0 01-.15-.4V41.5c0-.17.05-.3.15-.4a.5.5 0 01.4-.18h12.29c.16 0 .29.06.4.18.1.1.17.23.17.4v14.28a.5.5 0 01-.18.4c-.1.1-.23.15-.4.15h-2.97a.61.61 0 01-.42-.16.54.54 0 01-.15-.4V44.6h-5.17v11.18a.5.5 0 01-.18.4c-.1.1-.23.15-.4.15h-3zM159 56.33a.5.5 0 01-.34-.13.5.5 0 01-.13-.33l.02-.2 5.1-14.1c.16-.43.45-.65.88-.65h3.42c.44 0 .73.22.88.64l5.1 14.1c.02.05.03.12.03.2 0 .12-.06.23-.16.34a.42.42 0 01-.3.13h-2.85a.76.76 0 01-.75-.49l-.79-2.13h-5.74l-.78 2.13a.76.76 0 01-.75.49H159zm5.3-5.92h3.9l-1.96-5.61-1.95 5.6zM176.16 56.33a.58.58 0 01-.4-.16.58.58 0 01-.15-.4V41.5c0-.17.05-.3.16-.4a.5.5 0 01.4-.18h6.2c1.89 0 3.38.44 4.46 1.3 1.08.87 1.62 2.14 1.62 3.8 0 1.68-.54 2.94-1.62 3.77-1.08.82-2.57 1.23-4.47 1.23h-2.5v4.76c0 .14-.05.28-.15.4-.1.1-.23.15-.4.15h-3.15zm6.1-8.45a2 2 0 001.4-.47c.34-.32.52-.79.52-1.4 0-.58-.16-1.04-.48-1.39-.3-.35-.79-.53-1.45-.53h-2.45v3.79h2.45zM203.93 55.58a.4.4 0 01.07.24c0 .15-.05.27-.15.38a.45.45 0 01-.33.13h-3.46a.81.81 0 01-.77-.44l-3.26-5.5h-1.43v5.39a.5.5 0 01-.17.4c-.1.1-.24.15-.4.15h-3a.53.53 0 01-.4-.16.54.54 0 01-.15-.4V41.5c0-.17.05-.3.16-.4a.5.5 0 01.4-.18h3c.15 0 .28.06.39.18.11.1.17.23.17.4v5.21h1.23l3.15-5.35c.2-.29.47-.44.84-.44h3.35c.13 0 .24.05.33.14.08.08.13.2.13.33 0 .1-.03.19-.09.26l-4.05 6.69 4.44 7.24z"/><ellipse cx="47" cy="37.61" fill="#FE4D4D" rx="3" ry="2.5"/><path fill="url(#paint0_linear)" d="M0 1.56C0 .76.65.11 1.45.11h1.44v66.27c0 .4-.32.73-.72.73H.72a.73.73 0 01-.72-.73V1.56z"/><path fill="url(#paint1_linear)" d="M2.9.1l63.55 16.33c.73.17.73 1.23 0 1.41L2.89 33.16V.1z"/><path fill="#304477" d="M0 1.56C0 .76.67.11 1.5.11H3v66.27c0 .4-.34.73-.75.73H.75a.74.74 0 01-.75-.73V1.56z"/><defs><linearGradient id="paint0_linear" x1="7.9" x2="2.63" y1="1.11" y2="1.11" gradientUnits="userSpaceOnUse"><stop stop-color="#FE4C4C"/><stop offset="1" stop-color="#A41010"/></linearGradient><linearGradient id="paint1_linear" x1="7.9" x2="2.63" y1="1.11" y2="1.11" gradientUnits="userSpaceOnUse"><stop stop-color="#FE4C4C"/><stop offset="1" stop-color="#A41010"/></linearGradient></defs></svg>
