<svg xmlns="http://www.w3.org/2000/svg" fill="none" viewBox="0 0 59 61"><path fill="#FE4C4C" d="M28.8 1.2c-.23.29-.23.38-.1 1.19.13.94.11 1.2-.17 1.6-.16.25-.18.25-.95.24a9.37 9.37 0 01-2.54-.49c-.6-.19-.9-.25-1.6-.34l-.55-.05-.27.32c-.15.18-.27.45-.28.6 0 .45-.38 1.3-.67 1.51-.55.4-1.34.13-1.67-.58-.28-.57-.65-1.03-.87-1.07-.08 0-.25.05-.37.14-.23.18-.33 1.19-.17 1.85.06.26.02.49-.13.77-.21.4-.22.4-1.18.64-.88.2-1 .21-1.44.05-.9-.34-1.18-.51-1.67-1.05a1.89 1.89 0 00-1.03-.68c-.87-.22-.84.05.1.83.66.54 1.04 1.78.78 2.55a2.44 2.44 0 01-2.48 1.73c-.32-.01-.65 0-.73.06-.08.05-.15.4-.17.78-.01.37-.08.78-.14.9-.14.25-.6.38-1.45.43-.4 0-.76.1-1.22.3-.73.31-.87.44-.92.84-.03.3.34.94.78 1.34.13.13.3.35.37.5.12.24.09.36-.24.88-.5.8-1.15 1.41-1.5 1.41-.14 0-.86-.37-1.6-.82a5.61 5.61 0 00-1.66-.8.88.88 0 01-.46-.13c-.24-.17-.33 0-.23.44.05.24.2.46.36.59.35.27.38.28.94.53 1.3.56 1.48.7 1.82 1.3.6 1.02.44 1.42-.66 1.68-.86.2-1.08.39-.98.83.08.4.47 1.11.63 1.17.07.01.23.18.36.36.21.29.23.35.07.88-.22.84-.33.95-1.08 1.14-.7.18-.93.16-2.21-.2-.74-.2-1.05-.19-1.35 0-.45.32.43 1.08 1.17 1.02.85-.06 2.06.1 2.39.32.37.24.58.65.59 1.09.02.65-1.12 1.05-1.97.7-.29-.12-1.5-.3-1.7-.26-.25.06.12.43 1.01 1 1.16.73 1.64 1.14 1.85 1.58.24.48.23 1.14-.02 1.6-.22.4-.24.42-.56.34a3.26 3.26 0 00-1.32.14l-1 .24.12.31c.1.3.15.32 1.1.4.55.05 1.1.15 1.22.21.31.17.63.82.68 1.38.04.41-.03.58-.5 1.32-.6.9-.62 1.02-.2 1.9.16.3.24.65.28 1.15.08 1 .17 1.1 1.06.98.86-.1 1.13.04 1.27.66.11.47.12 1.1.02 1.65-.04.18.02 1.04.1 1.9.2 1.75.23 1.8.95 1.82a6.99 6.99 0 012.44.29c.06-.02.48.2.91.47.67.4.88.6 1.27 1.2.54.82.9 1.75.83 2.2-.02.16-.23.46-.47.7-1.14 1.05-1.5 1.6-1.38 2.1.1.42.35.42 2.07-.02 1.55-.4 1.64-.4 2-.26.54.23 1.46 1.45 2.04 2.68.19.41.34.6.54.68.27.09.32.08.65-.22.57-.48 1.91-.77 3.01-.64 1.04.14 1.59.31 1.98.64.28.25.3.28.22.58a6.5 6.5 0 00-.24 2.03c.05.2.18.35.39.45l.32.15.28-.35c.16-.2.28-.39.27-.43 0-.05.07-.25.16-.45.23-.45.79-.72 1.36-.67.57.05.78.26 1.09 1.07.62 1.6.93 2.05 1.34 1.86.18-.07.26-.21.28-.47.08-.86 1.6-2.62 2.25-2.61.55 0 2.12 1.31 2.66 2.22.12.2.37.44.54.52.38.2.36.2 1.13-1.05.58-.97 1.06-1.37 1.63-1.36.48 0 .75.25.99.91.25.72.55.96 1 .86.39-.1.45-.26.38-.97-.12-1.19 0-1.33 1.5-1.91.6-.24 1.18-.53 1.3-.65.35-.38.88-.46 1.24-.2.17.13.33.31.35.41.03.1.12.25.23.35.1.09.26.31.34.49.19.38.86.79 1.19.71.2-.04.22-.1.15-.39-.04-.18-.15-.38-.23-.43a1.4 1.4 0 01-.27-.57c-.1-.38-.08-.51.08-.72.23-.31.71-.44 1.4-.37.73.06.97-.09.95-.59-.03-.45.24-1.28.44-1.33.07-.01.17-.1.22-.21.17-.35.55-.32 1.27.13.39.24.8.41.9.39.12-.03.38-.33.59-.68.37-.61.44-.84.78-2.5.14-.66.26-.93.44-1.06.37-.25.94-.23 1.39.07.75.48 1.24.78 1.49.92.3.15.86.03 1.11-.25.2-.22.19-.57-.03-.64-.06-.02-.25-.2-.41-.4-.26-.3-.36-.34-.62-.28-.45.1-1.5-.36-1.76-.8-.33-.52.43-1.27 1.63-1.62.35-.1.67-.24.71-.3.04-.07.02-.46-.04-.88-.1-.67-.09-.8.13-1.14.4-.58.7-.67 1.31-.38.82.39 1.17.5 1.15.33-.04-.28-.15-.46-.76-1.17-.55-.65-.61-.77-.55-1.02l.17-.61c.12-.51.35-.86.74-1.2.43-.39.65-.44 1.45-.36 1.69.18 2.07-.6.5-1-.83-.23-1.1-.5-1.01-1.06.04-.28.6-1.1.76-1.15.04 0 .34-.22.66-.47.32-.26.6-.48.64-.49.03 0 .18-.16.32-.36l.28-.36-.57-.68a7.95 7.95 0 01-1.38-2.34c-.27-.76-.1-1.7.41-2.35.23-.3.47-.54.53-.55.07-.02.35.02.62.07.28.06.7.05.95 0 .39-.1.46-.16.51-.4.12-.56-.52-1.01-1.2-.86-.3.07-1.47-.18-1.72-.38-.28-.2-.56-1.14-.5-1.61.02-.15-.03-.81-.12-1.48-.1-.67-.15-1.43-.13-1.7.01-.28 0-.87-.04-1.3-.03-.44-.04-1-.01-1.22.04-.24.01-.6-.03-.82-.11-.47-.7-.87-1.88-1.33-1.06-.4-1.57-.8-1.7-1.38-.15-.64.1-1 1.03-1.38.74-.31 1-.61.9-1.03-.07-.3-.15-.36-.6-.5a3.33 3.33 0 00-1.03-.1c-.66.05-1.73-.2-2.04-.48a1.74 1.74 0 01-.36-.76c-.14-.61-.03-.92.45-1.33.58-.5.75-.94.5-1.31-.15-.22-.96 0-1.14.3-.22.4-.99 1.01-1.35 1.1-.45.1-1.4-.34-1.97-.92-.38-.4-.42-.49-.7-1.61-.22-.95-.25-1.27-.17-1.62.16-.67.04-.69-1.58-.28l-1.37.36-.25-.3a3.21 3.21 0 00-.69-.57c-.24-.15-.98-.7-1.64-1.21-1.35-1.07-2.93-1.9-3.3-1.77-.13.04-.34.18-.48.3a2.9 2.9 0 01-1.06.4 3.8 3.8 0 01-2.97-.44c-.73-.42-.83-.61-.8-1.38.03-.53-.12-.73-.48-.65-.26.06-.32.16-.47.84-.2.86-.32.99-1.26 1.2-1.14.28-1.43.06-1.93-1.42-.32-.94-.6-1.45-.74-1.42-.05.01-.19.16-.32.33z"/></svg>
