<svg xmlns="http://www.w3.org/2000/svg" fill="none" viewBox="0 0 371 178"><path fill="#3C72FF" d="M202.42 15.84a22.1 22.1 0 014.96 2.28c1.8 1.23 2.16 1.3 2.57.7.5-.77 4.65-.67 4.6.09-.1 1.16 2.44 2.26 6.54 2.86 8.26 1.18 3.94 2.7-5.52 1.96-5.3-.42-7.63-.06-9 1.37-.64.67-.6.72.48.8.67.06 1.33.33 1.48.66.2.33.47.35.95.03.38-.29 1.1-.32 1.63-.1.96.35.93.75-.1 3.6-.3.84-2.37.9-16.05.37-7.92-.34-18.05-.05-22.11.53-2.38.4-1.3.53 12.66 1.98 17.77 1.84 20.51 2.06 35.06 2.97l10.87.67 2.37 1.49c2.92 1.8 4.53 1.98 9.1.8 3.26-.83 3.85-.87 6.74-.2 1.72.4 5.69 1.08 8.81 1.5 4.92.66 5.71.86 5.83 1.63.13.64.48.8 1.58.67.77-.08 2.91.22 4.77.69l3.41.85-.17 1.6c-.15 1.3-.35 1.56-1.2 1.5-1.21-.06-1.85.62-.94 1.05.35.16.73 1.1.84 2 .28 2.69 1.47 1.97 1.7-1.04.14-1.74 1.08-2.17 1.92-.84.36.57 1.9 1.64 3.43 2.34 1.65.81 2.89 1.72 3.1 2.37.34.93.43.98 2.1.43 1.99-.7 6.14-.1 9.37 1.28 1.14.49 3.38 1.3 4.96 1.78l2.91.9.09-1.12c.12-1.57 1-1.81 1.43-.38.7 2.45 3.65 2.32 4.84-.16.43-.92.76-1.03 2.5-.76 1.56.22 1.99.47 2.02 1.24.2 2.18.36 2.33 1.56 1.43 1.73-1.3 2.82-1.44 5.82-.58 2.6.7 3.06.7 7.15-.3 6.86-1.72 7.18-1.74 9.45-.16a8.6 8.6 0 003.63 1.5c.94.07 4.1.68 7.07 1.27 2.98.64 7.12 1.33 9.27 1.54 2.69.25 4.1.59 4.65 1.13.46.49 1.79.86 3.58 1.05 1.57.12 2.82.3 2.8.4 0 .08-.74.39-1.67.68-1.25.4-3.73.38-9.3-.05-8.11-.64-10.3-.36-11.48 1.5-.78 1.28-.24 1.91.7.81.7-.84.74-.84 1.66.13 1.05 1.08 4 1.44 9.2 1.17 2.86-.18 3-.12 2.92.86-.06.76.48 1.3 2.35 2.3l2.46 1.33-.49 3.43c-.65 4.33-1.5 5.34-1.2 1.4.24-2.96-.02-3.66-1.32-3.26-.6.18-.67.49-.38 1.5.38 1.38-.16 4.32-.79 4.27-.22-.02-.44-1.34-.5-2.93a21.05 21.05 0 00-.24-3.17c-.42-.44-2.68.2-2.73.82-.02.32.46 1.12 1.08 1.8 1.54 1.7 1.26 2.31-1.05 2.45-2.85.13-5.27 2.74-2.71 2.94 1.44.11 2.34 1.8 1.41 2.73-.3.38-1.35.57-2.3.5l-1.7-.14-.03 2.17c.04 2.4.62 2.48.8.15l.11-1.48 3.63.42c2.41.28 3.63.24 3.66-.08.02-.27-.18-.55-.54-.63l-1.02-.21c-1.69-.36-2.07-1.83-.45-1.75.58.04 1.93-.48 2.98-1.17 2.19-1.4 3.23-1.55 3.15-.47-.03.4-.37.69-.73.66a.71.71 0 00-.77.66c-.07.9.6.95 2.1.12 1.52-.83 2-.02 1.04 1.8-.8 1.56-1.9 1.92-3.56 1.12l-1.27-.55-.03 2.7c-.1 2.39.01 2.76.94 2.97 1.2.22 1.25.86.22 2.45-.46.68-.6 1.4-.42 1.86.35.75.12.78-2.55.3-.27-.02-.24-.92.02-1.99.4-1.59.33-1.87-.27-1.69-.37.11-2.37.23-4.4.25-4.74.03-7.47.95-8.71 2.93l-.93 1.5-.22-1.23c-.15-1.05-.23-1.06-.6-.32-.23.48-.65.72-1.08.5-.79-.38-1.95 1.2-1.62 2.22.14.5.75.74 1.88.74 1.04.03 1.83.27 2.07.7.27.56.78.38 2.41-.9 2.31-1.8 3.45-1.9 4.55-.4 1.07 1.34.19 2.22-1.28 1.3-.81-.52-1.13-.55-1.48-.04-1.46 1.88.37 2.79 5.4 2.55 2.94-.13 3.65-.03 4.59.72.94.7 1.05 1.03.58 1.76-.35.51-.5 1.31-.41 1.81.38 1.48-3.01 2.16-11.46 2.22-8.08.05-10.87.5-13.63 2.32l-1.75 1.13 2.22 1.03c2 .92 3.76 2.69 3.68 3.63-.01.22-.91.15-2.02-.07a9.46 9.46 0 00-3.93 0l-1.84.45 2.42.82c1.27.46 3.58 1.54 5.09 2.47 3.01 1.82 3.45 3.16 1.58 4.64-1.4 1.02-5.27.36-15.9-2.69-6.58-1.9-8.93-2.4-12.22-2.53-2.25-.08-4.29-.02-4.43.15-.2.17-.2.89 0 1.67.21.74.42.98.5.58.05-.67.32-.7 1.9-.16 1.63.57 1.84.81 1.75 1.98-.12 1.52.09 1.72 2 2.1 1.24.23 1.43.1 1.66-1.1.23-1.2.28-1.23.8-.42.48.84.7.86 2.59.42 1.89-.48 2.11-.46 2.63.43.48.8.46 1.03-.27 1.7-.44.46-1.46.74-2.18.68-.76-.06-1.35.03-1.36.12 0 .14.13 1.32.3 2.64.4 2.88 1.3 2.86 1.08 0-.12-1.37 0-1.85.34-1.56.81.61 2.33-.35 3.04-1.88.38-.87.82-1.33 1.17-1.13 1.43.7 3.99 1.53 6.03 1.97 2.13.43 2.17.48 1.8 1.8-.44 1.64-.05 1.76 1.54.53.63-.54 1.41-.8 1.85-.58.91.44.85 1.29-.14 1.21-.63-.05-.75.3-.67 1.57.2 2-.46 3.04-1.38 2.15a19.51 19.51 0 00-3.46-1.98l-2.83-1.35.24 1.05c.43 1.98 2.08 3.42 4.48 3.87a7.2 7.2 0 013.53 1.63c1.59 1.57 3.35 2.16 4.53 1.53.75-.4 1.05-.23 1.83.77.74 1 1.13 1.17 2.1.89 1.76-.54 1.93-.44 2.42 1.4.2.92.59 1.68.81 1.7.27.01.5-.69.58-1.59.13-1.74.56-1.94 2.02-1.01 1.07.67 2.22 3.33 1.79 4.2-.22.52-.54.54-1.18.09-.56-.32-1-.4-1.2-.14-.36.51 1.05 1.53 2.17 1.61.8.07 1.32 2.1.83 3.18-.53 1.04-1.68.73-2.47-.69-.47-.9-.82-1.1-1.07-.71-.3.38-.87.06-2-1.1-1.33-1.37-5.57-4.32-6.29-4.38-.09 0-.43.96-.7 2.11-.42 1.86-.36 2.32.54 3.43 1.48 1.87 2.18 2.2 6.4 3.07 4 .8 5.65 1.57 6.92 3.25.66.82.68 1.67.32 5.08-.42 3.7-.36 4.16.45 4.72.47.31.9.62.94.62.05 0 .16.91.25 2l.16 2.05-2.1-.17c-1.18-.09-2.27 0-2.42.22-.15.21.69 1.63 1.83 3.12 1.2 1.5 2.13 2.87 2.11 3.05 0 .63-2.24 1.59-3.5 1.49a7.51 7.51 0 01-4.78-2.31c-.7-.78-1.32-1.01-2.37-.87-1 .15-2.68-.34-5.65-1.61-2.75-1.2-4.65-1.76-5.56-1.65-1.14.13-1.66-.18-2.69-1.39-1.57-1.83-3.59-2.03-4.52-.44l-.63 1.03-1.48-1.28c-1.64-1.44-3.2-1.83-3.27-.8-.08.99-1.22 1.17-3.06.48-1.5-.56-1.61-.75-1.5-2.28.05-1.13-.1-1.59-.51-1.48-.32.06-.54.59-.54 1.13.08.68-.26 1.01-1.18 1.17-2 .34-3.08-.33-2.67-1.56.3-.97.22-1.07-.88-.93-.9.11-1.47-.16-1.87-.82-.53-.81-.62-.82-.67-.1-.04.4.1.91.36 1.11.26.16.46.53.4.75-.06.72-3 .31-4.07-.58-.63-.55-2.67-.98-6.97-1.45-3.3-.4-10.21-1.56-15.36-2.64-10.89-2.2-51.65-9.59-64.26-11.65-10.17-1.6-22.36-3.2-42.45-5.48-15.26-1.7-33.13-4.03-73.64-9.5-29.16-3.94-41.22-5.52-56.43-7.25-6.3-.71-11.54-1.4-11.66-1.54a7.47 7.47 0 01-.33-2.19c-.1-1.59-.3-1.92-1.45-2.23-1.5-.44-2.12-1.66-1.32-2.68.25-.38 1.88-1.02 3.54-1.44 1.7-.4 3.06-.98 3.12-1.24.07-.8-2.07-1.79-4.36-1.97-1.52-.11-2.22-.4-2.2-.8.08-.94 1.18-1.67 2.39-1.57.63.05 1-.15.84-.43-.11-.24-.81-.52-1.49-.57-2.06-.16-4.77-1.32-5.02-2.1-.1-.42.12-1.58.47-2.54.96-2.45 2.59-3.1 7.25-2.73 2.16.12 4.15 0 4.85-.3 1.08-.46.55-.59-4.46-1.16-4.88-.56-5.94-.82-8.1-2.12a17.4 17.4 0 01-3.7-2.95l-1.23-1.5 1.97-.38c3.75-.7 7.1-.8 14.8-.47 8.54.35 13.21.08 14.63-.8.81-.52.73-.66-1.17-1.72-2.51-1.36-7.75-1.9-13.62-1.33-6.27.64-11.32.47-13.9-.45-1.24-.46-2.36-1.09-2.42-1.41-.24-1.06 4.75-2.47 9.32-2.7 9.65-.42 11.56-.63 13.94-1.58 2.6-.97 4.04-2.03 3.54-2.6-.17-.16-4.63-.28-9.96-.24-7.95.1-10.24-.04-12.85-.7-4.11-1.08-5.06-1.65-4.17-2.62 1.08-1.09 3.6-1.7 6.08-1.55 3.8.3 7.78-.88 7.9-2.32.02-.27-2.99-.55-7.67-.73-9.72-.31-10.02-.47-10.13-4.27-.06-1.58-.34-4.99-.63-7.54-.3-2.6-.56-6.18-.6-8.03-.07-3.62.13-3.92 3.27-5.39l1.5-.69-2.8.05-2.76.01-.97-2.65c-1.37-3.8-1.09-4.5 2.65-6.15 4.68-2.12 4.58-2.58-.76-2.9l-4.41-.21.02-1.99c0-1.71.26-2.14 2.06-3.85 1.16-1.04 2.1-2.05 2.11-2.23.01-.13-1.14-.4-2.53-.51-1.43-.11-2.67-.43-2.83-.72-.4-.7-.05-5.69.5-6.9.33-.8.26-1.07-.33-1.11-.45-.04-.68-.46-.63-1.18.08-.94.55-1.27 2.86-1.94 9.51-2.74 18.4-2.63 36.57.46 5.57.93 12.7 2.07 15.87 2.5 5.54.75 5.8.82 6.12 1.92.18.65.6 1.09.88.93.33-.2.27-.61-.22-1.24-.66-.86-.65-.9.4-1.1 2.79-.4 7.76-.52 9.22-.13.84.2 1.92.83 2.33 1.4.77 1 .77 1-.46.6-.84-.25-1.3-.2-1.5.24-.44.96-.01 1.22 2.28 1.4 1.88.14 2.07.07 2.44-1.21.57-2.08 1.2-2.08 1.86-.08.47 1.48.72 1.68 1.3 1.27.42-.28.76-1.16.82-1.88.13-1.65.5-1.72 7.64-1.34l5.35.24-.4 1.77c-.52 2 .36 2.87 1.96 2a3.97 3.97 0 011.88-.39c.58.05 1.16-.36 1.47-.97.44-.96 1.08-1.09 6.4-1.48 7.75-.53 13.06-.38 14.8.43l1.36.65-1.2.85c-1.1.77-1.23.76-1.98-.02-.75-.82-.85-.79-1.48.38-.57 1-.55 1.31-.04 1.71.34.26.96.4 1.38.25.41-.1 1.28-.26 1.97-.34.95-.11 1.35-.58 1.92-2.11l.7-1.98 4.82.06c2.66.03 7.78-.16 11.31-.38 3.54-.22 8.78-.21 11.65.01l5.16.36-1.4 1.2c-1.4 1.2-1.5 1.19-7.64.75-7.4-.53-7.4-.53-7.47.23-.1 1.3.9 1.83 2.3 1.22.98-.42 1.75-.4 2.89 0 2.28.86 7.3 1.16 12.53.7 2.6-.2 5.66-.18 6.9.05 1.7.31 2.47.24 3.23-.29.53-.4.97-.87.99-1.05 0-.13-1.27-.5-2.84-.72-3.6-.55-4.98-2.06-4.74-5.15.33-3.58-.17-3.53 15.15-2.65 10.96.63 14.23.97 16.6 1.7zm-6.4 7.49c-1.34.8-.48 2.53 1.51 3.05 1.73.45 5.67-.28 6-1.11.61-1.44-5.67-3.06-7.52-1.94zm-7.88-.3c-1.69.77-1.05 1.31 1.6 1.52 2.6.2 3.3-.24 1.85-1.2a3.52 3.52 0 00-3.45-.32zm-8.06-.32c-.52.37-.97.88-.99 1.1-.03.45 3.33.8 4.48.44.7-.22.7-.3.05-1.17-.9-1.15-2.34-1.3-3.54-.37zm-35.5.3c-.01.23.38.44.92.48.9.07 1.33-.85.75-1.52-.33-.39-1.62.41-1.66 1.04zm203.03 54.65c-.2.26.1 1.05.63 1.72 1.73 2.17 3.1 1.37 1.7-1-.72-1.18-1.73-1.48-2.33-.72zm-4.48.06c-.08 1.12.42 1.57 1.27 1.14.75-.4.33-1.92-.52-1.98-.36-.03-.7.35-.75.84zM341.1 91.6c-.08 1.03.8 1.32 2.33.8 2.05-.73 1.88-1.51-.38-1.46-1.18.04-1.92.3-1.95.66zm1.19 11.46c-.5 1.04-.06 1.3 1.67 1.03 1.47-.2 1.51-.24.75-.93-1.1-.95-2.04-.97-2.42-.1zm5.44.78c-.08 1.08.94 1.84 2.56 1.96 1.88.15 2.02-.52.39-1.6-1.55-1.01-2.89-1.16-2.95-.36zm-31.1 9.85c-.04.54 1.42.97 2.6.79 1.84-.36 1.4-1.07-.68-1.1-1.03-.03-1.9.13-1.92.3zm6.18 1.2c.92 1.02 6.7 2.1 6.23 1.12-.51-.94-2.09-1.56-4.6-1.76-2.2-.21-2.29-.18-1.63.64zM114.76 99.2c-.78.26-.79.35-.2.93.71.69 1.64.9 5.42 1.06 2.92.14 2.86-.23-.21-1.33-2.5-.87-3.71-1.05-5-.66zm15.8 3.45c-.02.27.4.57.98.7.76.15 1.09 0 1.13-.54.04-.54-.26-.74-1.03-.71-.59.04-1.06.28-1.08.55zm172.17 19.12c-.1 1.3 1 2.16 1.92 1.42.4-.38.34-.79-.24-1.51-1.06-1.4-1.56-1.34-1.68.1zm-259.82-19.6c-.2.3.32.52 1.27.55 1.25.1 1.4.01.61-.4-1.21-.64-1.48-.67-1.88-.16zm264.71 22.29c-.7.89-.57 2.12.35 3.14 1.15 1.4 1.3 1.31 1.48-.48.06-.8.32-1.82.57-2.16.3-.34.43-.83.35-1.01-.28-.47-2.25-.09-2.75.5zm3.88 6.43c-.02.32.34.84.85 1.24.77.56.9.53.96-.2.08-1.02-.78-2.13-1.34-1.81-.24.12-.45.46-.47.77zm-2.34-.67c-.05.67.8 1.82 1.39 1.86.22.02.4-.5.45-1.13.07-.9-.13-1.23-.85-1.29-.5-.04-.96.24-.99.56zm-20.8 0c-.06.71.05 1.62.25 1.95.47.94 1.12-.5.88-2-.28-1.6-1.06-1.53-1.13.05zm29.95 4.82c-.93 1.41-.79 1.97.45 1.7 1.38-.34 1.33-.26 1.1-1.45-.25-1.33-.83-1.42-1.55-.25zm3.21 1.6c-.09 1.12-.04 1.17.38.35.69-1.26.75-2.16.15-1.89-.24.16-.52.82-.53 1.54zm7.7 1.28c-.58.58-1.01 1.5-.97 2.09.12 2 1.37 1.05 2.26-1.77.53-1.53.17-1.6-1.28-.32zm-26.68-1.54c-.03.35.25.92.63 1.26.54.59.64.46.72-.57.06-.76-.13-1.28-.58-1.31-.4-.03-.74.26-.77.62zm19.24 2.72c-.22-.02-.52-.27-.63-.64-.15-.33-.2.26-.18 1.25.1 2.17.18 2.31 1.24 2 .83-.26 1.13-1.77.66-3.3-.25-.83-.25-.83-.49-.08-.12.44-.42.78-.6.77zm-23.09-1.99c-.05.68 1.14 1.58 1.58 1.16.15-.12.18-.57.03-.98-.28-1.02-1.53-1.16-1.6-.18zm34.54 2.79c-.66.36-.15 2.47.57 2.53.67.05 1.21-1.13.97-2.05-.25-.83-.7-.96-1.54-.48zm-13.3 7.94c.13 1.68-.02 1.94-1.9 3.37-1.77 1.35-3.21 3.63-2.67 4.22.08.14.99.07 1.95-.12 1.7-.32 1.8-.45 1.94-2.24.11-1.48.48-2.18 1.7-3.25 1.35-1.12 1.5-1.47 1.18-2.44-.27-.65-.86-1.2-1.4-1.24-.85-.06-.91.16-.8 1.7zm-3.54-.41c-.34.38-.52.9-.36 1.19.43.8 1.48.66 1.83-.3.52-1.46-.4-1.98-1.47-.9zm17.96 4.15c-.3.43-.44.92-.27 1.11.41.48 2.38-1.08 2.11-1.64-.31-.61-1.19-.36-1.84.53zm-32.31-2.97c-.03.36.2.87.49 1.21.29.34.8.65 1.12.68.76.05.89-.97.19-1.8-.66-.81-1.74-.85-1.8-.09zm21.65 3.04c-.76 1.07-.57 1.54.54 1.22.73-.21 1.2-2.12.53-2.17-.18-.01-.67.4-1.07.95zm-14.65-1.41c0 .13.5.49 1.11.76 1.35.65 1.41 2.19.2 3.4-.59.5-.78 1.2-.66 1.98.27 1.7.96 1.61 1.5-.2.25-.83.8-1.97 1.2-2.52.7-.94.67-1.12-.46-2.3-1.08-1.11-2.84-1.8-2.89-1.12zm-8.3 2.92c-.54.5-.87 1.2-.72 1.6.25.89.97.94 1.4.07.16-.39.6-.67.95-.64.67.05.98-.97.48-1.55-.5-.58-1.18-.45-2.12.52zm3.3 1.52c-.75.44-.42 1.95.44 2.02.31.02.92.93 1.28 2 .67 1.9 1.68 2.83 2.18 2.15.3-.39-.04-2.3-.7-4.39-.21-.65-.5-1.62-.6-2.08-.2-.87-.57-.8-2.6.3zm25.65 1.55c-.1.22-.47 1.45-.75 2.78-.42 1.86-.37 2.41.12 2.45.31.02 1.17.68 1.83 1.45.83.88 1.22 1.13 1.25.68.08-.94-1.45-3.9-2.03-3.95-.77-.06-.36-2.37.43-2.62.41-.1.75-.4.77-.62.04-.54-1.21-.68-1.62-.17zm-12.59 1.18c-.24.75-.06.85 1.2.73.83-.12 1.59.03 1.7.27.16.28.5.48.77.5.32.03.1-.53-.49-1.2-1.14-1.5-2.85-1.63-3.18-.3zm-22.68-1.4c-.33.78-.53 1.57-.36 1.77.37.43 1.68-1.31 1.75-2.3.11-1.35-.68-1.05-1.39.52zm29.67 3.25c.94.71 1.26.56 1.37-.75.09-1.2.09-1.2-.91-.47-.78.61-.89.92-.46 1.22zm-10.86-2.02c-.05.72 1.75 3.62 2.13 3.37.52-.23.21-1.56-.64-2.75-.66-.87-1.44-1.2-1.49-.62zm-16.65 1.1c-.07.98.44 2.51.8 2.54.5.04.7-1.98.29-2.5-.38-.44-1.1-.45-1.09-.04zm13.96 2.75c-.03.36.27 1.15.67 1.82l.68 1.13.77-1.2c.41-.65.65-1.4.5-1.68-.36-.7-2.57-.74-2.62-.06z"/></svg>
