<svg xmlns="http://www.w3.org/2000/svg" fill="none" viewBox="0 0 1911 419"><path fill="#3B72FF" d="M1002.61.52c-8.38.73-20.96 2.8-27.6 4.57-10.7 2.85-12.5 2.9-13.38.91-1.05-2.56-20.87-4.19-21.94-1.86-1.63 3.55-15.59 5.69-36.1 5.56-41.23-.26-23.46 6.3 22.71 8.47 25.82 1.2 36.22 3.37 40.21 8.3 1.84 2.33 1.56 2.45-3.7 2.2-3.28-.15-6.87.38-8.19 1.3-1.53.9-2.85.84-4.53-.35-1.31-1.04-4.69-1.48-7.57-1.06-5.19.6-5.75 1.83-5.9 10.9-.1 2.64 9.64 3.8 75.41 8.56 38.13 2.62 85.64 8.2 103.85 11.85 10.56 2.31 5.25 2.2-63.53.1-87.5-2.72-100.84-3.34-171.43-7.35l-52.7-3.03-13.86 3.4c-17.08 4.08-25.02 3.85-44.54-1.81-14.03-4.01-16.75-4.42-31.6-3.72-8.91.42-28.9.6-44.46.43-24.45-.31-28.58-.09-30.52 2.2-1.76 1.87-3.7 2.2-8.63 1.27-3.53-.59-14.23-.67-23.86-.14l-17.66.98-2.05 4.93c-1.6 3.98-1.11 4.84 3.05 5.03 5.84.42 7.68 2.74 2.58 3.61-1.94.33-5.38 2.96-7.52 5.65-6.12 7.96-10.46 5.24-6.24-3.92 2.46-5.33-1.23-7.04-7.59-3.43-2.72 1.55-11.92 4.05-20.4 5.47-9.26 1.66-16.74 3.82-18.93 5.67-3.23 2.64-3.73 2.76-10.66.34-8.22-3.04-28.94-3.17-46.7-.51-6.26.96-18.3 2.35-26.69 3.07l-15.38 1.38 1.57-3.42c2.2-4.78-1.51-5.94-6.09-1.82-7.71 7.04-21.43 5.27-22.66-2.74-.43-2.95-1.77-3.43-10.5-3.43-7.78-.08-10.28.5-11.79 2.8-4.77 6.48-5.83 6.85-9.92 3.59-5.86-4.75-10.8-5.68-26.56-4.46-13.6.9-15.73.66-33.38-4.22-29.45-8.36-30.92-8.57-44.47-4.88-6.7 1.92-15.49 3.05-19.86 2.84-4.6-.22-20.64.15-35.8.55-15.23.55-36.08.69-46.65.33-13.19-.48-20.5-.12-24.04 1.25-3.04 1.25-9.98 1.76-18.8 1.49-7.66-.36-13.9-.38-14.04-.1-.12.27 2.88 1.53 6.75 2.83 5.22 1.78 17 2.89 44.13 4.16 39.6 1.86 49.48 3.72 51.8 9.83 1.4 4.25-2.26 5.9-4.78 2.15-1.8-2.88-2.03-2.89-8.1-.38-6.85 2.75-21.49 2.48-45.7-.75-13.22-1.87-13.94-1.77-15.33 1.24-1.07 2.32-4.6 3.7-15.21 5.85l-14.05 2.83-3.75 10.57c-4.57 13.33-2.36 16.79 3.17 4.76 4.16-9.02 6.64-11 12.07-9.2 2.53.8 2.3 1.78-.83 4.7-4.3 3.99-6.92 13.08-3.85 13.22 1.1.05 4.45-3.84 7.53-8.58 3.14-4.88 6.18-9.06 6.81-9.45 2.76-1.13 12.34 1.83 11.46 3.75-.44.95-4.13 3.15-8.3 4.91-10.3 4.4-10.08 6.37.64 7.85 13.28 1.74 20.1 10.72 7.62 10.13-7-.33-14.3 4.36-11.52 7.56.74 1.29 5.4 2.35 10 2.56l8.3.4-3.67 6.52c-4.43 7.2-7.34 7.2-4.06.09l2.07-4.51-17.91-.42c-11.94-.28-17.66-.97-17.22-1.93.38-.82 1.85-1.59 3.66-1.64 1.6-.06 3.85-.1 5.22-.17 8.63-.3 13.05-4.56 5.24-5.06-2.84-.14-8.3-2.35-12.05-4.9-7.87-5.25-12.58-6.17-14.1-2.9-.56 1.24.53 2.27 2.28 2.35 1.97.1 3.06 1.12 2.5 2.35-1.26 2.73-4.55 2.58-10.23-.62-5.68-3.2-9.37-1-8.08 4.93 1.02 5.07 5.64 6.68 14.9 5.02l6.97-1.07-4.65 8.16c-3.77 7.23-4.93 8.29-9.72 8.48-6.1.14-7.41 2.03-5.36 7.3.96 2.27.39 4.48-1.33 5.8-2.98 2.09-1.95 2.27 11.56 2.07 1.3.06 2.79-2.66 3.42-5.98.96-4.98 1.77-5.78 4.3-4.97 1.56.5 10.81 1.77 20.4 2.78 22.42 2.3 33.75 6.33 36.11 12.86l1.73 4.97 3.24-3.62c2.54-3.1 2.98-3.07 3.44-.68.18 1.55 1.77 2.46 4.21 2.02 4.38-.78 7.08 4.52 3.73 7.43-1.57 1.46-4.88 1.87-10.23 1.34-4.97-.38-9.16-.02-11.04 1.15-2.28 1.57-4.38.77-9.86-3.81-7.74-6.5-12.96-7.31-20.82-3.35-7.45 3.56-4.83 6.61 3.74 4.5 4.79-1.17 6.32-1.1 7.1.62 3.57 6.3-6.69 8.2-30.1 5.15-13.71-1.76-17.28-1.8-23.04.03-5.7 1.69-6.79 2.62-5.89 5.03.78 1.71.08 4.2-1.27 5.67-4.42 4.26 10.45 7.89 50.36 12 38.23 3.88 50.63 6.56 60.49 13.3l6.33 4.2-12.35 2.08c-11.14 1.85-22.6 6.34-23.92 9.21-.31.68 4.06.89 9.72.73 6.16-.26 13.85.52 18.6 1.85l7.94 2.2-12.92 1.34c-6.85.8-19.7 2.99-28.5 5.09-17.52 4.06-21.97 7.9-15.7 13.22 4.77 3.72 24.31 3.52 80.13-.7 34.56-2.71 46.6-3.13 62.38-1.97 10.81.79 20.34 1.93 20.75 2.51.62.59-.6 2.76-2.99 5.03-2.32 2.12-3.73 2.75-3.38 1.51.95-2.05-.3-2.24-8.75-1.38-8.72.98-10.13 1.62-11.77 5.17-2.14 4.65-3.49 5.14-13.2 5.38-6.32.13-7.01-.33-5.97-4.05 1.05-3.72.89-3.86-3.02-1.68-3.76 2.34-4.86 2.3-13.01.1-8.1-2.34-9.18-2.4-13.23.07-3.7 2.2-4 2.88-1.73 5.22 1.28 1.6 5.59 2.92 9.09 3.08 3.72.18 6.37.72 6.25 1-.2.4-2.92 3.9-6.06 7.8-7.03 8.48-11.28 8-5.13-.51 2.99-4.05 3.24-5.57 1.11-4.83-4.91 1.44-10.4-2.17-11.04-7.09-.28-2.8-1.55-4.4-3.56-3.93-8.03 1.44-21.6 2.75-32.05 3.1-10.88.33-11.16.46-11.74 4.62-.8 5.13-2.9 5.3-8.22.87-2.03-1.91-5.3-3.04-7.75-2.6-5.1.88-6.3 3.48-1.48 3.7 3.06.15 3 1.26.36 5.04-4.52 5.94-3.19 9.35 2.76 7.12 2.2-.88 11.14-2.83 19.9-4.38l15.8-2.75-2.99 3.07c-5.55 5.75-15.9 9.31-28.1 9.58-7.2.08-14.51 1.41-19.61 3.27-10.33 3.98-19.71 4.94-24.18 2.5-2.87-1.54-4.59-1.2-10.07 1.47-5.26 2.69-7.42 3-11.5 1.7-7.38-2.44-8.38-2.21-13.96 3.11-2.57 2.67-5.77 4.76-6.86 4.7-1.32-.05-1.18-2.28.07-5.01 2.46-5.33.8-6.11-7.77-4-6.29 1.52-16.44 9-15.95 11.82.12 1.68 1.6 1.89 5.44.81 3.22-.69 5.47-.72 5.97.14.78 1.71-7.7 4.1-13.17 3.85-3.94-.18-10 5.68-9.6 9.19.68 3.38 6.68 2.96 12.95-.93 3.82-2.48 5.82-2.94 6.35-1.66.75 1.3 3.97.6 11.39-2.4 8.76-3.5 34.08-10.4 37.58-10.24.43.02.36 3.09-.4 6.68-1.33 5.8-2.4 7.15-8.66 10.07-10.33 4.96-14.21 5.61-35.75 6.28-20.39.58-29.59 2.1-38.57 6.56-4.57 2.16-6.2 4.74-10.55 15.15-4.57 11.37-5.64 12.72-10.49 14.03-2.78.7-5.35 1.42-5.57 1.41-.22-.01-2.35 2.68-4.74 5.92l-4.36 6.08 10.28.48c5.7.27 10.7 1.06 11.03 1.77.35.72-6.14 4.6-14.22 8.55-8.3 3.94-15.15 7.67-15.4 8.22-1.1 1.9 7.83 5.8 13.95 6.1 8.26.52 19.02-1.49 26.78-4.75 4.73-2.01 8.04-2.42 12.76-1.5 4.5.91 13.32.2 29.65-2.24 15.17-2.36 25.14-3.15 29.27-2.4 5.15.95 8.16.25 15.2-2.91 10.7-4.8 20.62-4.48 22.22.76l1.12 3.4 9.3-3.19c10.35-3.56 18.4-4.02 16.94-.88-1.38 3 3.71 4.08 13.66 2.88 8.07-1.02 8.97-1.54 11.11-6.19 1.8-3.4 3.3-4.73 5.08-4.22 1.4.34 1.53 2.02.55 3.65-1.6 2.02-.57 3.19 3.5 4.07 8.93 1.96 15.22.44 15.45-3.46.29-3.06.85-3.31 5.79-2.38 4.12.75 7.28.2 10.35-1.6 3.92-2.2 4.36-2.18 3.35 0a6.74 6.74 0 01-3.7 3.19c-1.5.34-3.1 1.39-3.2 2.08-1 2.19 13.69 2.32 20.3.11 3.97-1.35 14.41-1.7 35.6-1.12 16.39.35 51.19.03 77.51-.83 55.5-1.59 261.8-4.9 325.23-5.27 51.02-.12 111.64.77 210.9 3.2 75.3 1.99 164.15 3.22 365.83 5.56 145.21 1.65 205.18 2.5 280.33 4.36 31.17.76 57.15 1.14 57.99.76.85-.38 3.32-3.33 5.43-6.44 3.3-4.73 4.83-5.64 10.83-6.06 7.89-.6 13.02-4 11.03-7.44-.52-1.28-7.11-3.96-14.24-5.97-7.34-2.02-12.74-4.37-12.58-5.2 1.13-2.46 12.99-4.42 24.15-3.9 7.44.36 11.25-.16 11.82-1.4 1.32-2.86-2.58-5.56-8.48-5.84-3.07-.14-4.5-.9-3.25-1.68.97-.66 4.79-1.18 8.07-1.02 10.06.47 24.95-1.76 27.55-4.01 1.23-1.2 2.21-4.79 2.28-7.86-.2-7.82-6.78-10.5-29.54-11.57-10.44-.63-19.69-1.9-22.47-3.15-4.28-1.88-1.53-2.03 23.23-1.43 24.11.58 29.61.28 42.12-2.63 7.73-1.73 17.97-5.02 22.76-7.17l8.51-3.93-8.65-2.08c-16.56-3.85-32.25-5.7-69.29-8.27-41.13-2.91-62.79-5.88-67.97-9.2-2.9-1.95-2.28-2.34 8.61-4.62 14.33-2.96 40.12-2.17 66.9 2.3 28.62 4.84 52.81 6.67 66.73 5.09 6.63-.8 13.08-2.18 13.96-3.12 2.97-3.07-18.14-9.64-39.42-12.46-44.97-5.74-53.66-7.26-63.25-11.2-10.61-4.13-15.54-8-12.16-9.5 1.07-.38 22.41 1.32 47.6 3.9 37.51 4 48.61 4.65 62.14 3.9 21.42-1.38 26.93-2.65 24.44-5.98-3.18-3.78-14.08-6.8-26.05-7.5-18.6-.88-35.34-6.27-33.33-10.65.38-.82 15.1-.26 37.61 1.35 46.63 3.58 48.36 3.25 55.61-8.14a389.2 389.2 0 0116.36-22.41c5.99-7.68 13.59-18.35 17.05-23.92 6.79-10.85 6.35-11.84-5.92-17.72l-5.87-2.8 13.19 1.46 13.04 1.31 9.27-7.52c13.26-10.83 13.17-13.06-1.62-19.76-18.42-8.55-17.14-9.88 8.77-8.39l21.26 1.42 3.43-5.98c3.04-5.17 2.58-6.58-2.94-12.57-3.67-3.66-6.32-7.14-6.07-7.68.19-.41 6.13-.7 12.92-.37 7 .33 13.44-.07 14.69-.85 3.13-1.95 10.34-17.1 9.91-21.04-.18-2.52.64-3.32 3.48-3.18a5.2 5.2 0 005.08-3.26c1.32-2.87-.36-4.06-10.11-7.17-40.23-12.64-82.52-16.44-174.12-15.57-28.05.22-63.88.36-79.66.17-27.58-.31-28.95-.24-32.43 2.95-1.98 1.86-4.73 2.99-5.79 2.38-1.22-.75-.22-1.96 3.23-3.62 4.63-2.3 4.69-2.43.04-3.49-12.47-2.54-35.84-5.17-43.44-4.69-4.35.22-10.58 1.6-13.52 3.14-5.48 2.67-5.48 2.67 1.09 2 4.41-.35 6.47.03 6.72 1.44.36 3.09-2.14 3.67-13.3 3.14-9.19-.43-9.94-.74-9.43-4.77.99-6.51-2.01-6.8-8.65-1.1-4.86 4.24-6.43 4.72-8.42 3.23-1.53-1.05-1.59-3.84-.58-6.03 2.33-5.05.7-5.4-33.84-7.59l-25.78-1.77-1.21 5.53c-1.08 6.23-6.81 8.48-12.86 5.12-1.97-1.07-5.59-1.93-8.22-2.06-2.84-.13-4.84-1.62-5.27-3.6-.37-3.08-3.18-3.77-27.65-7.44-35.84-5.17-61.28-7.2-70.98-5.56l-7.54 1.32 4.15 3.13c3.84 2.83 4.49 2.86 9.44.86 5.01-2.14 5.38-1.98 6.31 1.83.96 3.26.3 4.2-2.83 5.18-2.07.6-5.26.73-6.97.09a116.9 116.9 0 00-8.72-1.95c-4.34-.76-5.4-2.34-5.39-7.23l.21-6.27-22.97-2.06c-12.66-1.15-36.57-4.09-52.94-6.4-16.38-2.3-41.2-4.72-55.2-5.37l-25.1-1.32 4.52 4.26c4.52 4.26 4.96 4.28 34.87 5.83 36.04 1.83 36.04 1.83 34.97 4.15-1.82 3.96-7.48 5.1-13.04 2.6-3.9-1.72-7.56-2.03-13.69-1.34-12.32 1.51-36.71.1-60.67-3.69-11.91-1.81-26.47-3.2-32.79-3.07-8.57.16-12.1-.43-14.78-2.37-1.78-1.48-3.05-3.07-2.8-3.62.19-.41 6.91-.93 14.69-.85 18.11.01 27.28-3.88 31.62-13.31 4.82-10.95 7.1-10.56-67.08-15.02-53.07-3.18-69.17-3.66-81.74-2.58zm17.08 25.52c4.87 3.02-2.27 7.85-12.62 8.48-8.98.56-26.35-3.47-26.47-6.13-.33-4.62 32.32-6.58 39.09-2.35zm37.85 2.75c6.62 3.1 2.65 4.45-10.26 3.85-12.69-.6-15.28-2.25-6.65-4.5 6.14-1.67 12.04-1.4 16.91.65zm38.73 2.8c1.84 1.34 3.06 3.07 2.74 3.75-.63 1.37-17.17.87-22.01-.75-2.9-.97-2.77-1.25 1.86-3.54 6.32-3.06 13.39-2.86 17.41.54zm167.71 17.36c-.31.68-2.53 1.13-5.16 1.01-4.38-.2-4.81-3.16-.86-4.93 2.25-1 6.9 2 6.02 3.92zM204.82 119.34c.5.86-2.32 3.1-6.05 4.88-12.02 5.72-17.1 2.69-6.3-3.79 5.51-3.23 10.86-3.68 12.35-1.1zm21.1 2.24c-1.57 3.42-4.77 4.53-8.01 2.84-2.88-1.53 1.83-5.92 5.99-5.73 1.75.09 2.71 1.39 2.02 2.9zm-14.98 42.72c-1.45 3.14-6.14 3.62-12.48 1.37-8.37-3.18-6.2-5.46 4.42-4.26 5.5.68 8.56 1.8 8.06 2.9zM185 198.27c.46 3.37-2.05 3.95-9.8 2.33-6.56-1.28-6.71-1.43-1.9-3.16 6.9-2.33 11.43-1.98 11.7.83zm-27.2-.16c-1.51 3.28-7.7 5.08-15.59 4.71-9.19-.43-8.68-2.5.96-4.98 9.13-2.36 15.76-2.19 14.63.27zm129.92 44.07c-.75 1.64-8.42 2.26-13.73 1.17-8.06-1.91-4.7-3.85 5.17-2.97 4.97.38 8.81 1.25 8.56 1.8zm-31.42.76c-6.14 2.64-35.46 3.22-31.52.48 4.1-2.6 12.68-3.74 24.93-3.16 10.79.36 11.16.52 6.59 2.68zm1013.9 49.24c3.27 1.13 3.15 1.4-.67 2.9-4.6 1.73-9.39 1.93-27.58.66-14.09-.94-13.15-2.02 3.36-3.9 13.42-1.46 19.45-1.46 24.89.34zm-80.99 3.04c-.38.82-2.94 1.53-5.91 1.67-3.85.1-5.13-.51-4.37-2.15.75-1.64 2.54-2.12 6.13-1.67 2.72.4 4.53 1.33 4.15 2.15zm-849.93-22.28c-1.83 3.96-8.59 6.02-11.61 3.37-1.19-1.32-.18-2.53 3.82-4.43 7.52-3.7 9.8-3.31 7.79 1.06zm1266.22 61.49c.43 1-2.45 1.42-6.98 1.07-6.13-.29-6.66-.6-2.21-1.5 6.88-1.35 8.19-1.3 9.19.43zM311.35 278.75c1.74 3.01-1.05 6.65-7.19 9.3-7.95 3.67-8.48 3.37-6.18-2.1 1.13-2.47 1.7-5.65 1.11-6.8-.8-1.15-.55-2.67.14-3.2 2.16-1.3 10.81.79 12.12 2.8zm-29.79 17.6c-.44.95-3.1 2.36-6.23 3.33-4.63 1.32-5.22 1.15-4.22-1.04 1.45-3.14 7.5-6.07 9.62-4.85.9.46 1.27 1.6.83 2.55zm12.3-.97c-.95 2.05-7.06 5.12-9.9 4.98-1.1-.05-1-1.72-.12-3.63 1.26-2.74 2.8-3.64 6.3-3.48 2.4.12 4.15 1.18 3.71 2.13zm98.6 9.66c-1 2.18-3.14 4.87-4.67 5.78-3.89 2.6-4.44-2.02-.61-6.45 4.17-4.7 7.7-4.1 5.28.67zm-150.5.61c1.85 4.7.22 6.3-5.18 4.93-5.94-1.68-5.84-1.4-2.67-4.88 3.57-3.88 6.48-3.88 7.84-.05zM223.86 309c-1.57 3.42-1.85 3.55-2.4.87-1.03-4.1.23-6.83 2.64-5.74.84.6.99 2.7-.24 4.87zm-38.8.28c1.75 2.04 2.18 4.99.92 6.74-4.08 5.95-8.32 2.55-7.58-6.36.24-4.87 2.05-4.93 6.66-.38zM314.3 317c-.5 1.09-2.8 2.66-5.2 3.52-3.6 1.5-3.85 1.08-2.4-2.07 1.06-2.32 2.85-3.77 5.04-3.67 1.97.1 3.06 1.12 2.56 2.21zm-96.01-.74c1.09.05 2.94-.56 4.1-1.62 1.31-.92.5.86-1.33 3.85-4.33 6.5-4.96 6.88-9.43 5.42-3.5-1.14-2.23-5.83 2.7-10.2 2.66-2.4 2.66-2.4 2.46-.03-.19 1.38.62 2.54 1.5 2.58zm112.94 4.74c-.95 2.05-8.2 4.22-9.55 2.76-.46-.44.17-1.8 1.6-3 3.14-2.92 9.33-2.77 7.95.24zm-168.62-7.63c2.5 1.37-3.68 7.5-7.18 7.34-3.28-.15-3.77-3.94-.98-6.6 2.67-2.4 4.98-2.56 8.16-.74zm48.96 30.08c-3.64 5-3.36 5.85 2.97 11.03 6.02 4.9 8.81 12.42 5.21 13.93-.63.39-4.81-.23-9.03-1.26-7.47-1.75-7.72-2.18-5.2-7.65 2.08-4.5 1.55-6.77-2.28-10.57-4.43-3.98-4.58-5.1-1.29-7.88 2.42-1.85 6.17-3.2 8.8-3.08 4.16.2 4.06.89.82 5.48zm17.48.4c.96 1.3.87 2.97-.39 3.75-3.47 2.21-8.2 1.3-8.12-1.77.1-4.6 5.33-5.76 8.51-1.98zm-92.46 4.18c.68 1.43.43 2.95-.7 3.46-2.82 1.26-9.4-4.35-7.1-5.92 2.56-1.7 6.28-.54 7.8 2.46zm158.4 6.04c-.5 1.09-2.51 2.53-4.49 3.42-1.97.88-4.97 1.58-6.5 1.5-3.72-.17-2.5-3.32 2.3-5.47 4.57-2.16 9.75-1.78 8.69.55zm-108.02-.88c1.7 3.57-.01 4.88-4.7 3.4-3.12-.98-1.95-6.93 1.33-6.77.88.04 2.44 1.5 3.37 3.37zm71.93 2.53c-.19.41-3.25 1.25-6.63 1.79-7.54 1.32-10.56 5.93-6.91 10.14 1.87 1.77 1.52 3.98-.43 6.27-4.3 4.96-7.39 4.4-6.78-1.3.32-2.64-.23-6.3-1.16-8.15-1.68-3.15-1.2-3.69 6.21-6.69 7.14-2.88 16.65-4.1 15.7-2.06zm34.2 12.64c1.65 1.75 1.95 4 .51 5.19-2.73 2.52-6.23 2.36-6.72-.46-.09-1.26-1.62-2.3-3.37-2.39-3.28-.15-2.93-3.35.46-4.86 3.38-1.52 6.4-.82 9.12 2.52zm-18.4 3.04c2.81 1.67-1.45 6.08-5.61 5.88-1.53-.07-6.01 2.38-9.65 5.42-6.52 5.41-12.96 7.77-14.14 5.48-.75-1.3 4.3-6.92 11.07-12.89 2.2-1.85 5.27-4.64 6.55-5.97 2.51-2.54 4.14-2.18 11.78 2.08zM150.4 364.2c.12.7-.33 4.59-1.34 8.73-1.33 5.8-2.52 7.42-4.93 7.3-1.53-.06-6.73 1.5-11.24 3.53-5.5 2.25-7.79 2.85-7.16 1.48 1.32-2.87 13.82-11.08 16.67-10.95 3.72.18 5.9-6.98 2.62-8.11-1.78-.5-2.88-1.53-2.56-2.22.76-1.64 6.94-1.49 7.94.24zm57.59 9.4c-.2 2.37-1.2 2.6-7 1.63-3.7-.74-7.54-.64-8.51.02a9.1 9.1 0 01-4.57 1.18c-1.53-.07.54-1.65 4.48-3.42 8.08-3.95 16.4-3.56 15.6.59zm110 6.28c.18 2.52-.3 5-1.43 5.51-2.53 1.14-5.64-4.73-4.25-7.73 1.88-4.1 5.1-2.84 5.68 2.22zm-146.4-3.94c-5.7 1.69-6.97 1.07-5.15-2.9 1.7-3.68 1.7-3.68 5.16-1 2.56 2.2 2.56 3.18 0 3.9zm55.03-1.05c-1 2.19-14.7 10.06-16.07 9.16-2.03-.93 1.77-4.8 7.94-8 4.63-2.3 8.95-2.93 8.13-1.16zm76.97 11.01c-1.39 3.01-6.53 7.38-8.28 7.3-2.4-.12.21-6.28 3.09-7.68 2.54-1.14 5.97-.84 5.19.38zm-71.04 1.84c-.5 1.09-3.32 3.33-6.4 5.14l-5.22 3.1-1.52-3.97c-.8-2.13-.61-4.5.64-5.28 2.91-1.96 13.45-1.04 12.5 1z"/></svg>
