<svg xmlns="http://www.w3.org/2000/svg" fill="none" viewBox="0 0 267 279"><path fill="#FE4C4C" d="M37.47 171.5c1.38-1.82-1.8-4.44 0-5.84 1.9-1.48 3.47 1.7 5.87 1.95 1.14.11 1.9-.5 2.93 0 1.25.58.66 2.46 1.96 2.92 1.8.64 2.02-3.2 3.91-2.92 1.6.22 3.25 1.34 2.94 2.92-.27 1.35-1.94 1.01-2.94 1.95-1.62 1.53-.72 4.61-2.93 4.88-1.2.15-1.73-.88-2.94-.98-1.57-.12-2.44 1.56-3.9.98-1.01-.4-.88-1.9-1.96-1.95-1.38-.07-.64 2.55-1.96 2.93-1.16.33-2.45.12-2.93-.98-.56-1.26 2.32-1.6 1.95-2.93-.42-1.5-3.57.56-3.91-.97-.37-1.66 2.89-.59 3.91-1.95zM65.99 199.27c2.13-.83.8-4.73 3.09-4.97 2.4-.26 2.04 3.27 3.95 4.74.91.7 1.88.58 2.5 1.54.75 1.16-.75 2.45.12 3.52 1.2 1.48 3.4-1.66 4.87-.43 1.24 1.03 2.05 2.84.94 4.03-.94 1-2.17-.16-3.52.11-2.18.45-3.05 3.54-5.07 2.6-1.1-.5-1-1.65-1.98-2.37-1.27-.92-2.9.04-3.84-1.22-.64-.86.26-2.08-.63-2.69-1.14-.78-1.88 1.83-3.2 1.46-1.17-.32-2.15-1.18-1.99-2.37.2-1.36 2.83-.14 3.21-1.46.44-1.5-3.33-1.4-2.8-2.88.55-1.61 2.76 1.01 4.35.4zM54.98 156.27c2.27-.33 1.88-4.43 4.15-4.14 2.4.3 1.24 3.65 2.77 5.52.72.88 1.69.99 2.07 2.07.46 1.29-1.28 2.2-.7 3.44.83 1.72 3.7-.83 4.85.7.97 1.29 1.35 3.24 0 4.13-1.15.76-2.08-.65-3.46-.69-2.22-.06-3.78 2.75-5.53 1.38-.95-.74-.6-1.84-1.38-2.76-1.03-1.19-2.83-.63-3.46-2.07-.43-.98.73-1.96 0-2.75-.93-1.02-2.25 1.35-3.46.69-1.05-.59-1.82-1.64-1.38-2.76.5-1.28 2.78.5 3.46-.7.77-1.36-2.92-2.12-2.08-3.44.92-1.44 2.46 1.62 4.15 1.38zM207.69 130.62c-1.37 1.83 1.84 4.43.04 5.85-1.9 1.49-3.48-1.68-5.88-1.91-1.14-.11-1.9.5-2.94.02-1.25-.58-.67-2.47-1.97-2.92-1.8-.62-2 3.21-3.9 2.96-1.6-.22-3.26-1.32-2.95-2.91.26-1.35 1.93-1.02 2.92-1.97 1.61-1.54.7-4.62 2.9-4.9 1.2-.15 1.74.87 2.94.96 1.57.1 2.44-1.57 3.9-1 1.02.38.9 1.89 1.98 1.93 1.37.06.61-2.55 1.93-2.94 1.16-.34 2.45-.14 2.94.96.57 1.25-2.31 1.62-1.93 2.94.43 1.5 3.56-.58 3.92.95.38 1.66-2.89.6-3.9 1.98zM39.43 158.83c1.18-2.81 0-7.8 0-7.8s1.52 4.37 3.91 4.87c3.53.73 2.98-4.75 4.89-7.8 0 0 2.29-2.23 1.96-3.9-.48-2.37-5.4-4.32-5.87-1.95-.24 1.18 1.15 1.73.98 2.92-.13.84-.25 1.51-.98 1.95-1.04.62-1.74-.8-2.94-.97-3.72-.56-5.55 2-8.8 3.9-4.22 2.46-13.93 5.22-9.78 7.8 1.03.64 1.77 1.3 2.94.98 1.04-.29.95-1.55 1.95-1.95 2.06-.84 5.54.8 4.9 2.92-.32 1.03-1.91.88-1.96 1.95-.07 1.38 1.56 1.82 2.93 1.96 1.2.12 1.9-.35 2.93-.98 1.63-1 2.2-2.15 2.94-3.9zM183.15 19.51c-1.95 2.93.59 4.88 3.13 2.34 1.37-1.36 1.37-2.53.2-3.31-1.18-.59-2.74-.2-3.33.97zM224.81 29.85c-4.1 3.12-5.87 12.1-2.93 14.44 4.5 3.32 11.15 4.1 11.15 1.17 0-1.56 1.37-3.32 2.93-3.9 3.13-1.17 3.72-6.05 1.76-11.32-1.37-3.7-8.21-3.9-12.9-.39zM205.65 38.05a41.71 41.71 0 00-1.96 5.26c0 .2 2.54.59 5.67.78 4.5.4 6.26-.58 7.24-3.7.78-2.54.2-4.68-1.37-5.66-4.7-2.93-7.63-1.95-9.58 3.32zM161.44 39.6c-3.71 2.93-3.71 2.93.2 5.86 6.84 5.27 13.3 2.73 11.34-4.3-1.17-4.87-5.87-5.45-11.54-1.55zM252.59 41.17c0 1.17-1.96 4.29-4.3 6.83-3.14 3.31-3.72 5.07-2.16 6.63 1.76 1.75 3.52.78 7.24-3.12 5.67-6.05 6.65-12.68 2.15-12.68-1.56 0-2.93.97-2.93 2.34zM192.93 46.44c-1.17 2.14 1.76 4.48 3.72 2.73 1.76-1.76 1.37-4.5-.59-4.5-1.17 0-2.35.79-3.13 1.77zM254.81 14.17c-1.17 2.15 1.76 4.49 3.72 2.73 1.76-1.75 1.37-4.48-.59-4.48-1.17 0-2.35.78-3.13 1.75zM123.89 51.12c-4.1 4.29-4.5 5.85-2.94 12.87 1.77 8.98 5.1 10.93 6.07 3.71.39-2.54 1.95-5.85 3.52-7.6 1.56-1.76 1.96-3.72.98-4.89-.98-.97-2.15-3.31-2.55-5.26-.58-3.32-.97-3.12-5.08 1.17zM146.19 49.75c-1.37 3.7.39 7.22 2.93 5.66 2.35-1.56 2.35-8.78 0-8.78-.98 0-2.35 1.37-2.93 3.12zM186.09 50.53c0 .98.97 1.95 1.95 1.95 1.18 0 1.96-.97 1.96-1.95 0-1.17-.78-1.95-1.96-1.95-.98 0-1.95.78-1.95 1.95zM182.17 56.38c0 .98.98 1.96 1.96 1.96 1.17 0 1.96-.98 1.96-1.96 0-1.17-.79-1.95-1.96-1.95-.98 0-1.96.78-1.96 1.95zM226.38 57.75c-2.15 2.15-1.18 4.49 1.76 4.49 1.56 0 2.93-.78 2.93-1.76 0-2.53-3.13-4.29-4.7-2.73zM220.12 66.53c.59 2.54 1.17 5.66 1.17 6.83 0 3.5 4.11 2.92 9.39-1.17 4.89-4.1 5.67-7.03 1.56-5.47-1.36.59-5.08-.2-8.01-1.75-5.09-2.54-5.28-2.54-4.11 1.56zM239.87 64.38c-.78 1.17-.97 2.54-.39 3.12 1.37 1.37 5.28-1.17 5.28-3.5 0-2.35-3.32-2.35-4.89.38zM109.8 73.94c0 .98.98 1.95 1.96 1.95 1.18 0 1.96-.97 1.96-1.95 0-1.17-.78-1.95-1.96-1.95-.98 0-1.95.78-1.95 1.95zM47.22 86.55c0 .98.98 1.95 1.95 1.95 1.18 0 1.96-.97 1.96-1.95 0-1.17-.78-1.95-1.96-1.95-.97 0-1.95.78-1.95 1.95zM57 102.16c0 .97.98 1.95 1.95 1.95 1.18 0 1.96-.98 1.96-1.95 0-1.17-.78-1.95-1.96-1.95-.97 0-1.95.78-1.95 1.95zM37.44 102.16c0 .97.98 1.95 1.95 1.95 1.18 0 1.96-.98 1.96-1.95 0-1.17-.78-1.95-1.96-1.95-.97 0-1.95.78-1.95 1.95z"/><path fill="#FE4C4C" d="M35.48 142.15c0 1.46.98 2.93 1.96 2.93 1.17 0 1.95-1.47 1.95-2.93 0-1.76-.78-2.93-1.95-2.93-.98 0-1.96 1.17-1.96 2.93zM103.94 46.56c0 1.46 1.47 2.92 2.93 2.92a2.94 2.94 0 002.94-2.92c0-1.76-1.18-2.93-2.94-2.93a2.94 2.94 0 00-2.93 2.93zM149.51 74.92c-.58 1.75-.58 3.51-.2 4.1 1.77 1.75 7.44-1.57 7.44-4.3 0-3.7-5.67-3.5-7.24.2zM206.62 75.9c.59.97 1.57 1.94 2.15 1.94.4 0 .79-.97.79-1.95 0-1.17-.98-1.95-2.16-1.95-.97 0-1.36.78-.78 1.95zM125.65 78.82c0 2.15-2.15 5.66-4.3 7.6-3.13 2.74-3.72 3.91-1.76 5.08 3.71 2.15-3.72 11.9-8.22 10.93-2.15-.4-3.52.39-3.52 1.75 0 4.1-3.71 5.46-7.04 2.73-2.35-1.75-2.54-1.75-1.76.59 1.17 2.73-7.04 11.31-10.95 11.31-1.37 0-3.52-1.56-4.9-3.5-1.75-2.35-2.54-2.55-2.73-.79 0 1.56 1.95 4.3 4.5 6.44l4.3 3.51-5.87 5.07c-3.52 2.93-9.78 3.25-12.71 2.86-3.91-.4-5.87 1.95-5.87 5.85 0 3.7 4.1 4.75 8.8 5.34 3.13.58 5.87.97 6.07 1.17.2.2-.4 5.46-1.18 11.9-.78 8.2-.58 12.1 1.37 13.85a11.01 11.01 0 012.54 6.44c0 1.95 2.16 6.05 4.9 8.97 2.73 2.93 4.88 4.1 4.88 2.93 0-1.95.59-1.95 2.35-.2 1.76 1.76 1.76 2.93.2 4.5-1.18 1.16-1.76 3.3-1.18 4.67.4 1.56 0 4.49-1.37 6.64-1.76 3.31-1.56 4.1.98 4.1 1.57 0 2.94-1.76 2.94-3.71 0-5.47 4.3-6.25 9.38-1.56 4.5 4.1 12.13 6.04 12.13 2.92 0-.97 1.76-.78 4.1.4 2.94 1.75 4.7 1.55 6.85-.2 2.35-1.95 2.55-1.76 1.57.97-1.57 4.1 2.74 4.1 8.4.2 2.94-1.95 4.7-2.34 5.48-.98.98 1.37 2.16 1.17 3.53-.97 1.36-1.56 4.88-3.51 8.21-4.1 3.13-.59 6.26-1.76 6.84-2.54.6-.78 2.55-1.95 4.5-2.73 1.76-.58 3.33-2.53 3.33-4.29 0-4.68 2.54-3.51 8.4 3.9 2.94 3.7 7.44 7.8 9.79 8.98 3.32 1.75 3.13.97-1.76-4.3-7.43-8-9.78-14.63-6.65-18.33 1.37-1.56 1.95-3.9 1.56-5.27-.97-2.54 3.72-8.58 5.48-7.02.4.58 0 3.31-.98 6.24-1.17 2.73-1.37 5.07-.39 5.07.98 0 2.35-2.73 3.13-5.85.98-4.3 1.96-5.46 3.52-4.1 1.56 1.17 3.72.59 6.85-1.75 6.06-4.88 5.47-6.44-2.15-5.08-5.68.98-6.85.59-8.8-3.7-3.33-7.22-2.94-8.59 2.73-10.73 3.52-1.37 4.7-2.93 3.91-5.07-.58-1.76-1.17-3.9-1.17-4.88 0-1.17-1.56-1.76-3.32-1.37-1.96.4-3.53-.58-3.72-1.95-.2-1.17-.4-3.12-.59-4.1 0-.97-1.95-2.53-4.1-3.12-4.11-1.36-5.48-6.82-1.77-6.82.98 0 1.57-.79.79-1.96-.59-.97-2.55-1.17-4.11-.58-1.96.78-3.33-.4-4.1-3.12-.6-2.34-2.55-4.1-4.7-4.1-4.11 0-5.09-3.12-1.18-4.49 1.37-.78.98-1.17-.97-1.36-1.96-.4-4.3-.78-5.48-.98-.98-.2-2.74-.58-3.91-.78-3.72-.39-1.96-4.1 1.76-4.1 4.3 0 7.43-7.21 4.5-10.14-2.94-2.93-10.17 1.76-10.17 6.24 0 4.49-.2 4.69-6.85 1.56-2.74-1.17-4.89-3.7-4.89-5.65 0-1.95-.78-4.1-1.95-4.69-.98-.58-1.96-.2-1.96.78 0 1.18-.98 2.15-2.15 2.15-1.18 0-1.76-1.36-1.18-2.73.79-1.76-.39-3.32-2.54-4.1-1.95-.58-4.1-3.12-4.5-5.46-.78-3.9-.78-3.9-1.17-.39zM177.28 83.9c-1.95 2.92.2 4.48 3.92 2.92 1.76-.59 2.54-1.95 1.95-3.12-1.56-2.54-4.3-2.54-5.87.2zM210.73 83.11c-.78.78-3.32 1.56-5.67 1.56s-4.5 1.37-4.9 3.32c-.58 2.73.99 3.12 8.81 2.93 8.02-.4 9.39-.98 9.39-4.3 0-3.9-4.9-6.24-7.63-3.5z"/><path fill="#FE4C4C" d="M107.26 85.06c-2.73 2.54-1.17 6.44 2.55 6.44 2.54 0 3.9-1.36 3.9-3.9 0-3.7-3.9-5.27-6.45-2.54zM221.3 90.72c-2.55 6.44-2.55 6.63.58 6.63 3.72 0 9.78-7.21 8.21-9.56-2.15-3.7-6.84-2.34-8.8 2.93zM203.69 97.35c0 .98 1.37 1.95 2.93 1.95 1.57 0 2.94-.97 2.94-1.95 0-1.17-1.37-1.95-2.94-1.95-1.56 0-2.93.78-2.93 1.95zM212.3 100.28c-3.53 2.73-3.53 2.73 1.75 2.93 2.94 0 5.29-.78 5.29-1.76 0-3.51-3.33-3.9-7.05-1.17zM99.05 101.25c-.59.98-.2 1.96.78 1.96 1.17 0 2.15-.98 2.15-1.95 0-1.18-.39-1.96-.78-1.96-.59 0-1.56.78-2.15 1.95zM184.52 104.57c.4 4.49 1.57 5.46 6.26 5.46 3.13.2 6.06 1.17 6.65 2.54 1.76 5.27 12.13.98 12.13-5.07 0-1.95-1.76-2.54-5.68-1.95-3.9.58-6.25-.2-7.82-2.73-1.17-1.95-4.5-3.52-7.24-3.52-4.3 0-4.88.78-4.3 5.27zM90.64 104.57c.39 1.76 1.76 3.51 3.13 4.1 3.52 1.17 2.93-4.88-.78-6.25-2.16-.78-2.74-.19-2.35 2.15zM72.64 106.91c0 .98.98 2.54 1.96 3.12 1.17.59 1.96.4 1.96-.78 0-.97-.79-2.53-1.96-3.12-.98-.58-1.95-.39-1.95.78zM217.38 120.96c0 .97.98 1.36 1.96.78 1.17-.59 1.95-1.56 1.95-2.15 0-.39-.78-.78-1.95-.78-.98 0-1.96.98-1.96 2.15zM242.8 110.16c0 .97.98 1.36 1.96.78 1.18-.59 1.96-1.56 1.96-2.15 0-.4-.78-.78-1.96-.78-.97 0-1.95.97-1.95 2.14zM234.98 125.76c0 .98.98 1.37 1.96.78 1.17-.58 1.96-1.56 1.96-2.14 0-.4-.79-.78-1.96-.78-.98 0-1.96.97-1.96 2.14zM188.04 69.19c0 .97.98 1.36 1.96.78 1.17-.59 1.95-1.56 1.95-2.15 0-.39-.78-.78-1.95-.78-.98 0-1.96.98-1.96 2.15zM162.62 2.86c0 .97.97 1.36 1.95.78 1.18-.59 1.96-1.56 1.96-2.15 0-.39-.78-.78-1.96-.78-.98 0-1.95.98-1.95 2.15zM141.1 62.5c0 .59.49.83.98.47.59-.36.98-.95.98-1.3 0-.24-.4-.48-.98-.48-.49 0-.98.6-.98 1.3zM150.88 56.64c0 .6.49.84.98.48.58-.36.98-.95.98-1.3 0-.25-.4-.48-.98-.48-.5 0-.98.59-.98 1.3zM127.41 35.18c0 .6.49.84.98.48.58-.36.98-.95.98-1.3 0-.25-.4-.48-.98-.48-.5 0-.98.59-.98 1.3zM150.88 21.53c0 .6.49.83.98.47.58-.35.98-.95.98-1.3 0-.24-.4-.48-.98-.48-.5 0-.98.6-.98 1.3zM166.53 23.48c0 .6.49.83.97.47.6-.35.98-.95.98-1.3 0-.24-.39-.48-.97-.48-.5 0-.98.6-.98 1.3zM182.56 5.67c-.36.48-.1.96.5.96.69.06 1.35-.2 1.57-.48.14-.2-.04-.61-.51-.96-.4-.29-1.14-.1-1.56.48zM194.02 16.47c-.36.48-.1.96.5.96.69.06 1.35-.19 1.57-.48.14-.19-.04-.61-.51-.96-.4-.28-1.14-.1-1.56.48zM209.56 57.48c0 .98.97 1.37 1.95.78 1.18-.58 1.96-1.56 1.96-2.14 0-.4-.78-.78-1.96-.78-.97 0-1.95.97-1.95 2.14zM205.65 14.56c0 .98.97 1.37 1.95.78 1.17-.58 1.96-1.56 1.96-2.14 0-.4-.79-.78-1.96-.78-.98 0-1.95.97-1.95 2.14zM262.37 14.56c0 .98.97 1.37 1.95.78 1.18-.58 1.96-1.56 1.96-2.14 0-.4-.78-.78-1.96-.78-.98 0-1.95.97-1.95 2.14zM210.73 134.62c-3.13.97-6.45 2.73-7.43 4.1-1.18 1.94-1.96 1.94-3.33-.4-2.54-3.7-5.08-1.17-3.13 3.32.98 1.95 1.37 4.1 1.37 4.88-.2.97 1.37 1.56 3.52 1.56 2.55 0 3.92-1.37 3.92-3.9 0-2.54 1.36-3.9 3.71-3.9 4.3 0 7.04 3.11 4.3 4.68-.97.78-2.15.19-2.54-1.18-.59-1.75-1.17-1.75-2.35 0-2.15 3.52 6.85 6.44 10.57 3.32a44.96 44.96 0 016.84-3.9c2.15-.78 2.94-1.76 1.76-2.34-1.37-.4-1.95-2.54-1.37-4.49.78-2.93 0-3.9-3.13-3.9-2.15 0-4.1 1.17-4.1 2.34 0 1.76-.6 1.95-1.57.39-.78-1.36-3.52-1.56-7.04-.58zM239.68 137.35c-.78 1.75-2.55 2.73-3.91 2.14-1.57-.58-2.74-.2-2.74.78 0 1.17.78 1.95 1.76 1.95s2.15 1.37 2.54 2.93c.4 1.95 1.76.97 3.91-2.93 1.96-3.31 2.54-6.24 1.37-6.82-.98-.78-2.35.2-2.93 1.95zM52.61 148.19c-1.58 1.77-1.98 3.54-.79 4.43.8.89 2.78-.59 3.96-3.25 2.78-5.03.4-5.92-3.17-1.19zM33.52 146.1c-11.16 6.56-11.7 7.45-6.91 13.1 5.84 6.86 14.88 2.69 13.02-5.95-1.6-6.25 2.39-8.04 3.98-2.08.8 2.68 2.13 1.78 3.99-2.09 2.66-5.06 2.12-5.96-2.92-5.96-3.2 0-8.24 1.5-11.16 2.98zM203.69 158.42c5.28 2.92 7.04 2.73 4.89-.4-.59-1.17-3.13-2.14-5.48-2.14-4.1 0-4.1.2.59 2.54zM214.35 207.01c9.9 6.19 13.79 3.3 10.85 1.47-3.9-2.44-7.33-6.83-11.73-6.83-7.7 0-7.93.41.88 5.36zM151.2 212.25c-1.32 3.9.29 4.59.67 3.44.52-1.54 1.88-3.23 1.36-4.54-.9-2.27-1.08-2.27-2.03 1.1zM188.38 210.9c6.53 7.3 10.31 8.26 8.38 6.1-2.58-2.9-4.31-6.23-7.85-8.5-6.2-3.95-6.47-3.91-.53 2.4zM44.82 160.68c-1.78 2.34-2.04 3.9-.5 3.9 1.27 0 3.06-1.82 4.08-3.9.76-2.08 1.02-3.9.5-3.9-.5 0-2.29 1.82-4.08 3.9zM60.91 166.6c1.96 2.35 1.96 2.94 0 2.94s-1.96.58 0 2.92c4.1 4.88 7.63 3.51 7.24-2.92-.4-4.69-1.37-5.86-5.09-5.86-3.91 0-4.1.4-2.15 2.93zM210.93 165.05c-2.35 2.34-1.37 4.3 1.56 3.31 1.56-.78 2.93-1.95 2.93-2.92 0-2.15-2.73-2.34-4.5-.4zM37.44 171.3c0 6.04 8.8 7.8 13.7 2.53 3.51-3.7 3.51-3.9-.6-3.9-2.34 0-6.26-.59-8.6-1.37-3.72-1.17-4.5-.78-4.5 2.73zM60.91 183c0 1.17.98 2.53 1.96 3.12 1.17.78 1.56 2.92.97 4.88-.58 1.95-.39 4.1.6 4.68 2.73 1.56 6.45-3.7 5.27-6.83-1.37-3.51-8.8-8.39-8.8-5.85zM78.96 191.86c-.5.12-1.16-.16-1.5-.52-.44-.41-1.38-.37-2.14.07-.76.44-1.67.56-2.01.2-.93-1 .9-3.07 2.33-2.88 1.6.23 4.38 2.89 3.32 3.13zM113.97 212.77c.49-.13 1.16.12 1.52.47.45.4 1.39.33 2.13-.14.74-.46 1.65-.61 2-.27.96.97-.8 3.1-2.23 2.96-1.61-.18-4.47-2.74-3.42-3.02zM191.95 189.04c0 .98.98 1.96 1.96 1.96 1.17 0 1.96-.98 1.96-1.96 0-1.17-.79-1.95-1.96-1.95-.98 0-1.96.78-1.96 1.95zM31.57 196.85c0 .97.98 1.95 2.15 1.95.98 0 1.37-.98.79-1.95-.6-1.17-1.57-1.95-2.16-1.95-.39 0-.78.78-.78 1.95zM45.26 211.4c0 .98.98 1.96 2.15 1.96.98 0 1.37-.98.79-1.95-.59-1.17-1.57-1.95-2.16-1.95-.39 0-.78.78-.78 1.95zM27.66 232.87c0 .97.98 1.95 2.15 1.95.98 0 1.37-.98.78-1.95-.58-1.18-1.56-1.96-2.15-1.96-.39 0-.78.78-.78 1.96zM39.4 206.53c0 .49.6.97 1.3.97.6 0 .84-.48.48-.97-.35-.59-.95-.98-1.3-.98-.25 0-.48.4-.48.98zM57 192.87c0 .49.6.98 1.3.98.6 0 .84-.49.49-.98-.36-.58-.96-.97-1.32-.97-.23 0-.47.39-.47.97zM57 210.43c0 .49.6.98 1.3.98.6 0 .84-.5.49-.98-.36-.59-.96-.97-1.32-.97-.23 0-.47.38-.47.97zM82.42 214.33c0 .49.6.98 1.32.98.6 0 .83-.49.47-.98-.36-.58-.95-.97-1.3-.97-.25 0-.49.39-.49.97zM84.38 194.82c0 .5.6.98 1.31.98.6 0 .84-.49.48-.98-.36-.58-.96-.97-1.31-.97-.24 0-.48.39-.48.97zM60.91 211.4c0 .98 1.2 1.96 2.62 1.96 1.2 0 1.67-.98.96-1.95-.72-1.17-1.91-1.95-2.63-1.95-.47 0-.95.78-.95 1.95zM49.17 223.11c0 .98 1.2 1.95 2.63 1.95 1.19 0 1.67-.97.95-1.95-.71-1.17-1.9-1.95-2.62-1.95-.48 0-.96.78-.96 1.95zM15.92 220.19c0 .48.6.97 1.32.97.6 0 .83-.49.47-.97-.36-.6-.95-.98-1.3-.98-.25 0-.49.39-.49.97zM49.17 196.77c0 .5.6.98 1.32.98.6 0 .83-.49.47-.98-.36-.58-.95-.97-1.3-.97-.25 0-.49.39-.49.97zM45.26 185.07c0 .49.6.97 1.31.97.6 0 .84-.48.48-.97-.36-.59-.95-.98-1.31-.98-.24 0-.48.4-.48.98zM37.44 181.17c0 .49.6.97 1.31.97.6 0 .83-.48.48-.97-.36-.59-.96-.98-1.31-.98-.24 0-.48.4-.48.98zM13.97 163.6c0 .5.6.99 1.31.99.6 0 .83-.5.48-.98-.36-.59-.96-.98-1.31-.98-.24 0-.48.4-.48.98zM27.66 177.26c0 .5.6.98 1.31.98.6 0 .84-.49.48-.98-.36-.58-.96-.97-1.31-.97-.24 0-.48.39-.48.97zM15.92 170.44c0 .97 1.2 1.95 2.63 1.95 1.19 0 1.67-.98.95-1.95-.72-1.17-1.9-1.95-2.62-1.95-.48 0-.96.78-.96 1.95zM32.1 168.72c.96-.14 1.77-1.45 1.57-2.86-.17-1.18-1.2-1.52-2.07-.67-1.06.86-1.67 2.15-1.58 2.86.07.47.91.83 2.07.67zM53.6 160.91c.98-.13 1.78-1.44 1.58-2.85-.16-1.18-1.2-1.52-2.07-.68-1.06.87-1.67 2.16-1.57 2.86.06.47.9.84 2.07.67zM22.07 164.5c-.16.96.84 2.13 2.25 2.37 1.18.2 1.81-.68 1.28-1.76-.5-1.27-1.55-2.25-2.25-2.37-.47-.08-1.08.6-1.28 1.76zM74.6 157.76c0 .48.6.97 1.31.97.6 0 .84-.49.48-.97-.36-.59-.95-.98-1.31-.98-.24 0-.48.4-.48.98zM43.3 227.01c0 .98.98 1.95 2.16 1.95.98 0 1.37-.97.78-1.95-.59-1.17-1.56-1.95-2.15-1.95-.4 0-.78.78-.78 1.95zM54 243.13c-.89.43-1.34 1.73-.83 2.78.43.88 1.48.8 2.1-.15.8-1.03 1.08-2.25.82-2.78-.17-.35-1.04-.36-2.1.15zM61.3 202.12c.78 3.9 7.82 6.63 11.54 4.48 3.33-2.14 1.96-3.5-5.87-5.85-5.28-1.37-6.26-1.17-5.67 1.37zM76.56 204.65c0 .98 1.37 1.95 2.93 1.95 1.57 0 2.93-.97 2.93-1.95 0-1.17-1.36-1.95-2.93-1.95-1.56 0-2.93.78-2.93 1.95zM25.12 209.92c-2.35 2.15-1.57 4.49 1.56 4.49a3 3 0 002.94-2.93c0-3.12-2.35-3.9-4.5-1.56zM52.1 218.3c.8 1.18 2.16 1.57 3.14.98 2.74-1.75 2.15-2.92-1.37-2.92-1.57 0-2.35.97-1.76 1.95zM124.48 220.45c-1.96 2.93.58 4.88 3.13 2.34 1.36-1.36 1.36-2.53.2-3.31-1.18-.59-2.75-.2-3.33.97zM175.53 221.43c-3.92 3.7-3.92 4.49 0 8.78 2.54 2.73 4.1 3.12 6.84 1.56 4.3-2.15 4.89-7.61 1.37-11.12-3.13-3.12-4.5-2.93-8.22.78zM66.78 224.09c0 1.46 1.46 2.92 2.93 2.92a2.94 2.94 0 002.94-2.92c0-1.76-1.18-2.93-2.94-2.93a2.94 2.94 0 00-2.93 2.93zM55.04 234.82c0 .97.98 1.95 1.96 1.95 1.17 0 1.95-.98 1.95-1.95 0-1.17-.78-1.95-1.95-1.95-.98 0-1.96.78-1.96 1.95zM58.95 242.62c0 .97.98 1.95 1.96 1.95 1.17 0 1.96-.97 1.96-1.95 0-1.17-.79-1.95-1.96-1.95-.98 0-1.96.78-1.96 1.95zM62.87 248.47c0 .98.97 1.95 1.95 1.95 1.18 0 1.96-.97 1.96-1.95 0-1.17-.78-1.95-1.96-1.95-.98 0-1.95.78-1.95 1.95zM43.3 238.72c0 .97.98 1.95 1.96 1.95 1.18 0 1.96-.98 1.96-1.95 0-1.17-.78-1.95-1.96-1.95-.98 0-1.95.78-1.95 1.95zM39.4 248.47c0 .98.97 1.95 1.95 1.95 1.17 0 1.96-.97 1.96-1.95 0-1.17-.79-1.95-1.96-1.95-.98 0-1.95.78-1.95 1.95zM25.7 252.37c0 .98.98 1.95 1.96 1.95 1.17 0 1.96-.97 1.96-1.95 0-1.17-.79-1.95-1.96-1.95-.98 0-1.96.78-1.96 1.95zM37.44 215.3c0 .98.98 1.96 1.96 1.96 1.17 0 1.95-.98 1.95-1.95 0-1.17-.78-1.95-1.95-1.95-.98 0-1.96.78-1.96 1.95zM39.4 199.7c0 .98.97 1.95 1.95 1.95 1.17 0 1.96-.97 1.96-1.95 0-1.17-.79-1.95-1.96-1.95-.98 0-1.95.78-1.95 1.95zM74.83 181.24c-.11.53 1.68 1.47 3.6 1.88 2.29.5 3.93.3 4.04-.22.14-.63-1.3-1.39-3.59-1.88-1.91-.42-3.91-.4-4.05.22zM32.03 215.37c.23.31 1.62-.2 2.77-1.03 1.4-1 2.09-1.98 1.86-2.3-.28-.38-1.39.03-2.77 1.03-1.16.83-2.13 1.91-1.86 2.3zM24.34 144.4c.3.46 2.23-.16 3.86-1.24 1.96-1.28 2.98-2.59 2.68-3.04-.36-.54-1.9-.04-3.86 1.25-1.64 1.07-3.04 2.5-2.68 3.04zM33.53 235.8c0 1.45 1.46 2.92 2.93 2.92a2.94 2.94 0 002.94-2.93c0-1.75-1.18-2.92-2.94-2.92a2.94 2.94 0 00-2.93 2.92zM113.72 220.19c0 1.46 1.47 2.92 2.93 2.92a2.94 2.94 0 002.94-2.93c0-1.75-1.18-2.92-2.94-2.92a2.94 2.94 0 00-2.93 2.93zM100.03 207.5c0 .98.97 1.96 1.95 1.96 1.18 0 1.96-.98 1.96-1.96 0-1.17-.78-1.95-1.96-1.95-.98 0-1.95.78-1.95 1.95zM103.94 210.43c0 .49.49.98.98.98.58 0 .97-.5.97-.98 0-.59-.39-.97-.97-.97a.98.98 0 00-.98.97zM109.8 222.14c0 .48.5.97.98.97.6 0 .98-.49.98-.97 0-.59-.39-.98-.98-.98a.98.98 0 00-.97.98zM125.45 212.38c0 .49.5.98.98.98.59 0 .98-.5.98-.98 0-.58-.4-.97-.98-.97a.98.98 0 00-.98.97zM113.98 227.99c-.8 1.46.27 2.92 2.67 2.92s3.47-1.46 2.67-2.92c-.8-1.76-2.13-2.93-2.67-2.93-.53 0-1.87 1.17-2.67 2.93zM137.28 224.09c-.27.48.09.97.89.97s1.15-.49.89-.97c-.27-.59-.72-.98-.9-.98-.17 0-.62.4-.88.98zM151.98 228.81c.85.31 1.56-.38 1.36-1.66-.2-1.29-1.06-1.74-1.79-1.2-.88.57-1.4 1.38-1.36 1.67.05.28.78.9 1.8 1.2zM129.37 236.65c0 1.36 1.76 4.87 3.9 7.4 1.96 2.74 3.14 5.67 2.35 6.45-.78.78.4.97 2.55.58 2.74-.39 3.71.4 3.32 2.73-.39 1.95.4 3.51 1.57 3.51 2.54 0 2.54-7.21 0-10.33a210.93 210.93 0 01-6.07-7.8c-4.3-5.67-7.62-6.84-7.62-2.54zM103.16 238.99c-1.18 3.12 1.76 8.58 4.7 8.58 2.53 0 3.51-7.41 1.36-9.56-2.93-2.92-4.7-2.73-6.06.98zM114.7 239.77c-1.57 5.07-.2 6.82 3.9 5.07 3.53-1.37 3.33-7.22-.38-8.39-1.18-.39-2.74.98-3.52 3.32zM123.5 239.77c0 .97.98 1.95 2.15 1.95.98 0 1.37-.98.78-1.95-.59-1.17-1.56-1.95-2.15-1.95-.4 0-.78.78-.78 1.95zM14.95 248.35c-1.76 6.24 1.95 10.15 6.26 6.63 3.32-2.73 3.32-7.4-.2-7.4a4.33 4.33 0 01-3.72-2.55c-.39-1.17-1.56.2-2.34 3.32zM.28 259.47c0 .98.98 1.37 1.95.78 1.18-.58 1.96-1.56 1.96-2.14 0-.4-.78-.79-1.96-.79-.97 0-1.95.98-1.95 2.15zM98.07 261.62c-1.28 2.65-1.93 5.8-1.4 7.08 1.57 3.85 4.52-1.02 4.12-6.73-.33-4.48-.78-4.54-2.72-.36zM139.15 273.71c0 1.56.97 3.51 1.95 4.1 1.17.58 1.96-.59 1.96-2.73 0-2.34-.79-4.1-1.96-4.1-.98 0-1.95 1.17-1.95 2.73z"/><path fill="#FE4C4C" d="M100.03 256.62c0 1.3.97 2.94 1.95 3.43 1.18.5 1.96-.49 1.96-2.29 0-1.96-.78-3.44-1.96-3.44-.98 0-1.95.99-1.95 2.3zM95.48 278.71c1.31 0 2.95-.97 3.44-1.95.5-1.17-.49-1.95-2.3-1.95-1.96 0-3.44.78-3.44 1.95 0 .98.99 1.95 2.3 1.95z"/></svg>
