<svg xmlns="http://www.w3.org/2000/svg" fill="none" viewBox="0 0 545 544"><path fill="#000" fill-rule="evenodd" d="M79.18 80.2c-1.7 1.7-3.36 3.43-5 5.17.07.1.14.2.23.28 3.67 3.55 5.1 3.5 5.25-.35.16-2.13-.04-3.85-.48-5.1zm-1.53 10.75c-3.48.1-6.77.56-9.76 1.3a273.7 273.7 0 00-6.26 7.36l4.03-.74c6.9-1.28 13.94-2.9 15.66-3.6 4.68-1.8 5.76.88 2.24 5.6-2.06 3-2.1 3.88.32 3.97 3.8.14 2.87 2.2-1.14 2.93-1.93.37-4.52-.5-6.13-2-4.24-3.46-5.9-3.3-6.49.76-.42 3.28-.64 3.38-9.22 3.72-2.49.11-5.2.29-7.95.52a273.32 273.32 0 00-7.15 10.17c34.4-2.73 47.16-2.7 50.56-.11 4.99 4.15 1.5 7.21-12.29 10.55a233.02 233.02 0 01-22.44 4.23l-10.18 1.16 6.27 1.66c3.76 1.02 9.83 1.58 14.69 1.32 4.46-.16 7.92-.03 7.67.51-1.02 2.28-10.02 5.9-18.8 7.45l-9.73 1.72 5.03 3.27c7.83 5.25 17.63 7.27 47.82 10.05 31.52 2.94 43.28 5.7 39.82 9.1-1.05 1.16-1.58 3.13-.96 4.47.73 1.9-.13 2.64-4.61 4.01-4.53 1.48-7.34 1.49-18.18.2-18.49-2.23-26.57-.66-23.7 4.29.63 1.34 1.83 1.39 5.6.43 6.75-1.73 8.84.66 2.98 3.52-6.17 3.19-10.29 2.6-16.44-2.48-4.36-3.58-6.02-4.2-7.81-2.94-1.48.94-4.78 1.25-8.7 1-4.22-.38-6.84-.04-8.06 1.13-2.63 2.32-.45 6.48 3 5.84 1.92-.37 3.18.33 3.33 1.55.39 1.89.73 1.9 2.71-.56l2.53-2.88 1.4 3.91c1.91 5.14 10.88 8.22 28.58 9.88 7.58.72 14.89 1.66 16.12 2.03 2 .63 2.64 0 3.35-3.94.48-2.63 1.63-4.79 2.66-4.75 10.66-.26 11.47-.12 9.14 1.55-1.35 1.05-1.78 2.8-1 4.59 1.65 4.14.62 5.64-4.19 5.79-3.77.19-4.68 1.03-7.6 6.76l-3.61 6.47 5.5-.9c7.29-1.37 10.95-.13 11.78 3.86 1.07 4.67-1.83 6.43-6.33 3.95-4.5-2.48-7.1-2.58-8.07-.41-.44.97.43 1.78 1.98 1.83 1.38.05 2.25.86 1.81 1.83-1.16 2.6-4.9 1.91-11.13-2.18-2.98-1.98-7.3-3.68-9.55-3.77-6.17-.34-2.71-3.73 4.1-4.03a98.7 98.7 0 012.3-.1l1.81-.07c1.43-.06 2.59-.68 2.88-1.33.34-.75-4.18-1.25-13.6-1.39l-14.13-.2 1.6-3.57c2.53-5.63.24-5.6-3.2.1l-2.86 5.18 6.56.24c3.63.14 7.31.94 7.91 1.95 2.21 2.5-3.51 6.26-9.04 6.05-9.84-.37-4.4 6.66 6.1 7.94 8.46 1.08 8.64 2.63.55 6.18-3.27 1.42-6.17 3.19-6.5 3.94-.69 1.52 6.9 3.78 9.06 2.88.5-.32 2.86-3.64 5.3-7.51 2.4-3.77 5.02-6.86 5.88-6.83 2.42.09.42 7.28-2.94 10.46-2.45 2.33-2.62 3.1-.62 3.72 4.3 1.37 6.24-.2 9.45-7.35 4.28-9.53 6.05-6.82 2.54 3.72l-2.88 8.38-11.06 2.33c-8.35 1.78-11.13 2.9-11.96 4.73-1.07 2.38-1.63 2.47-12.08 1.1-7.49-.94-13.82-1.52-19.07-1.75.75 2.4 1.18 4.49.99 5.46-.14.65-1.26 2.22-2.95 4.16 4.45.27 9.66.5 15.76.73 21.42.8 30.72 1.6 34.85 2.96 3.06 1 5.44 1.96 5.34 2.18-.1.22-5.03.25-11.08.03-6.95-.15-12.43.3-14.81 1.31-2.78 1.11-8.55 1.45-18.96 1.17a497 497 0 00-19.26.06c-1.96 2.1-3.22 3.7-3.14 3.91.18.44 3.6.8 7.7.67 6.42.07 7.49.58 8.8 5.12l1.58 5.2-12.32 11.44c-14.88 14.07-14.8 15.53.07 9.58 11.85-4.87 13.18-3.71 12.22 9.76l-.7 9.4-7.8 6.77-7.98 6.78 4.78-1.86c10.01-3.86 10.82-3.57 13.38 6.2 1.32 5 3.34 15.13 4.5 22.73a305.52 305.52 0 004.01 21.52c2.61 10.33 1.87 11.5-25.42 36.33a5.4 5.4 0 01-.08.07c1.5 2.05 3.01 4.07 4.56 6.07 6.48-5.77 13.33-9.75 16.94-9.55 3.26.38 1.01 4.23-9.8 17.27l-.46.55c3.38 4.03 6.89 7.97 10.5 11.8 4.32-2.22 7.22-3 7.28-1.54.04.7-1.25 3.07-3.1 5.88C127.61 512.95 196.24 544 272.09 544c150.23 0 272.1-121.78 272.1-272S422.32 0 272.09 0a273.1 273.1 0 00-58.02 6.2c-2 1.07-4.44 2.32-7.07 3.6-6.35 3.17-11.43 6.29-11.16 6.85.28.56 4.23 1.15 8.72 1.31l8.12.3-3.4 4.84c-1.86 2.57-3.53 4.7-3.7 4.7-.1 0-.92.22-2.04.53l-2.34.63c-3.82 1.07-4.65 2.14-8.17 11.14-3.35 8.25-4.62 10.3-8.2 12.03-7.07 3.59-14.31 4.86-30.39 5.47-16.99.68-20.04 1.23-28.16 5.22-4.92 2.35-5.75 3.42-6.75 8-.58 2.85-.61 5.27-.27 5.28 2.77.1 22.68-5.54 29.57-8.36 5.83-2.42 8.37-3 8.97-1.98.42 1.01 2 .63 5-1.35 4.91-3.12 9.64-3.5 10.2-.83.34 2.76-4.39 7.43-7.5 7.32-4.31-.17-10.99 1.79-10.36 3.13.4.68 2.17.63 4.71.07 3.03-.88 4.19-.73 4.3.6.4 2.22-7.55 8.2-12.5 9.44-6.75 1.73-8.06 1.13-6.16-3.1.97-2.16 1.06-3.92.02-3.96-.86-.03-3.36 1.64-5.37 3.77-4.37 4.24-5.16 4.43-10.99 2.56-3.24-1-4.94-.74-9.07 1.42-4.3 2.15-5.66 2.43-7.93 1.25-3.54-1.9-10.94-1.07-19.06 2.15-4 1.5-9.77 2.6-15.44 2.72zm-41.56 45.6c-.73 1.28-1.46 2.57-2.17 3.86 4.42-.4 7.69-1.24 9.64-2.5 1.37-.98-2.41-1.39-7.47-1.36zm24.15 99.1c-.4-.68 1.81-2.47 4.74-3.9 9.44-4.6 13.48-2.25 5 2.94-4.32 2.59-8.54 2.98-9.74.95zm-16.66-1.62c1.22-2.7 3.73-3.6 6.3-2.3 2.28 1.19-1.4 4.69-4.68 4.56-1.38-.05-2.15-1.07-1.62-2.26zm11.5-33.81c1.12-2.5 4.82-2.9 9.84-1.18 6.62 2.45 4.93 4.26-3.46 3.4-4.34-.5-6.77-1.36-6.38-2.22zm20.2-27c-.38-2.65 1.59-3.13 7.71-1.9 5.19.96 5.31 1.07 1.52 2.47-5.41 1.89-8.99 1.65-9.22-.57zm21.46-.07c1.17-2.6 6.05-4.07 12.26-3.84 7.26.27 6.87 1.91-.71 3.94-7.2 1.93-12.42 1.85-11.55-.1zm-4.65-90.9c-1.98-1.07 2.85-5.96 5.62-5.85 2.59.1 3 3.08.82 5.2-2.09 1.9-3.91 2.06-6.44.64zm20.28-27.55c-.55-1.12-.36-2.32.52-2.73 2.22-1.02 7.45 3.36 5.66 4.62-2.02 1.35-4.96.47-6.18-1.89z" clip-rule="evenodd"/></svg>
