<svg xmlns="http://www.w3.org/2000/svg" fill="none" viewBox="0 0 458 717"><mask id="a" width="396" height="679" x="31" y="20" mask-type="alpha" maskUnits="userSpaceOnUse"><path fill="#C4C4C4" d="M32.18 616.54c.58-2.04.86-5.93.71-8.95-.08-3 .2-7.38.72-9.7 1.86-8.3 2.9-31.33 4.21-91.15.9-41.43 1.55-61.6 2.22-64.6.45-2.31 1.36-11.39 1.93-20.06.57-8.68 1.36-18.38 1.76-21.52.4-3.13 1.13-9.28 1.61-13.58A741.58 741.58 0 0049 343.62c1.67-27.74 4.05-60.66 5.36-72.53 1.48-13.72 1.8-24.04.8-24.68-.34-.28-1.36-.1-2.12.3-1.23.67-1.57.45-2.29-1.06-.58-1.52-.5-2.75.45-5.94 3.77-12.86 6.17-36 6.73-66.15.12-6.5.68-18.32 1.3-26.17 1.34-17 .76-29.74-1.58-35.32-1.3-3.24-1.25-6.04.18-6.02 1.22.02.67-3.34-.8-4.73-.8-.77-2.73-3.06-4.26-5L50 92.63l2-1.47 1.93-1.54-1.44-3.44c-1.56-3.8-1.79-6.12-.6-7.26.54-.54.3-1.7-.75-3.85-1.31-2.62-1.43-3.65-.88-7.47.77-5.25.8-7.1.2-10.87-.36-2.67-.22-3.01 1.85-4.48 1.51-1.07 2.21-2.22 2.24-3.58.1-1.57.93-2.45 4.23-4.5 8.32-5.26 11.25-5.61 22.42-3.08 8.2 1.93 13.63 2.17 14.88.62.55-.6.92-2.17.95-3.54-.1-2.4.11-2.53 6.22-5.63 8.72-4.35 12.6-5.3 18.58-4.65 3.05.4 6.04.32 8.02-.2 2.67-.7 3.82-.6 6.8.34 1.95.65 6.29 1.55 9.61 2.02 17.42 2.59 19.8 2.97 26.29 4.87 3.65 1.1 17.85 1.36 18.82.35.62-.54.44-1.5-.68-3.57-2.04-3.73-1.94-5.5.48-7.86 3.05-2.88 12.94-4.61 19.37-3.4 12.4 2.35 28.76 3.54 36.12 2.59 3.34-.42 4.02-.2 8.93 2.49 8.81 4.88 15.45 6.44 28.43 6.75 10.4.19 11.28.07 14.3-1.52 2.75-1.45 4.04-1.63 9.27-1.47 7.07.27 17.08 2.92 20.23 5.3 9.59 7.3 12.62 8.86 15.82 8.23 1.78-.38 2.45-.02 4.65 2.28 1.87 2.01 2.53 3.26 2.49 5.17l-.12 2.53 5-5.04 4.91-5.04 4.56.09c4.14.08 4.95.36 9.11 3.18 4.3 2.95 4.98 3.17 11.08 3.7 4.35.35 8.2 1.24 11.78 2.6a85.76 85.76 0 008.52 2.83c2.1.45 4.11 1.65 5.98 3.53a21.81 21.81 0 004.76 3.64c1.96.86 2.88 2.45 3.56 6.02.25 1.1 1.37 3.03 2.57 4.36a19.32 19.32 0 013.17 4.84c1.17 2.9.99 9.25-.34 14.97a44.6 44.6 0 00-.8 9.7c.16 2.94-.13 7.25-.65 9.56-1.85 8.31-2.89 31.34-4.2 91.5-.86 38.63-1.63 61.8-2.15 63.91-.43 1.7-1.1 8.19-1.42 14.34-.8 14.35-2.24 29.44-3.28 34.07-.38 2.04-1.39 12.56-2.2 23.35-.74 10.79-1.76 21.71-2.22 24.3-1.13 6.27-2.64 98.78-1.66 100.72.52 1.03.5 2.53-.1 5.05-.44 2.05-1.16 11.4-1.6 20.9-.96 22.21-2.2 37.72-3.72 46.24-2.12 11.79-3 22.72-2.17 25.67.38 1.44.89 10.62 1.05 20.26.16 9.65.27 18.27.32 19.02-.01.82-.18 2.53-.47 3.82-.52 2.12-.26 2.74 1.87 5.1a57.37 57.37 0 014 4.86l1.51 2.15-1.93 1.47-1.93 1.54 1.43 3.44c1.63 3.8 1.8 6.12.55 7.33-.63.6-.44 1.5.75 3.44 1.38 2.41 1.5 3.17.95 7.47-.79 5.73-.82 7.5-.2 11.21.35 2.67.2 3.01-1.86 4.48-1.52 1.13-2.22 2.22-2.24 3.65-.03 1.44-.52 2.18-1.82 2.77-1.44.66-1.8 1.27-1.76 3.12.04 5.33-1.37 15.09-2.34 16.02-1.45 1.41-6.2 1.19-7.53-.34-.6-.7-1.59-2.7-2.24-4.35a14.41 14.41 0 00-3.3-4.99c-1.94-1.74-2.21-1.82-2.84-.66-.7 1.14-.48 7.17.38 12.25.3 1.85-.05 2.73-1.93 4.81-4.44 4.92-6.75 4.8-9.23-.44-1.77-3.52-3.92-5.2-5.9-4.49-1.17.46-1.73 1.61-2.47 4.95-1.11 4.9-2.81 8.57-4.32 9.09-1.16.38-3.58-.82-5.72-2.78-1.4-1.32-1.4-1.67-.5-5.89.51-2.45 1.2-6.27 1.44-8.52l.56-4.1-4.87 2.24c-4.53 2.04-5.41 2.16-11.4 1.9-7.53-.34-15.44.95-17.58 2.83-.83.74-1.95 2.22-2.58 3.3-1.06 2.03-1.2 2.1-5.26 1.62a18.43 18.43 0 01-6.63-1.98c-1.27-.9-2.9-1.55-3.5-1.56-.62-.02-2.28 1.6-3.6 3.69-3.08 4.6-6.6 7.6-8.92 7.56-1.09-.02-3.03-1.35-5.23-3.58-3.88-3.9-4.44-6.3-2.26-10.37.99-1.83 1.07-2.72.5-4.92-.45-1.44-1.23-3.1-1.77-3.52-.8-.76-1.21-.5-2.2 1.26-.84 1.56-1.67 2.23-2.9 2.2-1.76-.03-3.36-2.1-2.98-3.81.14-.68-.6-.9-2.64-.74-4.15.27-4.58 1.01-2.74 4.47 1.91 3.45 1.52 6.39-1.1 8.4-.9.66-4.45 1.75-7.87 2.44-5.25 1-6.95 1.04-10.95.28-2.64-.46-8.6-1.26-13.29-1.75-4.75-.5-10.04-1.15-11.8-1.52-1.7-.37-4.48-.42-6.05-.11-8.11 1.49-8.05 1.49-14.1-1.7a87.52 87.52 0 00-9.71-4.28c-9.8-3.2-27.95-3.6-33.3-.83-2.27 1.26-3.83 1.44-9 1.27-7.2-.27-16.87-2.77-20.02-5.22-7.1-5.47-7.38-5.54-8.9-4.07-1.6 1.55-4.25 1.77-5.58.38-.47-.49-2.7-1.08-4.94-1.33-3.8-.4-4.07-.55-4.24-2.4a6.19 6.19 0 01.54-3.2c.35-.68.46-2.73.22-4.51-.37-2.4-.63-2.89-1.05-2-.29.67-.98 1.28-1.52 1.26-.48 0-1.1.6-1.39 1.35-.28.74-1.74 2.5-3.33 3.83-2.63 2.35-3.24 2.54-7.25 2.47-4.01-.08-4.9-.37-8.99-3.18-4.3-2.95-4.97-3.17-11.08-3.7a42.26 42.26 0 01-11.78-2.6c-2.9-1.08-6.88-2.46-8.7-3.04a17.45 17.45 0 01-6.06-3.53 20.58 20.58 0 00-4.5-3.43c-1.95-.86-2.87-2.45-3.55-6.02-.25-1.1-1.37-3.04-2.57-4.36a19.34 19.34 0 01-3.18-4.84c-1.1-2.76-.89-10.69.36-15.59z"/></mask><g mask="url(#a)"><path fill="#000" d="M24 0h408v700H24z"/></g></svg>
