<svg xmlns="http://www.w3.org/2000/svg" width="35" height="35" fill="none"><path fill="#fff" d="M15.32 20.779l5.693-3.279-5.693-3.279v6.558z"/><path fill="#fff" d="M17.5 0C7.836 0 0 7.836 0 17.5 0 27.163 7.836 35 17.5 35 27.163 35 35 27.163 35 17.5 35 7.836 27.163 0 17.5 0zm10.935 17.518s0 3.549-.45 5.26a2.74 2.74 0 01-1.928 1.928c-1.711.45-8.557.45-8.557.45s-6.828 0-8.557-.468a2.74 2.74 0 01-1.928-1.928c-.45-1.693-.45-5.26-.45-5.26s0-3.549.45-5.26a2.796 2.796 0 011.928-1.946c1.711-.45 8.557-.45 8.557-.45s6.846 0 8.557.468a2.74 2.74 0 011.928 1.928c.468 1.711.45 5.278.45 5.278z"/></svg>