<svg xmlns="http://www.w3.org/2000/svg" width="35" height="35" fill="none"><path fill="#fff" d="M20.85 17.5a3.35 3.35 0 11-6.7 0 3.35 3.35 0 016.7 0z"/><path fill="#fff" d="M25.334 11.574a3.114 3.114 0 00-.752-1.156 3.112 3.112 0 00-1.156-.752c-.354-.137-.886-.3-1.865-.345-1.06-.049-1.378-.06-4.061-.06s-3.001.011-4.06.06c-.98.044-1.513.208-1.866.345a3.11 3.11 0 00-1.156.752c-.334.324-.59.719-.752 1.156-.137.354-.301.886-.346 1.866-.048 1.06-.058 1.377-.058 4.06s.01 3.001.058 4.061c.045.98.209 1.512.346 1.866.161.436.418.831.752 1.155.324.334.719.59 1.155.752.354.138.887.301 1.866.346 1.06.048 1.377.058 4.06.058 2.684 0 3.002-.01 4.061-.058.98-.045 1.512-.208 1.866-.346a3.328 3.328 0 001.908-1.907c.137-.354.3-.886.346-1.866.048-1.06.058-1.378.058-4.06 0-2.684-.01-3.002-.058-4.061-.045-.98-.209-1.512-.346-1.866zM17.5 22.66a5.16 5.16 0 110-10.32 5.16 5.16 0 010 10.32zm5.364-9.318a1.206 1.206 0 110-2.412 1.206 1.206 0 010 2.412z"/><path fill="#fff" d="M17.5 0C7.836 0 0 7.836 0 17.5 0 27.163 7.836 35 17.5 35 27.163 35 35 27.163 35 17.5 35 7.836 27.163 0 17.5 0zm9.988 21.643c-.048 1.07-.218 1.8-.467 2.44a5.139 5.139 0 01-2.939 2.938c-.639.248-1.37.418-2.439.467-1.071.05-1.414.06-4.143.06s-3.071-.01-4.143-.06c-1.07-.049-1.8-.218-2.439-.467a4.923 4.923 0 01-1.78-1.159 4.924 4.924 0 01-1.159-1.78c-.248-.639-.418-1.37-.467-2.439-.05-1.072-.06-1.414-.06-4.143s.01-3.071.06-4.143c.048-1.07.218-1.8.467-2.44a4.923 4.923 0 011.159-1.779 4.922 4.922 0 011.78-1.16c.639-.248 1.37-.417 2.439-.466 1.072-.05 1.414-.06 4.143-.06s3.071.01 4.143.06c1.07.049 1.8.218 2.44.467.67.252 1.277.648 1.78 1.159.51.502.906 1.11 1.158 1.78.249.639.419 1.37.467 2.439.05 1.072.06 1.414.06 4.143s-.01 3.071-.06 4.143z"/></svg>